G04 #@! TF.GenerationSoftware,KiCad,Pcbnew,7.0.9-7.0.9~ubuntu20.04.1*
G04 #@! TF.CreationDate,2023-12-28T04:07:49+00:00*
G04 #@! TF.ProjectId,yote,796f7465-2e6b-4696-9361-645f70636258,rev?*
G04 #@! TF.SameCoordinates,Original*
G04 #@! TF.FileFunction,Legend,Top*
G04 #@! TF.FilePolarity,Positive*
%FSLAX46Y46*%
G04 Gerber Fmt 4.6, Leading zero omitted, Abs format (unit mm)*
G04 Created by KiCad (PCBNEW 7.0.9-7.0.9~ubuntu20.04.1) date 2023-12-28 04:07:49*
%MOMM*%
%LPD*%
G01*
G04 APERTURE LIST*
G04 Aperture macros list*
%AMRoundRect*
0 Rectangle with rounded corners*
0 $1 Rounding radius*
0 $2 $3 $4 $5 $6 $7 $8 $9 X,Y pos of 4 corners*
0 Add a 4 corners polygon primitive as box body*
4,1,4,$2,$3,$4,$5,$6,$7,$8,$9,$2,$3,0*
0 Add four circle primitives for the rounded corners*
1,1,$1+$1,$2,$3*
1,1,$1+$1,$4,$5*
1,1,$1+$1,$6,$7*
1,1,$1+$1,$8,$9*
0 Add four rect primitives between the rounded corners*
20,1,$1+$1,$2,$3,$4,$5,0*
20,1,$1+$1,$4,$5,$6,$7,0*
20,1,$1+$1,$6,$7,$8,$9,0*
20,1,$1+$1,$8,$9,$2,$3,0*%
G04 Aperture macros list end*
%ADD10C,0.150000*%
%ADD11C,0.120000*%
%ADD12C,0.100000*%
%ADD13C,0.127000*%
%ADD14R,0.500000X0.600000*%
%ADD15R,0.800000X0.600000*%
%ADD16R,0.600000X0.500000*%
%ADD17RoundRect,0.100000X-0.300000X0.350000X-0.300000X-0.350000X0.300000X-0.350000X0.300000X0.350000X0*%
%ADD18RoundRect,0.100000X0.300000X-0.350000X0.300000X0.350000X-0.300000X0.350000X-0.300000X-0.350000X0*%
%ADD19R,0.250000X0.270000*%
%ADD20C,1.000000*%
%ADD21C,0.243840*%
%ADD22R,0.600000X0.800000*%
%ADD23R,0.270000X0.250000*%
%ADD24C,0.152400*%
%ADD25C,0.220000*%
%ADD26R,1.600000X0.800000*%
%ADD27R,0.600000X0.700000*%
%ADD28C,0.990600*%
%ADD29C,0.787400*%
%ADD30C,0.800000*%
G04 APERTURE END LIST*
D10*
X118750001Y-75050000D02*
G75*
G03*
X118750001Y-75050000I-1J0D01*
G01*
X121236779Y-72888866D02*
X121998684Y-72888866D01*
X107686779Y-72988866D02*
X108448684Y-72988866D01*
X108067731Y-73369819D02*
X108067731Y-72607914D01*
X119386779Y-72738866D02*
X120148684Y-72738866D01*
X119767731Y-73119819D02*
X119767731Y-72357914D01*
X110236779Y-74088866D02*
X110998684Y-74088866D01*
D11*
X103030399Y-71711300D02*
X107429601Y-71711300D01*
X107429601Y-71711300D02*
X107429601Y-68728700D01*
D10*
X103248800Y-71693200D02*
X103071000Y-71540800D01*
D11*
X103030399Y-68728700D02*
X103030399Y-71711300D01*
X107429601Y-68728700D02*
X103030399Y-68728700D01*
X118139100Y-74930900D02*
X118139100Y-74649171D01*
X118139100Y-74470829D02*
X118139100Y-74299171D01*
X118139100Y-74120829D02*
X118139100Y-73599171D01*
X118139100Y-73420829D02*
X118139100Y-72899171D01*
X118139100Y-72720829D02*
X118139100Y-72199171D01*
X118139100Y-72020829D02*
X118139100Y-71499171D01*
X118139100Y-71320829D02*
X118139100Y-71149171D01*
X118139100Y-70970829D02*
X118139100Y-70689100D01*
X118139100Y-70689100D02*
X117912237Y-70689100D01*
X117912237Y-74930900D02*
X118139100Y-74930900D01*
X117567764Y-70689100D02*
X117212237Y-70689100D01*
X116867764Y-70689100D02*
X116512236Y-70689100D01*
X116512236Y-74930900D02*
X116867764Y-74930900D01*
X116167764Y-70689100D02*
X115812236Y-70689100D01*
X115812236Y-74930900D02*
X116167764Y-74930900D01*
X115467764Y-70689100D02*
X115112236Y-70689100D01*
X115112236Y-74930900D02*
X115467764Y-74930900D01*
X114767764Y-70689100D02*
X114412236Y-70689100D01*
X114412236Y-74930900D02*
X114767764Y-74930900D01*
X113717764Y-70689100D02*
X113490900Y-70689100D01*
X113490900Y-74930900D02*
X113717764Y-74930900D01*
X113490900Y-74649170D02*
X113490900Y-74930900D01*
X113490900Y-74299170D02*
X113490900Y-74470831D01*
X113490900Y-73599170D02*
X113490900Y-74120831D01*
X113490900Y-72899170D02*
X113490900Y-73420830D01*
X113490900Y-72199170D02*
X113490900Y-72720830D01*
X113490900Y-71499169D02*
X113490900Y-72020830D01*
X113490900Y-71149169D02*
X113490900Y-71320830D01*
X113490900Y-70689100D02*
X113490900Y-70970830D01*
D12*
X118139100Y-74930900D02*
X117912237Y-74930900D01*
X118139100Y-74649171D01*
X118139100Y-74930900D01*
G36*
X118139100Y-74930900D02*
G01*
X117912237Y-74930900D01*
X118139100Y-74649171D01*
X118139100Y-74930900D01*
G37*
D13*
X108360000Y-70300000D02*
X108360000Y-70915000D01*
X108360000Y-70300000D02*
X108975000Y-70300000D01*
X110820000Y-70300000D02*
X110205000Y-70300000D01*
X110820000Y-70300000D02*
X110820000Y-70915000D01*
X110820000Y-72760000D02*
X110205000Y-72760000D01*
X110820000Y-72760000D02*
X110820000Y-72145000D01*
D12*
X108360000Y-70607500D02*
X108360000Y-70300000D01*
X108667500Y-70300000D01*
X108360000Y-70607500D01*
G36*
X108360000Y-70607500D02*
G01*
X108360000Y-70300000D01*
X108667500Y-70300000D01*
X108360000Y-70607500D01*
G37*
D13*
X122560000Y-74830000D02*
X122560000Y-76790000D01*
X120960000Y-74830000D02*
X120960000Y-76790000D01*
D10*
X122535001Y-73510000D02*
G75*
G03*
X122535001Y-73510000I-1J0D01*
G01*
D11*
X100470000Y-68135000D02*
X101105000Y-68135000D01*
X100470000Y-68770000D02*
X100470000Y-68135000D01*
%LPC*%
D14*
X108000000Y-69370000D03*
X108000000Y-68370000D03*
D15*
X112870000Y-73180000D03*
X112870000Y-74580000D03*
D16*
X113280000Y-75370000D03*
X114280000Y-75370000D03*
D17*
X119240000Y-75580000D03*
D18*
X119240000Y-76980000D03*
X120340000Y-76980000D03*
D17*
X120340000Y-75580000D03*
D15*
X112460000Y-71670000D03*
X112460000Y-70270000D03*
D19*
X117300000Y-75530000D03*
X116750000Y-75530000D03*
D20*
X111660000Y-74420000D03*
X111660000Y-74420000D03*
D21*
X103505000Y-71220000D03*
X103505000Y-70820000D03*
X103505000Y-70420000D03*
X103505000Y-70020000D03*
X103505000Y-69620000D03*
X103505000Y-69220000D03*
X103850000Y-71020000D03*
X103850000Y-70620000D03*
X103850000Y-70220000D03*
X103850000Y-69820000D03*
X103850000Y-69420000D03*
X104195000Y-71220000D03*
X104195000Y-70820000D03*
X104195000Y-70420000D03*
X104195000Y-70020000D03*
X104195000Y-69620000D03*
X104195000Y-69220000D03*
X104540000Y-71020000D03*
X104540000Y-70620000D03*
X104540000Y-70220000D03*
X104540000Y-69820000D03*
X104540000Y-69420000D03*
X104885000Y-71220000D03*
X104885000Y-70820000D03*
X104885000Y-70420000D03*
X104885000Y-70020000D03*
X104885000Y-69620000D03*
X104885000Y-69220000D03*
X105230000Y-71020000D03*
X105230000Y-70620000D03*
X105230000Y-70220000D03*
X105230000Y-69820000D03*
X105230000Y-69420000D03*
X105575000Y-71220000D03*
X105575000Y-70820000D03*
X105575000Y-70420000D03*
X105575000Y-70020000D03*
X105575000Y-69620000D03*
X105575000Y-69220000D03*
X105920000Y-71020000D03*
X105920000Y-70620000D03*
X105920000Y-70220000D03*
X105920000Y-69820000D03*
X105920000Y-69420000D03*
X106265000Y-71220000D03*
X106265000Y-70820000D03*
X106265000Y-70420000D03*
X106265000Y-70020000D03*
X106265000Y-69620000D03*
X106265000Y-69220000D03*
X106610000Y-71020000D03*
X106610000Y-70620000D03*
X106610000Y-70220000D03*
X106610000Y-69820000D03*
X106610000Y-69420000D03*
X106955000Y-71220000D03*
X106955000Y-70820000D03*
X106955000Y-70420000D03*
X106955000Y-70020000D03*
X106955000Y-69620000D03*
X106955000Y-69220000D03*
D22*
X111360000Y-69390000D03*
X112760000Y-69390000D03*
D19*
X119150000Y-73375000D03*
X119700000Y-73375000D03*
D23*
X107700000Y-70575000D03*
X107700000Y-71125000D03*
D24*
X117740000Y-74560000D03*
X117390000Y-74560000D03*
X117040000Y-74560000D03*
X116340000Y-74560000D03*
X115640000Y-74560000D03*
X114940000Y-74560000D03*
X114240000Y-74560000D03*
X113890000Y-74560000D03*
X117740000Y-74210000D03*
X117390000Y-74210000D03*
X116690000Y-74210000D03*
X116340000Y-74210000D03*
X115990000Y-74210000D03*
X115640000Y-74210000D03*
X115290000Y-74210000D03*
X114940000Y-74210000D03*
X114590000Y-74210000D03*
X114240000Y-74210000D03*
X113890000Y-74210000D03*
X117390000Y-73860000D03*
X116690000Y-73860000D03*
X116340000Y-73860000D03*
X115990000Y-73860000D03*
X115640000Y-73860000D03*
X115290000Y-73860000D03*
X114940000Y-73860000D03*
X114590000Y-73860000D03*
X114240000Y-73860000D03*
X117740000Y-73510000D03*
X117390000Y-73510000D03*
X114590000Y-73510000D03*
X114240000Y-73510000D03*
X113890000Y-73510000D03*
X117390000Y-73160000D03*
X117040000Y-73160000D03*
X116690000Y-73160000D03*
X116340000Y-73160000D03*
X115990000Y-73160000D03*
X115640000Y-73160000D03*
X115290000Y-73160000D03*
X114590000Y-73160000D03*
X114240000Y-73160000D03*
X117740000Y-72810000D03*
X117390000Y-72810000D03*
X117040000Y-72810000D03*
X116340000Y-72810000D03*
X115990000Y-72810000D03*
X115640000Y-72810000D03*
X115290000Y-72810000D03*
X114590000Y-72810000D03*
X114240000Y-72810000D03*
X113890000Y-72810000D03*
X117390000Y-72460000D03*
X117040000Y-72460000D03*
X116340000Y-72460000D03*
X115990000Y-72460000D03*
X115640000Y-72460000D03*
X115290000Y-72460000D03*
X114590000Y-72460000D03*
X114240000Y-72460000D03*
X117740000Y-72110000D03*
X117390000Y-72110000D03*
X117040000Y-72110000D03*
X114590000Y-72110000D03*
X114240000Y-72110000D03*
X113890000Y-72110000D03*
X117390000Y-71760000D03*
X117040000Y-71760000D03*
X116690000Y-71760000D03*
X116340000Y-71760000D03*
X115990000Y-71760000D03*
X115640000Y-71760000D03*
X115290000Y-71760000D03*
X114940000Y-71760000D03*
X114590000Y-71760000D03*
X114240000Y-71760000D03*
X117740000Y-71410000D03*
X117390000Y-71410000D03*
X117040000Y-71410000D03*
X116690000Y-71410000D03*
X116340000Y-71410000D03*
X115990000Y-71410000D03*
X115640000Y-71410000D03*
X115290000Y-71410000D03*
X114940000Y-71410000D03*
X114590000Y-71410000D03*
X114240000Y-71410000D03*
X113890000Y-71410000D03*
X117740000Y-71060000D03*
X117040000Y-71060000D03*
X116340000Y-71060000D03*
X115640000Y-71060000D03*
X114940000Y-71060000D03*
X114240000Y-71060000D03*
X113890000Y-71060000D03*
D14*
X114990000Y-76390000D03*
X114990000Y-75390000D03*
D19*
X113875000Y-70270000D03*
X113325000Y-70270000D03*
D25*
X108790000Y-70730000D03*
X109190000Y-70730000D03*
X109590000Y-70730000D03*
X109990000Y-70730000D03*
X110390000Y-70730000D03*
X108790000Y-71130000D03*
X109190000Y-71130000D03*
X109590000Y-71130000D03*
X109990000Y-71130000D03*
X110390000Y-71130000D03*
X108790000Y-71530000D03*
X109190000Y-71530000D03*
X109590000Y-71530000D03*
X109990000Y-71530000D03*
X110390000Y-71530000D03*
X108790000Y-71930000D03*
X109190000Y-71930000D03*
X109590000Y-71930000D03*
X109990000Y-71930000D03*
X110390000Y-71930000D03*
X108790000Y-72330000D03*
X109190000Y-72330000D03*
X109590000Y-72330000D03*
X109990000Y-72330000D03*
X110390000Y-72330000D03*
D26*
X121760000Y-74110000D03*
X121760000Y-77510000D03*
D19*
X118305000Y-71170000D03*
X118855000Y-71170000D03*
D14*
X117240000Y-77770000D03*
X117240000Y-76770000D03*
D23*
X118620000Y-73700000D03*
X118620000Y-74250000D03*
D16*
X109460000Y-68840000D03*
X110460000Y-68840000D03*
X103360000Y-67910000D03*
X104360000Y-67910000D03*
X112560000Y-72380000D03*
X111560000Y-72380000D03*
D19*
X118615000Y-74700000D03*
X119165000Y-74700000D03*
D22*
X107600000Y-72250000D03*
X106200000Y-72250000D03*
D23*
X113220000Y-72165000D03*
X113220000Y-71615000D03*
D22*
X105240000Y-68260000D03*
X106640000Y-68260000D03*
D27*
X110470000Y-73280000D03*
D22*
X111870000Y-73280000D03*
D16*
X115560000Y-70080000D03*
X114560000Y-70080000D03*
D20*
X120650000Y-72400000D03*
X120650000Y-72400000D03*
D15*
X111470000Y-70250000D03*
X111470000Y-71650000D03*
D16*
X116840000Y-78630000D03*
X117840000Y-78630000D03*
D23*
X118100000Y-75565000D03*
X118100000Y-76115000D03*
D20*
X119200000Y-72000000D03*
X119200000Y-72000000D03*
D16*
X105180000Y-72280000D03*
X104180000Y-72280000D03*
D20*
X108980000Y-73220000D03*
X108980000Y-73220000D03*
D23*
X120250000Y-73375000D03*
X120250000Y-73925000D03*
D28*
X101740000Y-67500000D03*
X102756000Y-72580000D03*
X100724000Y-72580000D03*
D29*
X101105000Y-68770000D03*
X102375000Y-68770000D03*
X101105000Y-70040000D03*
X102375000Y-70040000D03*
X101105000Y-71310000D03*
X102375000Y-71310000D03*
D15*
X116380000Y-76200000D03*
X116380000Y-77600000D03*
D30*
X108989999Y-69819999D03*
X119404983Y-77974529D03*
%LPD*%
M02*
