M48
; DRILL file {KiCad 7.0.9-7.0.9~ubuntu20.04.1} date Thu 28 Dec 2023 04:07:46 GMT
; FORMAT={-:-/ absolute / metric / decimal}
; #@! TF.CreationDate,2023-12-28T04:07:46+00:00
; #@! TF.GenerationSoftware,Kicad,Pcbnew,7.0.9-7.0.9~ubuntu20.04.1
; #@! TF.FileFunction,Plated,1,8,PTH
FMAT,2
METRIC
; #@! TA.AperFunction,Plated,PTH,ViaDrill
T1C0.150
; #@! TA.AperFunction,Plated,PTH,ViaDrill
T2C0.300
; #@! TA.AperFunction,Plated,PTH,ComponentDrill
T3C0.600
%
G90
G05
T1
X100.82Y-70.69
X101.54Y-72.21
X101.69Y-69.42
X101.69Y-70.64
X103.15Y-71.319
X103.85Y-69.42
X103.85Y-69.82
X103.85Y-70.22
X104.195Y-69.62
X104.358Y-67.951
X104.438Y-72.325
X104.54Y-69.444
X104.544Y-69.834
X104.885Y-71.22
X104.89Y-70.02
X105.185Y-68.95
X105.23Y-69.82
X105.23Y-70.62
X105.238Y-69.424
X105.57Y-70.82
X105.575Y-69.62
X105.663Y-72.685
X105.81Y-68.856
X105.927Y-69.821
X106.184Y-71.611
X106.214Y-68.864
X106.233Y-68.113
X106.26Y-69.62
X106.265Y-70.02
X106.61Y-69.82
X106.61Y-70.62
X106.63Y-68.9
X107.299Y-70.649
X107.407Y-69.417
X107.452Y-70.191
X107.65Y-72.65
X108.047Y-70.81
X108.47Y-68.43
X108.48Y-72.674
X109.771Y-72.603
X109.905Y-68.775
X109.927Y-73.247
X110.593Y-71.496
X110.62Y-72.68
X110.83Y-71.81
X113.221Y-70.316
X113.717Y-69.754
X113.926Y-73.896
X113.996Y-70.044
X114.277Y-70.652
X114.666Y-70.669
X114.909Y-72.16
X114.914Y-72.571
X114.925Y-73.448
X114.928Y-73.017
X114.94Y-71.76
X115.044Y-70.762
X115.245Y-75.298
X115.28Y-72.8
X115.287Y-72.456
X115.29Y-73.16
X115.299Y-72.08
X115.315Y-70.204
X115.428Y-70.826
X115.64Y-71.76
X115.64Y-72.46
X115.64Y-72.81
X115.64Y-73.16
X115.811Y-72.11
X115.823Y-70.94
X115.99Y-72.46
X115.99Y-72.81
X115.99Y-73.16
X116.074Y-71.238
X116.199Y-72.118
X116.34Y-71.76
X116.34Y-72.81
X116.34Y-73.16
X116.344Y-72.465
X116.4Y-70.4
X116.45Y-75.55
X116.452Y-75.162
X116.74Y-70.59
X117.28Y-70.735
X117.873Y-75.628
X117.968Y-76.131
X118.195Y-72.204
X118.274Y-72.815
X118.35Y-71.7
X118.359Y-73.873
X118.691Y-74.215
X118.739Y-72.939
X119.295Y-72.895
X119.6Y-74.82
X119.961Y-75.035
X120.424Y-79.324
X120.594Y-74.483
T2
X102.745Y-69.403
X102.813Y-70.628
X103.09Y-68.56
X105.18Y-72.28
X106.89Y-72.353
X110.407Y-68.853
X112.415Y-73.914
X112.55Y-71.775
X113.923Y-75.704
X115.035Y-77.03
X116.456Y-78.34
X117.045Y-76.888
X117.55Y-78.41
X118.453Y-79.041
T3
X108.98Y-73.22
X111.66Y-74.42
X119.2Y-72.0
X120.65Y-72.4
T0
M30
