G04 #@! TF.GenerationSoftware,KiCad,Pcbnew,7.0.9-7.0.9~ubuntu20.04.1*
G04 #@! TF.CreationDate,2023-12-28T04:07:48+00:00*
G04 #@! TF.ProjectId,yote,796f7465-2e6b-4696-9361-645f70636258,rev?*
G04 #@! TF.SameCoordinates,Original*
G04 #@! TF.FileFunction,Copper,L4,Inr*
G04 #@! TF.FilePolarity,Positive*
%FSLAX46Y46*%
G04 Gerber Fmt 4.6, Leading zero omitted, Abs format (unit mm)*
G04 Created by KiCad (PCBNEW 7.0.9-7.0.9~ubuntu20.04.1) date 2023-12-28 04:07:48*
%MOMM*%
%LPD*%
G01*
G04 APERTURE LIST*
G04 #@! TA.AperFunction,ComponentPad*
%ADD10C,1.000000*%
G04 #@! TD*
G04 #@! TA.AperFunction,ViaPad*
%ADD11C,0.300000*%
G04 #@! TD*
G04 #@! TA.AperFunction,ViaPad*
%ADD12C,0.500000*%
G04 #@! TD*
G04 #@! TA.AperFunction,Conductor*
%ADD13C,0.250000*%
G04 #@! TD*
G04 #@! TA.AperFunction,Conductor*
%ADD14C,0.500000*%
G04 #@! TD*
G04 #@! TA.AperFunction,Conductor*
%ADD15C,0.150000*%
G04 #@! TD*
G04 APERTURE END LIST*
D10*
X119200000Y-72000000D03*
D11*
X120593635Y-74482572D03*
X113995915Y-70044085D03*
X118350000Y-71700000D03*
D12*
X103090000Y-68560000D03*
X112550000Y-71775500D03*
D11*
X117872647Y-75627676D03*
X107298710Y-70648710D03*
D12*
X116455500Y-78340000D03*
D11*
X115315193Y-70204066D03*
X118358901Y-73873122D03*
D12*
X105180000Y-72280000D03*
X115035000Y-77029502D03*
D11*
X108047488Y-70810499D03*
X109905141Y-68774859D03*
D12*
X112415500Y-73914500D03*
D11*
X107650000Y-72650000D03*
D13*
X115035000Y-77029502D02*
X115035000Y-76385000D01*
X115035000Y-76385000D02*
X114385300Y-75735300D01*
X110750000Y-71025000D02*
X108261989Y-71025000D01*
X114385300Y-75735300D02*
X114385300Y-75010300D01*
X114385300Y-75010300D02*
X113365000Y-73990000D01*
X113365000Y-73990000D02*
X113365000Y-73640000D01*
X113365000Y-73640000D02*
X110750000Y-71025000D01*
X108261989Y-71025000D02*
X108047488Y-70810499D01*
D14*
X103090000Y-68560000D02*
X103350000Y-68820000D01*
X103350000Y-68820000D02*
X103350000Y-70450000D01*
X103350000Y-70450000D02*
X103740000Y-70840000D01*
X103740000Y-70840000D02*
X104170000Y-70840000D01*
X104170000Y-70840000D02*
X104580000Y-70430000D01*
D13*
X104580000Y-70430000D02*
X104690000Y-70320000D01*
X104690000Y-70320000D02*
X106970000Y-70320000D01*
X106970000Y-70320000D02*
X107298710Y-70648710D01*
X107650000Y-72650000D02*
X108062484Y-72237516D01*
X108062484Y-72237516D02*
X109922357Y-72237516D01*
X111173812Y-73750000D02*
X112251000Y-73750000D01*
X109922357Y-72237516D02*
X110230000Y-72545159D01*
X110230000Y-72545159D02*
X110230000Y-72806188D01*
X110230000Y-72806188D02*
X111173812Y-73750000D01*
X112251000Y-73750000D02*
X112415500Y-73914500D01*
X117940000Y-73850000D02*
X116500000Y-73850000D01*
X107298710Y-70648710D02*
X107601290Y-70648710D01*
X117940000Y-73850000D02*
X117940000Y-75560323D01*
X118350000Y-71700000D02*
X118183060Y-71700000D01*
D14*
X117450000Y-76458317D02*
X117635498Y-76643815D01*
D13*
X114155896Y-70204066D02*
X113995915Y-70044085D01*
X117100000Y-73350000D02*
X116600000Y-73850000D01*
D14*
X114190000Y-73280000D02*
X114054500Y-73280000D01*
D13*
X116500000Y-73850000D02*
X114572967Y-73850000D01*
D15*
X110510000Y-70340000D02*
X111114500Y-70340000D01*
D13*
X118080000Y-73710000D02*
X117940000Y-73850000D01*
X113911503Y-70918497D02*
X113054500Y-71775500D01*
D14*
X117872647Y-75627676D02*
X117450000Y-75627676D01*
D13*
X114190000Y-73280000D02*
X114190000Y-73450000D01*
X120593635Y-74482572D02*
X120593635Y-74473635D01*
X115315193Y-70204066D02*
X114155896Y-70204066D01*
D15*
X109200000Y-69030000D02*
X110510000Y-70340000D01*
D13*
X120593635Y-74473635D02*
X119830000Y-73710000D01*
D14*
X111114500Y-70340000D02*
X112550000Y-71775500D01*
X117635498Y-76643815D02*
X117635498Y-77160002D01*
D15*
X107930000Y-69030000D02*
X109200000Y-69030000D01*
D13*
X119830000Y-73710000D02*
X118080000Y-73710000D01*
X113911503Y-70128497D02*
X113911503Y-70918497D01*
X107378243Y-68478243D02*
X103171757Y-68478243D01*
X117100000Y-72783060D02*
X117100000Y-73350000D01*
D14*
X114054500Y-73280000D02*
X112550000Y-71775500D01*
D13*
X107930000Y-70320000D02*
X107930000Y-69030000D01*
X107601290Y-70648710D02*
X107930000Y-70320000D01*
D14*
X117450000Y-75627676D02*
X117450000Y-76458317D01*
D13*
X103171757Y-68478243D02*
X103090000Y-68560000D01*
X113995915Y-70044085D02*
X113911503Y-70128497D01*
X114572967Y-73850000D02*
X114572967Y-73832967D01*
X107930000Y-70320000D02*
X107960000Y-70290000D01*
D14*
X112550000Y-71775500D02*
X112550000Y-71800000D01*
X117635498Y-77160002D02*
X116455500Y-78340000D01*
D13*
X113054500Y-71775500D02*
X112550000Y-71775500D01*
X107930000Y-69030000D02*
X107378243Y-68478243D01*
X117940000Y-75560323D02*
X117872647Y-75627676D01*
X114572967Y-73832967D02*
X114190000Y-73450000D01*
X116600000Y-73850000D02*
X116500000Y-73850000D01*
X118183060Y-71700000D02*
X117100000Y-72783060D01*
X107647987Y-71210000D02*
X108047488Y-70810499D01*
X106160000Y-72280000D02*
X107230000Y-71210000D01*
X105180000Y-72280000D02*
X106160000Y-72280000D01*
X107230000Y-71210000D02*
X107647987Y-71210000D01*
X118650000Y-71150000D02*
X118930000Y-71430000D01*
X115703526Y-69903526D02*
X115753526Y-69903526D01*
X110214663Y-69317728D02*
X110599883Y-69317728D01*
X115930000Y-70080000D02*
X115930000Y-70510000D01*
X111137611Y-68780000D02*
X111753188Y-68780000D01*
D15*
X116375468Y-70920000D02*
X116430000Y-70920000D01*
D13*
X111753188Y-68780000D02*
X112685690Y-69001315D01*
X116570000Y-71150000D02*
X118650000Y-71150000D01*
X109905141Y-69008206D02*
X110214663Y-69317728D01*
X118930000Y-71430000D02*
X118930000Y-72120000D01*
X115678224Y-69878224D02*
X115703526Y-69903526D01*
X115753526Y-69903526D02*
X115930000Y-70080000D01*
X115930000Y-70510000D02*
X116570000Y-71150000D01*
X112685690Y-69001315D02*
X113977866Y-69349771D01*
X109905141Y-68774859D02*
X109905141Y-69008206D01*
X110599883Y-69317728D02*
X111137611Y-68780000D01*
X113977866Y-69349771D02*
X115258929Y-69737336D01*
X115258929Y-69737336D02*
X115678224Y-69878224D01*
G04 #@! TA.AperFunction,Conductor*
G36*
X108152025Y-67974960D02*
G01*
X108245750Y-67988802D01*
X108309193Y-68018071D01*
X108346741Y-68076994D01*
X108346473Y-68146863D01*
X108308473Y-68205495D01*
X108296523Y-68214572D01*
X108271376Y-68231374D01*
X108210485Y-68322505D01*
X108210483Y-68322509D01*
X108189103Y-68429997D01*
X108189103Y-68430002D01*
X108210483Y-68537490D01*
X108210484Y-68537493D01*
X108210485Y-68537495D01*
X108229713Y-68566272D01*
X108271375Y-68628624D01*
X108307876Y-68653013D01*
X108362505Y-68689515D01*
X108362508Y-68689515D01*
X108362509Y-68689516D01*
X108469998Y-68710897D01*
X108470000Y-68710897D01*
X108470002Y-68710897D01*
X108577490Y-68689516D01*
X108577490Y-68689515D01*
X108577495Y-68689515D01*
X108668624Y-68628624D01*
X108729515Y-68537495D01*
X108744800Y-68460651D01*
X108750897Y-68430002D01*
X108750897Y-68429997D01*
X108729516Y-68322509D01*
X108729515Y-68322505D01*
X108690378Y-68263933D01*
X108669501Y-68197258D01*
X108687985Y-68129878D01*
X108739964Y-68083187D01*
X108808934Y-68072011D01*
X108811573Y-68072371D01*
X108915413Y-68087708D01*
X109416234Y-68176316D01*
X109478817Y-68207378D01*
X109514673Y-68267346D01*
X109514260Y-68331045D01*
X109399999Y-68750001D01*
X109582477Y-69088885D01*
X109590250Y-69111270D01*
X109590842Y-69111055D01*
X109596381Y-69126274D01*
X109603338Y-69143067D01*
X109605586Y-69147887D01*
X109605587Y-69147890D01*
X109612487Y-69157744D01*
X109628796Y-69181037D01*
X109631702Y-69185598D01*
X109642741Y-69204716D01*
X109651947Y-69220661D01*
X109651948Y-69220661D01*
X109656356Y-69228296D01*
X109662115Y-69236786D01*
X109706057Y-69318392D01*
X109750000Y-69400000D01*
X109879618Y-69455550D01*
X109918451Y-69481842D01*
X109972546Y-69535937D01*
X109976188Y-69539912D01*
X110002208Y-69570922D01*
X110037262Y-69591160D01*
X110041822Y-69594065D01*
X110074979Y-69617282D01*
X110074982Y-69617282D01*
X110079839Y-69619548D01*
X110096596Y-69626488D01*
X110101616Y-69628315D01*
X110101618Y-69628316D01*
X110141493Y-69635346D01*
X110146750Y-69636512D01*
X110185856Y-69646991D01*
X110226173Y-69643463D01*
X110231575Y-69643228D01*
X110292080Y-69643228D01*
X110340926Y-69653254D01*
X110450000Y-69700000D01*
X110551760Y-69655480D01*
X110612270Y-69645555D01*
X110628690Y-69646992D01*
X110667823Y-69636505D01*
X110673045Y-69635347D01*
X110712928Y-69628316D01*
X110712933Y-69628312D01*
X110717982Y-69626475D01*
X110734707Y-69619547D01*
X110739564Y-69617282D01*
X110739567Y-69617282D01*
X110772724Y-69594063D01*
X110777273Y-69591166D01*
X110812338Y-69570922D01*
X110832701Y-69546652D01*
X110877985Y-69512756D01*
X111215482Y-69365101D01*
X111284787Y-69356266D01*
X111287039Y-69356648D01*
X113200000Y-69700000D01*
X113347736Y-69723503D01*
X113410848Y-69753474D01*
X113447738Y-69812811D01*
X113449869Y-69821770D01*
X113457869Y-69861991D01*
X113457872Y-69861998D01*
X113461372Y-69867236D01*
X113482247Y-69933914D01*
X113463760Y-70001293D01*
X113411779Y-70047981D01*
X113342808Y-70059155D01*
X113334076Y-70057739D01*
X113221467Y-70035340D01*
X113221463Y-70035340D01*
X113113974Y-70056720D01*
X113113970Y-70056722D01*
X113022840Y-70117612D01*
X112961950Y-70208742D01*
X112961948Y-70208746D01*
X112940568Y-70316234D01*
X112940568Y-70316239D01*
X112961948Y-70423727D01*
X112961949Y-70423730D01*
X112961950Y-70423732D01*
X112970462Y-70436471D01*
X113022840Y-70514861D01*
X113055440Y-70536643D01*
X113113970Y-70575752D01*
X113113973Y-70575752D01*
X113113974Y-70575753D01*
X113221463Y-70597134D01*
X113221465Y-70597134D01*
X113221467Y-70597134D01*
X113328955Y-70575753D01*
X113328955Y-70575752D01*
X113328960Y-70575752D01*
X113420089Y-70514861D01*
X113480980Y-70423732D01*
X113493561Y-70360485D01*
X113502362Y-70316239D01*
X113502362Y-70316234D01*
X113480981Y-70208746D01*
X113480979Y-70208740D01*
X113477479Y-70203502D01*
X113456603Y-70136824D01*
X113475089Y-70069444D01*
X113527070Y-70022756D01*
X113596040Y-70011581D01*
X113604775Y-70012997D01*
X113609890Y-70014014D01*
X113609891Y-70014015D01*
X113677899Y-70027542D01*
X113717385Y-70035397D01*
X113717386Y-70035397D01*
X113717388Y-70035397D01*
X113824876Y-70014016D01*
X113824876Y-70014015D01*
X113824881Y-70014015D01*
X113916010Y-69953124D01*
X113955959Y-69893335D01*
X114009568Y-69848532D01*
X114078538Y-69839767D01*
X114907246Y-69971607D01*
X114915436Y-69973488D01*
X115119795Y-70035313D01*
X115159940Y-70047459D01*
X115187503Y-70056720D01*
X115315497Y-70099727D01*
X115372773Y-70139736D01*
X115399327Y-70204363D01*
X115400000Y-70217267D01*
X115400000Y-70436471D01*
X115380315Y-70503510D01*
X115327511Y-70549265D01*
X115258353Y-70559209D01*
X115207110Y-70539574D01*
X115175749Y-70518619D01*
X115151474Y-70502399D01*
X115151473Y-70502398D01*
X115151472Y-70502398D01*
X115151469Y-70502397D01*
X115043981Y-70481017D01*
X115043977Y-70481017D01*
X114967509Y-70496227D01*
X114897917Y-70490000D01*
X114875811Y-70475512D01*
X114874376Y-70477661D01*
X114837627Y-70453106D01*
X114777966Y-70413241D01*
X114773092Y-70409984D01*
X114773088Y-70409983D01*
X114665600Y-70388603D01*
X114665596Y-70388603D01*
X114558105Y-70409983D01*
X114558102Y-70409985D01*
X114553229Y-70413241D01*
X114486550Y-70434113D01*
X114419171Y-70415623D01*
X114415456Y-70413236D01*
X114383998Y-70392216D01*
X114383997Y-70392215D01*
X114383996Y-70392215D01*
X114383993Y-70392214D01*
X114276505Y-70370834D01*
X114276501Y-70370834D01*
X114169012Y-70392214D01*
X114169008Y-70392216D01*
X114077878Y-70453106D01*
X114016988Y-70544236D01*
X114016986Y-70544240D01*
X113995606Y-70651728D01*
X113995606Y-70651733D01*
X114016986Y-70759221D01*
X114016987Y-70759224D01*
X114016988Y-70759226D01*
X114018012Y-70760758D01*
X114077878Y-70850355D01*
X114091722Y-70859605D01*
X114169008Y-70911246D01*
X114169011Y-70911246D01*
X114169012Y-70911247D01*
X114276501Y-70932628D01*
X114276503Y-70932628D01*
X114276505Y-70932628D01*
X114383996Y-70911247D01*
X114383997Y-70911246D01*
X114383998Y-70911246D01*
X114388860Y-70907996D01*
X114455537Y-70887117D01*
X114522918Y-70905600D01*
X114526635Y-70907988D01*
X114558103Y-70929015D01*
X114558106Y-70929015D01*
X114558107Y-70929016D01*
X114665596Y-70950397D01*
X114665598Y-70950397D01*
X114665599Y-70950397D01*
X114683959Y-70946744D01*
X114742068Y-70935186D01*
X114811657Y-70941413D01*
X114833765Y-70955901D01*
X114835201Y-70953753D01*
X114845354Y-70960537D01*
X114845355Y-70960538D01*
X114932286Y-71018624D01*
X114936484Y-71021429D01*
X114936488Y-71021430D01*
X115043977Y-71042811D01*
X115043979Y-71042811D01*
X115043980Y-71042811D01*
X115082492Y-71035150D01*
X115151474Y-71021429D01*
X115151474Y-71021428D01*
X115157711Y-71020188D01*
X115227303Y-71026415D01*
X115250790Y-71038700D01*
X115284398Y-71061157D01*
X115320696Y-71085411D01*
X115320700Y-71085412D01*
X115428189Y-71106793D01*
X115428191Y-71106793D01*
X115428193Y-71106793D01*
X115500767Y-71092357D01*
X115570358Y-71098584D01*
X115613664Y-71132225D01*
X115615426Y-71130464D01*
X115624064Y-71139102D01*
X115715193Y-71199993D01*
X115715194Y-71199993D01*
X115726479Y-71204668D01*
X115725122Y-71207942D01*
X115768601Y-71230683D01*
X115803179Y-71291396D01*
X115804121Y-71295727D01*
X115812656Y-71338632D01*
X115806429Y-71408224D01*
X115763567Y-71463402D01*
X115697678Y-71486647D01*
X115666851Y-71484443D01*
X115640002Y-71479103D01*
X115639998Y-71479103D01*
X115532509Y-71500483D01*
X115532505Y-71500485D01*
X115441375Y-71561375D01*
X115393102Y-71633622D01*
X115339490Y-71678427D01*
X115270165Y-71687134D01*
X115207137Y-71656979D01*
X115186898Y-71633622D01*
X115138624Y-71561375D01*
X115075626Y-71519282D01*
X115047495Y-71500485D01*
X115047493Y-71500484D01*
X115047490Y-71500483D01*
X114940002Y-71479103D01*
X114939998Y-71479103D01*
X114832509Y-71500483D01*
X114832505Y-71500485D01*
X114741375Y-71561375D01*
X114680485Y-71652505D01*
X114680483Y-71652509D01*
X114659103Y-71759997D01*
X114659103Y-71760002D01*
X114680483Y-71867491D01*
X114680484Y-71867493D01*
X114680485Y-71867495D01*
X114680572Y-71867625D01*
X114680674Y-71867951D01*
X114685158Y-71878776D01*
X114684189Y-71879177D01*
X114701449Y-71934300D01*
X114682965Y-72001680D01*
X114680572Y-72005404D01*
X114649241Y-72052294D01*
X114649240Y-72052297D01*
X114627860Y-72159785D01*
X114627860Y-72159790D01*
X114649240Y-72267278D01*
X114649241Y-72267282D01*
X114671394Y-72300435D01*
X114692272Y-72367112D01*
X114673788Y-72434493D01*
X114671395Y-72438216D01*
X114654456Y-72463566D01*
X114654455Y-72463569D01*
X114633075Y-72571057D01*
X114633075Y-72571062D01*
X114654455Y-72678550D01*
X114654456Y-72678554D01*
X114666365Y-72696376D01*
X114692062Y-72734835D01*
X114692479Y-72735458D01*
X114713357Y-72802135D01*
X114694873Y-72869516D01*
X114692479Y-72873240D01*
X114668088Y-72909743D01*
X114668086Y-72909747D01*
X114646706Y-73017235D01*
X114646706Y-73017240D01*
X114668086Y-73124728D01*
X114668087Y-73124732D01*
X114668088Y-73124733D01*
X114691654Y-73160002D01*
X114692544Y-73161333D01*
X114713422Y-73228010D01*
X114694938Y-73295390D01*
X114692545Y-73299114D01*
X114665109Y-73340174D01*
X114665108Y-73340177D01*
X114643728Y-73447665D01*
X114643728Y-73447670D01*
X114665108Y-73555158D01*
X114665109Y-73555161D01*
X114665110Y-73555163D01*
X114674680Y-73569485D01*
X114726000Y-73646292D01*
X114745332Y-73659209D01*
X114817130Y-73707183D01*
X114817133Y-73707183D01*
X114817134Y-73707184D01*
X114924623Y-73728565D01*
X114924625Y-73728565D01*
X114924627Y-73728565D01*
X115032115Y-73707184D01*
X115032115Y-73707183D01*
X115032120Y-73707183D01*
X115123249Y-73646292D01*
X115184140Y-73555163D01*
X115187279Y-73539378D01*
X115219662Y-73477468D01*
X115280376Y-73442892D01*
X115284707Y-73441949D01*
X115289997Y-73440896D01*
X115290000Y-73440897D01*
X115397495Y-73419515D01*
X115397496Y-73419514D01*
X115397497Y-73419514D01*
X115408777Y-73414842D01*
X115409375Y-73416287D01*
X115462783Y-73399563D01*
X115520943Y-73415516D01*
X115521223Y-73414842D01*
X115526588Y-73417064D01*
X115530163Y-73418045D01*
X115532352Y-73419452D01*
X115532506Y-73419516D01*
X115639998Y-73440897D01*
X115640000Y-73440897D01*
X115640002Y-73440897D01*
X115747493Y-73419516D01*
X115758777Y-73414842D01*
X115759375Y-73416287D01*
X115812783Y-73399563D01*
X115870943Y-73415516D01*
X115871223Y-73414842D01*
X115876588Y-73417064D01*
X115880163Y-73418045D01*
X115882352Y-73419452D01*
X115882506Y-73419516D01*
X115989998Y-73440897D01*
X115990000Y-73440897D01*
X115990002Y-73440897D01*
X116097493Y-73419516D01*
X116108777Y-73414842D01*
X116109375Y-73416287D01*
X116162783Y-73399563D01*
X116220943Y-73415516D01*
X116221223Y-73414842D01*
X116226588Y-73417064D01*
X116230163Y-73418045D01*
X116232352Y-73419452D01*
X116232506Y-73419516D01*
X116339998Y-73440897D01*
X116340000Y-73440897D01*
X116340002Y-73440897D01*
X116447490Y-73419516D01*
X116447490Y-73419515D01*
X116447495Y-73419515D01*
X116538624Y-73358624D01*
X116599515Y-73267495D01*
X116603526Y-73247332D01*
X116620897Y-73160002D01*
X116620897Y-73159997D01*
X116599516Y-73052506D01*
X116594842Y-73041223D01*
X116596287Y-73040624D01*
X116579563Y-72987217D01*
X116595516Y-72929056D01*
X116594842Y-72928777D01*
X116597064Y-72923411D01*
X116598045Y-72919837D01*
X116599452Y-72917647D01*
X116599516Y-72917493D01*
X116620897Y-72810002D01*
X116620897Y-72809997D01*
X116599516Y-72702506D01*
X116594842Y-72691223D01*
X116597874Y-72689966D01*
X116582935Y-72642277D01*
X116599055Y-72583484D01*
X116598575Y-72583285D01*
X116600158Y-72579462D01*
X116601411Y-72574894D01*
X116603211Y-72572092D01*
X116603249Y-72572001D01*
X116624630Y-72464510D01*
X116624630Y-72464505D01*
X116603249Y-72357017D01*
X116603248Y-72357016D01*
X116603248Y-72357013D01*
X116565443Y-72300435D01*
X116542357Y-72265883D01*
X116529869Y-72257539D01*
X116485065Y-72203925D01*
X116476359Y-72134600D01*
X116477145Y-72130245D01*
X116478008Y-72125907D01*
X116479595Y-72117929D01*
X116474713Y-72093388D01*
X116480939Y-72023801D01*
X116523800Y-71968622D01*
X116527398Y-71966124D01*
X116538624Y-71958624D01*
X116599515Y-71867495D01*
X116607073Y-71829500D01*
X116620897Y-71760002D01*
X116620897Y-71759999D01*
X116597677Y-71643266D01*
X116603904Y-71573674D01*
X116646767Y-71518497D01*
X116712657Y-71495252D01*
X116715649Y-71495128D01*
X117383000Y-71475500D01*
X118289870Y-71475500D01*
X118335919Y-71484367D01*
X118422054Y-71518821D01*
X118476986Y-71561993D01*
X118499858Y-71628013D01*
X118500000Y-71633951D01*
X118500000Y-71720727D01*
X118486909Y-71776182D01*
X118436037Y-71877924D01*
X118388449Y-71929083D01*
X118320757Y-71946392D01*
X118300938Y-71944087D01*
X118221604Y-71928307D01*
X118195280Y-71923071D01*
X118195279Y-71923071D01*
X118195278Y-71923071D01*
X118087789Y-71944451D01*
X118087785Y-71944453D01*
X117996655Y-72005343D01*
X117935765Y-72096473D01*
X117935763Y-72096477D01*
X117914383Y-72203965D01*
X117914383Y-72203970D01*
X117935763Y-72311458D01*
X117935764Y-72311461D01*
X117935765Y-72311463D01*
X117972949Y-72367112D01*
X117994324Y-72399103D01*
X117996656Y-72402592D01*
X118046492Y-72435892D01*
X118091296Y-72489502D01*
X118100004Y-72558827D01*
X118080704Y-72607883D01*
X118014138Y-72707506D01*
X118014137Y-72707509D01*
X117992757Y-72814997D01*
X117992757Y-72815002D01*
X118014137Y-72922490D01*
X118014138Y-72922493D01*
X118014139Y-72922495D01*
X118029759Y-72945872D01*
X118075029Y-73013624D01*
X118111530Y-73038013D01*
X118166159Y-73074515D01*
X118166162Y-73074515D01*
X118166163Y-73074516D01*
X118273652Y-73095897D01*
X118273654Y-73095897D01*
X118273656Y-73095897D01*
X118393128Y-73072133D01*
X118393495Y-73073981D01*
X118448026Y-73068115D01*
X118510507Y-73099385D01*
X118529120Y-73121255D01*
X118540391Y-73138124D01*
X118573127Y-73159997D01*
X118631521Y-73199015D01*
X118631524Y-73199015D01*
X118631525Y-73199016D01*
X118739014Y-73220397D01*
X118739016Y-73220397D01*
X118739018Y-73220397D01*
X118846506Y-73199016D01*
X118846506Y-73199015D01*
X118846511Y-73199015D01*
X118899209Y-73163802D01*
X118965885Y-73142924D01*
X119033266Y-73161408D01*
X119053373Y-73176880D01*
X119310000Y-73420000D01*
X120312181Y-73610891D01*
X120374352Y-73642772D01*
X120388852Y-73659209D01*
X120728961Y-74121409D01*
X120752722Y-74185391D01*
X120786805Y-74628466D01*
X120772320Y-74696817D01*
X120723181Y-74746487D01*
X120654989Y-74761706D01*
X120633097Y-74758274D01*
X120530544Y-74732636D01*
X120427993Y-74706998D01*
X120377971Y-74681360D01*
X120315460Y-74628466D01*
X119750000Y-74150000D01*
X119749999Y-74150000D01*
X119749998Y-74150000D01*
X119065040Y-74173618D01*
X118997362Y-74156256D01*
X118959529Y-74115520D01*
X118957076Y-74117160D01*
X118948829Y-74104818D01*
X118907341Y-74042726D01*
X118889400Y-74015875D01*
X118834771Y-73979374D01*
X118798271Y-73954985D01*
X118798269Y-73954984D01*
X118798266Y-73954983D01*
X118690778Y-73933603D01*
X118690774Y-73933603D01*
X118583285Y-73954983D01*
X118583281Y-73954985D01*
X118492151Y-74015875D01*
X118431261Y-74107005D01*
X118426586Y-74118291D01*
X118423639Y-74117070D01*
X118400312Y-74161655D01*
X118339593Y-74196222D01*
X118315364Y-74199469D01*
X118300001Y-74199998D01*
X118300000Y-74199999D01*
X118326309Y-75804887D01*
X118307726Y-75872240D01*
X118255679Y-75918854D01*
X118186693Y-75929930D01*
X118133435Y-75910021D01*
X118088561Y-75880037D01*
X118075357Y-75871214D01*
X118075355Y-75871213D01*
X118075352Y-75871212D01*
X117967864Y-75849832D01*
X117967860Y-75849832D01*
X117860371Y-75871212D01*
X117860367Y-75871214D01*
X117769237Y-75932104D01*
X117708347Y-76023234D01*
X117708345Y-76023238D01*
X117686965Y-76130726D01*
X117686965Y-76130731D01*
X117708345Y-76238219D01*
X117708346Y-76238222D01*
X117708347Y-76238224D01*
X117713086Y-76245316D01*
X117769237Y-76329353D01*
X117805738Y-76353742D01*
X117860367Y-76390244D01*
X117860370Y-76390244D01*
X117860371Y-76390245D01*
X117967860Y-76411626D01*
X117967862Y-76411626D01*
X117967864Y-76411626D01*
X118075352Y-76390245D01*
X118075353Y-76390245D01*
X118075353Y-76390244D01*
X118075357Y-76390244D01*
X118143940Y-76344417D01*
X118210614Y-76323541D01*
X118277994Y-76342025D01*
X118324685Y-76394004D01*
X118336811Y-76445489D01*
X118349036Y-77191257D01*
X118330453Y-77258610D01*
X118305150Y-77287949D01*
X116534719Y-78786006D01*
X116470827Y-78814283D01*
X116401790Y-78803528D01*
X116374305Y-78785819D01*
X116231742Y-78664618D01*
X116226681Y-78659799D01*
X115945137Y-78359711D01*
X115942927Y-78357226D01*
X115629151Y-77984616D01*
X115601025Y-77920657D01*
X115600000Y-77904743D01*
X115600000Y-76888204D01*
X116690629Y-76888204D01*
X116707996Y-76997860D01*
X116758402Y-77096787D01*
X116758407Y-77096794D01*
X116836905Y-77175292D01*
X116836908Y-77175294D01*
X116836911Y-77175297D01*
X116935837Y-77225702D01*
X116935839Y-77225703D01*
X117045496Y-77243071D01*
X117045498Y-77243071D01*
X117045500Y-77243071D01*
X117155156Y-77225703D01*
X117155157Y-77225702D01*
X117155159Y-77225702D01*
X117254085Y-77175297D01*
X117332593Y-77096789D01*
X117382998Y-76997863D01*
X117382998Y-76997861D01*
X117382999Y-76997860D01*
X117400367Y-76888204D01*
X117400367Y-76888199D01*
X117382999Y-76778543D01*
X117351751Y-76717215D01*
X117332593Y-76679615D01*
X117332590Y-76679612D01*
X117332588Y-76679609D01*
X117254090Y-76601111D01*
X117254086Y-76601108D01*
X117254085Y-76601107D01*
X117250241Y-76599148D01*
X117155156Y-76550700D01*
X117045500Y-76533333D01*
X117045496Y-76533333D01*
X116935839Y-76550700D01*
X116836912Y-76601106D01*
X116836905Y-76601111D01*
X116758407Y-76679609D01*
X116758402Y-76679616D01*
X116707996Y-76778543D01*
X116690629Y-76888199D01*
X116690629Y-76888204D01*
X115600000Y-76888204D01*
X115600000Y-75650000D01*
X115516316Y-75558877D01*
X115511949Y-75550002D01*
X116169103Y-75550002D01*
X116190483Y-75657490D01*
X116190484Y-75657493D01*
X116190485Y-75657495D01*
X116208195Y-75684000D01*
X116251375Y-75748624D01*
X116287876Y-75773013D01*
X116342505Y-75809515D01*
X116342508Y-75809515D01*
X116342509Y-75809516D01*
X116449998Y-75830897D01*
X116450000Y-75830897D01*
X116450002Y-75830897D01*
X116557490Y-75809516D01*
X116557490Y-75809515D01*
X116557495Y-75809515D01*
X116648624Y-75748624D01*
X116709515Y-75657495D01*
X116722040Y-75594526D01*
X116730897Y-75550002D01*
X116730897Y-75549997D01*
X116709516Y-75442507D01*
X116709515Y-75442506D01*
X116709515Y-75442505D01*
X116698623Y-75426205D01*
X116677746Y-75359528D01*
X116696231Y-75292148D01*
X116698624Y-75288423D01*
X116700381Y-75285794D01*
X116711272Y-75269495D01*
X116718408Y-75233624D01*
X116732654Y-75162002D01*
X116732654Y-75161997D01*
X116711273Y-75054509D01*
X116711272Y-75054508D01*
X116711272Y-75054505D01*
X116662487Y-74981493D01*
X116650381Y-74963375D01*
X116586213Y-74920500D01*
X116559252Y-74902485D01*
X116559250Y-74902484D01*
X116559247Y-74902483D01*
X116451759Y-74881103D01*
X116451755Y-74881103D01*
X116344266Y-74902483D01*
X116344262Y-74902485D01*
X116253132Y-74963375D01*
X116192242Y-75054505D01*
X116192240Y-75054509D01*
X116170860Y-75161997D01*
X116170860Y-75162002D01*
X116192240Y-75269492D01*
X116192241Y-75269494D01*
X116192242Y-75269495D01*
X116201212Y-75282920D01*
X116203133Y-75285794D01*
X116224010Y-75352472D01*
X116205525Y-75419852D01*
X116203134Y-75423572D01*
X116190485Y-75442503D01*
X116190484Y-75442505D01*
X116169103Y-75549997D01*
X116169103Y-75550002D01*
X115511949Y-75550002D01*
X115485469Y-75496186D01*
X115493412Y-75426769D01*
X115504545Y-75406110D01*
X115505015Y-75405408D01*
X115514582Y-75357314D01*
X115526397Y-75297915D01*
X115526397Y-75297910D01*
X115505016Y-75190422D01*
X115505015Y-75190421D01*
X115505015Y-75190418D01*
X115468513Y-75135789D01*
X115444124Y-75099288D01*
X115389495Y-75062787D01*
X115352995Y-75038398D01*
X115352993Y-75038397D01*
X115352990Y-75038396D01*
X115245502Y-75017016D01*
X115245498Y-75017016D01*
X115126027Y-75040780D01*
X115125341Y-75037333D01*
X115076442Y-75042589D01*
X115013964Y-75011312D01*
X115007133Y-75004434D01*
X114969426Y-74963375D01*
X114209065Y-74135426D01*
X114178219Y-74072737D01*
X114184509Y-74016070D01*
X114183538Y-74015877D01*
X114185786Y-74004574D01*
X114185840Y-74004090D01*
X114185916Y-74003903D01*
X114185920Y-74003898D01*
X114195650Y-73954983D01*
X114207302Y-73896405D01*
X114207302Y-73896400D01*
X114185921Y-73788912D01*
X114185920Y-73788911D01*
X114185920Y-73788908D01*
X114140211Y-73720500D01*
X114125029Y-73697778D01*
X114059812Y-73654202D01*
X114033900Y-73636888D01*
X114033898Y-73636887D01*
X114033895Y-73636886D01*
X113926407Y-73615506D01*
X113926403Y-73615506D01*
X113830047Y-73634672D01*
X113760455Y-73628445D01*
X113714526Y-73596929D01*
X113706100Y-73587753D01*
X113680839Y-73536591D01*
X113679300Y-73537152D01*
X113673765Y-73521947D01*
X113666815Y-73505168D01*
X113664554Y-73500319D01*
X113664553Y-73500318D01*
X113664553Y-73500316D01*
X113641333Y-73467154D01*
X113638435Y-73462604D01*
X113634845Y-73456387D01*
X113618194Y-73427545D01*
X113618191Y-73427542D01*
X113618190Y-73427541D01*
X113601189Y-73413276D01*
X113587182Y-73401522D01*
X113583210Y-73397883D01*
X112952573Y-72767246D01*
X111928831Y-71652505D01*
X111100001Y-70750000D01*
X111099999Y-70749999D01*
X109693873Y-70173878D01*
X109639302Y-70130247D01*
X109639094Y-70129948D01*
X109630512Y-70117612D01*
X109562847Y-70020343D01*
X109512707Y-69948266D01*
X109490582Y-69881992D01*
X109490499Y-69877454D01*
X109490499Y-69748037D01*
X109490498Y-69748035D01*
X109488266Y-69740435D01*
X109476394Y-69700000D01*
X109449953Y-69609948D01*
X109439748Y-69594069D01*
X109372142Y-69488871D01*
X109263372Y-69394622D01*
X109198731Y-69365101D01*
X109132455Y-69334833D01*
X109052610Y-69323354D01*
X109025798Y-69319499D01*
X108954200Y-69319499D01*
X108940793Y-69321426D01*
X108847542Y-69334833D01*
X108716627Y-69394621D01*
X108716625Y-69394622D01*
X108607855Y-69488872D01*
X108530044Y-69609948D01*
X108489499Y-69748035D01*
X108489499Y-69891962D01*
X108530594Y-70031921D01*
X108531063Y-70100152D01*
X108434248Y-70447456D01*
X108397285Y-70506747D01*
X108334134Y-70536643D01*
X108264845Y-70527650D01*
X108258507Y-70524644D01*
X108256076Y-70523405D01*
X108256075Y-70523404D01*
X108157149Y-70472999D01*
X108157147Y-70472998D01*
X108157144Y-70472997D01*
X108047490Y-70455630D01*
X108047486Y-70455630D01*
X107937829Y-70472997D01*
X107840919Y-70522375D01*
X107776363Y-70534498D01*
X107778916Y-70550249D01*
X107762412Y-70591990D01*
X107764823Y-70593219D01*
X107760394Y-70601910D01*
X107760393Y-70601912D01*
X107750041Y-70622229D01*
X107737044Y-70647736D01*
X107689069Y-70698531D01*
X107635777Y-70715096D01*
X107023141Y-70760758D01*
X106954823Y-70746111D01*
X106905270Y-70696854D01*
X106891006Y-70632213D01*
X106890897Y-70632213D01*
X106890897Y-70631721D01*
X106890214Y-70628626D01*
X106890897Y-70623499D01*
X106890897Y-70619997D01*
X106869516Y-70512509D01*
X106869515Y-70512508D01*
X106869515Y-70512505D01*
X106829826Y-70453107D01*
X106808626Y-70421378D01*
X106799990Y-70412743D01*
X106801154Y-70411578D01*
X106765444Y-70368847D01*
X106755172Y-70322026D01*
X106752349Y-70190502D01*
X107171183Y-70190502D01*
X107192563Y-70297990D01*
X107192564Y-70297993D01*
X107192565Y-70297995D01*
X107214274Y-70330485D01*
X107253455Y-70389124D01*
X107287060Y-70411578D01*
X107344585Y-70450015D01*
X107344588Y-70450015D01*
X107344589Y-70450016D01*
X107452078Y-70471397D01*
X107452080Y-70471397D01*
X107452082Y-70471397D01*
X107559570Y-70450016D01*
X107559570Y-70450015D01*
X107559575Y-70450015D01*
X107586992Y-70431695D01*
X107653667Y-70410817D01*
X107665633Y-70414099D01*
X107664261Y-70382081D01*
X107681522Y-70343001D01*
X107711595Y-70297995D01*
X107727653Y-70217267D01*
X107732977Y-70190502D01*
X107732977Y-70190497D01*
X107711596Y-70083009D01*
X107711595Y-70083008D01*
X107711595Y-70083005D01*
X107671338Y-70022756D01*
X107650704Y-69991875D01*
X107592708Y-69953124D01*
X107559575Y-69930985D01*
X107559573Y-69930984D01*
X107559570Y-69930983D01*
X107509574Y-69921038D01*
X107447663Y-69888652D01*
X107432960Y-69862832D01*
X107401643Y-69906262D01*
X107349765Y-69929954D01*
X107344588Y-69930983D01*
X107344585Y-69930985D01*
X107253455Y-69991875D01*
X107192565Y-70083005D01*
X107192563Y-70083009D01*
X107171183Y-70190497D01*
X107171183Y-70190502D01*
X106752349Y-70190502D01*
X106750967Y-70126103D01*
X106769208Y-70058661D01*
X106806051Y-70020343D01*
X106806443Y-70020081D01*
X106808624Y-70018624D01*
X106869515Y-69927495D01*
X106873074Y-69909603D01*
X106890897Y-69820002D01*
X106890897Y-69819997D01*
X106869516Y-69712509D01*
X106869515Y-69712505D01*
X106808624Y-69621376D01*
X106808621Y-69621373D01*
X106790090Y-69608991D01*
X106745286Y-69555377D01*
X106735121Y-69511745D01*
X106730657Y-69417261D01*
X107126362Y-69417261D01*
X107147742Y-69524749D01*
X107147743Y-69524752D01*
X107147744Y-69524754D01*
X107171619Y-69560485D01*
X107208634Y-69615883D01*
X107239510Y-69636513D01*
X107299764Y-69676774D01*
X107299767Y-69676774D01*
X107299768Y-69676775D01*
X107349763Y-69686720D01*
X107411674Y-69719104D01*
X107426378Y-69744926D01*
X107457697Y-69701495D01*
X107509577Y-69677803D01*
X107514754Y-69676774D01*
X107605883Y-69615883D01*
X107666774Y-69524754D01*
X107669192Y-69512596D01*
X107688156Y-69417261D01*
X107688156Y-69417256D01*
X107666775Y-69309768D01*
X107666774Y-69309767D01*
X107666774Y-69309764D01*
X107620153Y-69239991D01*
X107605883Y-69218634D01*
X107532243Y-69169430D01*
X107514754Y-69157744D01*
X107514752Y-69157743D01*
X107514749Y-69157742D01*
X107407261Y-69136362D01*
X107407257Y-69136362D01*
X107299768Y-69157742D01*
X107299764Y-69157744D01*
X107208634Y-69218634D01*
X107147744Y-69309764D01*
X107147742Y-69309768D01*
X107126362Y-69417256D01*
X107126362Y-69417261D01*
X106730657Y-69417261D01*
X106722347Y-69241358D01*
X106738846Y-69173467D01*
X106777315Y-69132409D01*
X106828624Y-69098126D01*
X106889515Y-69006997D01*
X106892102Y-68993992D01*
X106910897Y-68899504D01*
X106910897Y-68899499D01*
X106889516Y-68792011D01*
X106889515Y-68792010D01*
X106889515Y-68792007D01*
X106835319Y-68710897D01*
X106828624Y-68700877D01*
X106763531Y-68657384D01*
X106737495Y-68639987D01*
X106737493Y-68639986D01*
X106737491Y-68639985D01*
X106650587Y-68622699D01*
X106600640Y-68600477D01*
X106600000Y-68599999D01*
X106408224Y-68601399D01*
X106341042Y-68582204D01*
X106294903Y-68529735D01*
X106284456Y-68460651D01*
X106313016Y-68396885D01*
X106338429Y-68374299D01*
X106340734Y-68372758D01*
X106340738Y-68372758D01*
X106431867Y-68311867D01*
X106492758Y-68220738D01*
X106511883Y-68124588D01*
X106544267Y-68062680D01*
X106604983Y-68028106D01*
X106629272Y-68024854D01*
X108129713Y-67973702D01*
X108152025Y-67974960D01*
G37*
G04 #@! TD.AperFunction*
G04 #@! TA.AperFunction,Conductor*
G36*
X105900746Y-68054030D02*
G01*
X105947178Y-68106239D01*
X105956675Y-68135011D01*
X105973726Y-68220733D01*
X105973727Y-68220736D01*
X105973728Y-68220738D01*
X105981137Y-68231826D01*
X106034619Y-68311868D01*
X106131818Y-68376814D01*
X106176624Y-68430426D01*
X106185331Y-68499751D01*
X106155177Y-68562778D01*
X106095734Y-68599498D01*
X106063833Y-68603913D01*
X105962769Y-68604651D01*
X105929613Y-68598181D01*
X105929475Y-68598875D01*
X105810002Y-68575111D01*
X105809998Y-68575111D01*
X105702502Y-68596493D01*
X105700129Y-68597476D01*
X105653593Y-68606907D01*
X105229993Y-68609999D01*
X103930000Y-68770000D01*
X103029243Y-68917062D01*
X102959908Y-68908436D01*
X102906243Y-68863695D01*
X102905772Y-68862987D01*
X102654456Y-68482206D01*
X102633956Y-68415411D01*
X102641508Y-68371266D01*
X102720614Y-68155244D01*
X102762150Y-68099065D01*
X102827467Y-68074258D01*
X102835438Y-68073897D01*
X104030556Y-68058476D01*
X104097842Y-68077294D01*
X104135255Y-68113574D01*
X104159295Y-68149552D01*
X104167814Y-68155244D01*
X104250426Y-68210444D01*
X104250429Y-68210444D01*
X104250430Y-68210445D01*
X104357919Y-68231826D01*
X104357921Y-68231826D01*
X104357923Y-68231826D01*
X104465411Y-68210445D01*
X104465411Y-68210444D01*
X104465416Y-68210444D01*
X104556545Y-68149553D01*
X104556846Y-68149103D01*
X104586251Y-68105096D01*
X104639863Y-68060290D01*
X104687749Y-68049996D01*
X105833462Y-68035213D01*
X105900746Y-68054030D01*
G37*
G04 #@! TD.AperFunction*
G04 #@! TA.AperFunction,Conductor*
G36*
X115532093Y-69699374D02*
G01*
X116204135Y-69920229D01*
X116305380Y-69956727D01*
X116361772Y-69997980D01*
X116386908Y-70063171D01*
X116372809Y-70131604D01*
X116323951Y-70181550D01*
X116312614Y-70187051D01*
X116237512Y-70237234D01*
X116187672Y-70311822D01*
X116170171Y-70399811D01*
X116187672Y-70487799D01*
X116211247Y-70523080D01*
X116237512Y-70562388D01*
X116274721Y-70587250D01*
X116312100Y-70612227D01*
X116312102Y-70612227D01*
X116312103Y-70612228D01*
X116400089Y-70629729D01*
X116402898Y-70629170D01*
X116409145Y-70629729D01*
X116412302Y-70629729D01*
X116412302Y-70630011D01*
X116472487Y-70635394D01*
X116527666Y-70678253D01*
X116530192Y-70681891D01*
X116577423Y-70752577D01*
X116596821Y-70765538D01*
X116652011Y-70802416D01*
X116652013Y-70802416D01*
X116652014Y-70802417D01*
X116740000Y-70819918D01*
X116827986Y-70802417D01*
X116883180Y-70765537D01*
X116949856Y-70744660D01*
X117017236Y-70763144D01*
X117063926Y-70815122D01*
X117066631Y-70821187D01*
X117067582Y-70823484D01*
X117080355Y-70842599D01*
X117117423Y-70898075D01*
X117137267Y-70911334D01*
X117192011Y-70947914D01*
X117192013Y-70947914D01*
X117192014Y-70947915D01*
X117280000Y-70965416D01*
X117367986Y-70947915D01*
X117367987Y-70947914D01*
X117367988Y-70947914D01*
X117380503Y-70939551D01*
X117442577Y-70898075D01*
X117492417Y-70823484D01*
X117509918Y-70735498D01*
X117492417Y-70647512D01*
X117477293Y-70624877D01*
X117456415Y-70558203D01*
X117474898Y-70490823D01*
X117526876Y-70444131D01*
X117595846Y-70432953D01*
X117625752Y-70440580D01*
X118313900Y-70711034D01*
X118551062Y-70804243D01*
X119677725Y-71284515D01*
X119685169Y-71287688D01*
X119739120Y-71332084D01*
X119754181Y-71362543D01*
X119783333Y-71450000D01*
X119796464Y-71489391D01*
X119801581Y-71511068D01*
X119846422Y-71824958D01*
X119843481Y-71874444D01*
X119758581Y-72192819D01*
X119726449Y-72248550D01*
X119503704Y-72471295D01*
X119442381Y-72504780D01*
X119434878Y-72506172D01*
X119179629Y-72545441D01*
X119121562Y-72540520D01*
X118884740Y-72461580D01*
X118827366Y-72421706D01*
X118827124Y-72421405D01*
X118668847Y-72223558D01*
X118644083Y-72170415D01*
X118616845Y-72034226D01*
X118623000Y-71964628D01*
X118627523Y-71954462D01*
X118670713Y-71868086D01*
X118686912Y-71823396D01*
X118700003Y-71767941D01*
X118705500Y-71720727D01*
X118705500Y-71631494D01*
X118705299Y-71623100D01*
X118694035Y-71560742D01*
X118671163Y-71494722D01*
X118661497Y-71471517D01*
X118603969Y-71400421D01*
X118549037Y-71357249D01*
X118509608Y-71334500D01*
X118498381Y-71328022D01*
X118498377Y-71328020D01*
X118498375Y-71328019D01*
X118412240Y-71293565D01*
X118412237Y-71293564D01*
X118374782Y-71282575D01*
X118328734Y-71273708D01*
X118328722Y-71273706D01*
X118289877Y-71270000D01*
X118289870Y-71270000D01*
X117379979Y-71270000D01*
X116708373Y-71289753D01*
X116704151Y-71289927D01*
X116672562Y-71296012D01*
X116644289Y-71301458D01*
X116644287Y-71301458D01*
X116644280Y-71301460D01*
X116578399Y-71324703D01*
X116578398Y-71324703D01*
X116570566Y-71328018D01*
X116555251Y-71334500D01*
X116555249Y-71334500D01*
X116547087Y-71337956D01*
X116546221Y-71335910D01*
X116490525Y-71350575D01*
X116424066Y-71329011D01*
X116410405Y-71318196D01*
X116329276Y-71244121D01*
X116293041Y-71184381D01*
X116291273Y-71176761D01*
X116286030Y-71150399D01*
X116236190Y-71075808D01*
X116161599Y-71025968D01*
X116161598Y-71025967D01*
X116147083Y-71023080D01*
X116085172Y-70990695D01*
X116050598Y-70929980D01*
X116049667Y-70925705D01*
X116035105Y-70852492D01*
X115985265Y-70777901D01*
X115947365Y-70752577D01*
X115910676Y-70728061D01*
X115875479Y-70721060D01*
X115822688Y-70710560D01*
X115822686Y-70710560D01*
X115822685Y-70710560D01*
X115820302Y-70711034D01*
X115815009Y-70710560D01*
X115810477Y-70710560D01*
X115810477Y-70710154D01*
X115750711Y-70704802D01*
X115712510Y-70680988D01*
X115635153Y-70610357D01*
X115598918Y-70550617D01*
X115597748Y-70498925D01*
X115596544Y-70498752D01*
X115597173Y-70494374D01*
X115597175Y-70494369D01*
X115605500Y-70436471D01*
X115605500Y-70299012D01*
X115607384Y-70277479D01*
X115610137Y-70261870D01*
X115620329Y-70204066D01*
X115601927Y-70099703D01*
X115580835Y-70063171D01*
X115548943Y-70007931D01*
X115548942Y-70007930D01*
X115548941Y-70007928D01*
X115521262Y-69984702D01*
X115467761Y-69939809D01*
X115467758Y-69939808D01*
X115450974Y-69933699D01*
X115394710Y-69892272D01*
X115369776Y-69827003D01*
X115384087Y-69758615D01*
X115433099Y-69708820D01*
X115501252Y-69693428D01*
X115532093Y-69699374D01*
G37*
G04 #@! TD.AperFunction*
G04 #@! TA.AperFunction,Conductor*
G36*
X110150310Y-68306193D02*
G01*
X110283551Y-68333701D01*
X110345226Y-68366534D01*
X110379360Y-68427498D01*
X110375115Y-68497239D01*
X110333839Y-68553613D01*
X110300890Y-68571662D01*
X110254705Y-68588471D01*
X110254704Y-68588471D01*
X110173527Y-68656588D01*
X110173522Y-68656593D01*
X110120541Y-68748359D01*
X110120539Y-68748365D01*
X110102137Y-68852727D01*
X110102137Y-68852728D01*
X110120539Y-68957090D01*
X110120541Y-68957096D01*
X110173522Y-69048862D01*
X110173523Y-69048863D01*
X110173525Y-69048866D01*
X110194941Y-69066836D01*
X110254704Y-69116984D01*
X110254706Y-69116985D01*
X110295722Y-69131912D01*
X110354287Y-69153228D01*
X110354290Y-69153228D01*
X110460256Y-69153228D01*
X110460259Y-69153228D01*
X110542293Y-69123370D01*
X110559839Y-69116985D01*
X110559841Y-69116984D01*
X110565347Y-69112364D01*
X110641021Y-69048866D01*
X110694007Y-68957091D01*
X110712409Y-68852728D01*
X110711608Y-68848188D01*
X110709029Y-68833561D01*
X110694007Y-68748365D01*
X110641021Y-68656590D01*
X110623589Y-68641963D01*
X110584887Y-68583792D01*
X110583778Y-68513932D01*
X110620615Y-68454561D01*
X110683703Y-68424532D01*
X110728364Y-68425534D01*
X111378484Y-68559755D01*
X112598940Y-68848188D01*
X113810688Y-69171257D01*
X115012744Y-69528700D01*
X115038522Y-69537171D01*
X115096064Y-69576799D01*
X115123048Y-69641248D01*
X115110905Y-69710054D01*
X115063490Y-69761373D01*
X114995857Y-69778910D01*
X114967980Y-69774818D01*
X114964846Y-69773986D01*
X114949844Y-69770540D01*
X114945848Y-69769764D01*
X114942983Y-69769208D01*
X114504040Y-69699376D01*
X114110822Y-69636818D01*
X114052633Y-69635907D01*
X114052632Y-69635907D01*
X114052631Y-69635907D01*
X114045463Y-69636818D01*
X113996675Y-69643018D01*
X113927689Y-69631941D01*
X113889907Y-69599250D01*
X113888599Y-69600559D01*
X113879963Y-69591923D01*
X113805374Y-69542083D01*
X113717386Y-69524582D01*
X113629400Y-69542083D01*
X113629399Y-69542083D01*
X113629396Y-69542084D01*
X113611202Y-69554241D01*
X113544525Y-69575118D01*
X113489122Y-69563150D01*
X113444762Y-69542084D01*
X113435886Y-69537869D01*
X113380031Y-69520557D01*
X113380026Y-69520556D01*
X113380023Y-69520555D01*
X113234299Y-69497372D01*
X111322376Y-69154207D01*
X111321570Y-69154070D01*
X111319157Y-69153660D01*
X111319161Y-69153660D01*
X111288977Y-69153038D01*
X111258800Y-69152416D01*
X111258799Y-69152416D01*
X111258793Y-69152416D01*
X111189499Y-69161250D01*
X111133106Y-69176833D01*
X110795621Y-69324484D01*
X110795619Y-69324485D01*
X110795617Y-69324486D01*
X110780870Y-69333076D01*
X110754840Y-69348239D01*
X110754829Y-69348247D01*
X110709564Y-69382129D01*
X110709554Y-69382137D01*
X110690593Y-69400073D01*
X110671987Y-69414582D01*
X110665101Y-69418967D01*
X110625348Y-69435431D01*
X110618958Y-69436849D01*
X110617855Y-69437144D01*
X110613271Y-69438372D01*
X110585870Y-69442506D01*
X110580810Y-69442697D01*
X110579008Y-69442765D01*
X110579004Y-69442765D01*
X110579000Y-69442766D01*
X110518493Y-69452690D01*
X110485814Y-69462353D01*
X110415944Y-69462484D01*
X110413579Y-69461769D01*
X110382245Y-69451950D01*
X110333403Y-69441925D01*
X110333391Y-69441924D01*
X110292086Y-69437728D01*
X110292080Y-69437728D01*
X110227107Y-69437728D01*
X110227103Y-69437728D01*
X110221556Y-69437969D01*
X110153725Y-69421214D01*
X110124744Y-69397853D01*
X110121031Y-69393801D01*
X110063760Y-69336531D01*
X110033663Y-69311676D01*
X109994824Y-69285380D01*
X109960575Y-69266668D01*
X109936711Y-69256440D01*
X109882847Y-69211938D01*
X109876381Y-69201255D01*
X109840565Y-69134741D01*
X109835123Y-69125765D01*
X109835124Y-69125765D01*
X109831858Y-69120950D01*
X109829473Y-69117145D01*
X109826712Y-69112364D01*
X109807423Y-69078957D01*
X109807422Y-69078955D01*
X109799702Y-69066836D01*
X109795241Y-69060465D01*
X109785935Y-69043745D01*
X109785527Y-69043949D01*
X109783956Y-69040791D01*
X109783950Y-69040773D01*
X109783567Y-69040002D01*
X109780525Y-69032762D01*
X109776607Y-69021477D01*
X109763414Y-68991459D01*
X109763415Y-68991460D01*
X109643348Y-68768482D01*
X109628896Y-68700123D01*
X109632895Y-68677066D01*
X109638479Y-68656593D01*
X109712519Y-68385116D01*
X109715945Y-68360147D01*
X109744557Y-68296408D01*
X109803090Y-68258254D01*
X109860393Y-68254899D01*
X110150310Y-68306193D01*
G37*
G04 #@! TD.AperFunction*
G04 #@! TA.AperFunction,Conductor*
G36*
X109221903Y-72117516D02*
G01*
X109909917Y-72117516D01*
X109909921Y-72117516D01*
X109916641Y-72117222D01*
X109948902Y-72120046D01*
X109955436Y-72121496D01*
X109968153Y-72123738D01*
X109987752Y-72128875D01*
X109995066Y-72131447D01*
X110022303Y-72144979D01*
X110273164Y-72310803D01*
X110359428Y-72367825D01*
X110372089Y-72375448D01*
X110376639Y-72377702D01*
X110376154Y-72378679D01*
X110426991Y-72418427D01*
X110450028Y-72484390D01*
X110433747Y-72552336D01*
X110429288Y-72559528D01*
X110407584Y-72592010D01*
X110407583Y-72592013D01*
X110407583Y-72592014D01*
X110399224Y-72634039D01*
X110390082Y-72680000D01*
X110407583Y-72767988D01*
X110432148Y-72804750D01*
X110457423Y-72842577D01*
X110491676Y-72865464D01*
X110532011Y-72892416D01*
X110532013Y-72892416D01*
X110532014Y-72892417D01*
X110620000Y-72909918D01*
X110707986Y-72892417D01*
X110707987Y-72892416D01*
X110707988Y-72892416D01*
X110725166Y-72880938D01*
X110782577Y-72842577D01*
X110792113Y-72828305D01*
X110845723Y-72783502D01*
X110915048Y-72774794D01*
X110977855Y-72804750D01*
X111089999Y-72905000D01*
X111249115Y-72979765D01*
X111365720Y-73034555D01*
X111381362Y-73043339D01*
X112214463Y-73594033D01*
X112214467Y-73594035D01*
X112214473Y-73594039D01*
X112251022Y-73613228D01*
X112262400Y-73617810D01*
X112283357Y-73628672D01*
X112283567Y-73628808D01*
X112294556Y-73632808D01*
X112299214Y-73634737D01*
X112303072Y-73636336D01*
X112307987Y-73638628D01*
X112350357Y-73653011D01*
X112350360Y-73653011D01*
X112350361Y-73653012D01*
X112360899Y-73655348D01*
X112402763Y-73664629D01*
X112441894Y-73668914D01*
X112463325Y-73673199D01*
X112487332Y-73680247D01*
X112501212Y-73684322D01*
X112533314Y-73698982D01*
X112562590Y-73717796D01*
X112589263Y-73740908D01*
X112612052Y-73767208D01*
X112631134Y-73796900D01*
X112639366Y-73814927D01*
X112670117Y-73863116D01*
X112670125Y-73863126D01*
X112714534Y-73915050D01*
X112714540Y-73915057D01*
X112757380Y-73952909D01*
X112757384Y-73952912D01*
X112757390Y-73952917D01*
X112794378Y-73977367D01*
X112839449Y-74030755D01*
X112850000Y-74080809D01*
X112850000Y-74205106D01*
X112830315Y-74272145D01*
X112821266Y-74284480D01*
X112637179Y-74505384D01*
X112579142Y-74544282D01*
X112541922Y-74550000D01*
X112236561Y-74550000D01*
X112169522Y-74530315D01*
X112123767Y-74477511D01*
X112112908Y-74435267D01*
X112104166Y-74318624D01*
X112104166Y-74318622D01*
X112065921Y-74221173D01*
X112054552Y-74192205D01*
X111969877Y-74086028D01*
X111969876Y-74086027D01*
X111857675Y-74009529D01*
X111857671Y-74009527D01*
X111727903Y-73969500D01*
X111727902Y-73969500D01*
X111626238Y-73969500D01*
X111626232Y-73969500D01*
X111525713Y-73984651D01*
X111525713Y-73984652D01*
X111474060Y-74009527D01*
X111403356Y-74043576D01*
X111400316Y-74046397D01*
X111396232Y-74048432D01*
X111395677Y-74048811D01*
X111395625Y-74048734D01*
X111337783Y-74077564D01*
X111268327Y-74069977D01*
X111256755Y-74064441D01*
X111228001Y-74048811D01*
X111176281Y-74020696D01*
X111173751Y-74019241D01*
X110646500Y-73698985D01*
X110513097Y-73617955D01*
X110489230Y-73599091D01*
X110186824Y-73292783D01*
X110153732Y-73231247D01*
X110153478Y-73230007D01*
X110139423Y-73159346D01*
X110139422Y-73159345D01*
X110139422Y-73159343D01*
X110112212Y-73118622D01*
X110089583Y-73084755D01*
X110035514Y-73048627D01*
X110014992Y-73034914D01*
X109949337Y-73021855D01*
X109887426Y-72989470D01*
X109885285Y-72987353D01*
X109877794Y-72979765D01*
X109844704Y-72918228D01*
X109850136Y-72848570D01*
X109892367Y-72792907D01*
X109897146Y-72789548D01*
X109933746Y-72765093D01*
X109983586Y-72690502D01*
X110001087Y-72602516D01*
X109983586Y-72514530D01*
X109983585Y-72514529D01*
X109983585Y-72514527D01*
X109950160Y-72464505D01*
X109933746Y-72439939D01*
X109901551Y-72418427D01*
X109859157Y-72390099D01*
X109771169Y-72372598D01*
X109683180Y-72390099D01*
X109608592Y-72439939D01*
X109558752Y-72514527D01*
X109541251Y-72602516D01*
X109553382Y-72663505D01*
X109547153Y-72733097D01*
X109504290Y-72788273D01*
X109438400Y-72811517D01*
X109426196Y-72811570D01*
X109158869Y-72799555D01*
X109127889Y-72794172D01*
X109106874Y-72787690D01*
X109047902Y-72769500D01*
X108946238Y-72769500D01*
X108946232Y-72769500D01*
X108853441Y-72783487D01*
X108829368Y-72784746D01*
X108827529Y-72784663D01*
X108761445Y-72761976D01*
X108718118Y-72707162D01*
X108711502Y-72684979D01*
X108709418Y-72674500D01*
X108691917Y-72586514D01*
X108642077Y-72511923D01*
X108617213Y-72495309D01*
X108567488Y-72462083D01*
X108479500Y-72444582D01*
X108391511Y-72462083D01*
X108316923Y-72511923D01*
X108267082Y-72586513D01*
X108267082Y-72586514D01*
X108253763Y-72653476D01*
X108221378Y-72715387D01*
X108160663Y-72749961D01*
X108126579Y-72753160D01*
X107593662Y-72729209D01*
X107527574Y-72706534D01*
X107484236Y-72651729D01*
X107478528Y-72633745D01*
X107422612Y-72396101D01*
X107426419Y-72326338D01*
X107467340Y-72269705D01*
X107483451Y-72259112D01*
X107818214Y-72074605D01*
X107883449Y-72059321D01*
X109221903Y-72117516D01*
G37*
G04 #@! TD.AperFunction*
G04 #@! TA.AperFunction,Conductor*
G36*
X110457076Y-70716161D02*
G01*
X110497558Y-70725245D01*
X110874083Y-70879516D01*
X110954054Y-70912282D01*
X110998371Y-70943150D01*
X112804172Y-72909466D01*
X113441078Y-73546373D01*
X113446008Y-73550889D01*
X113466819Y-73575690D01*
X113470419Y-73581342D01*
X113474906Y-73587750D01*
X113484251Y-73604523D01*
X113484646Y-73604327D01*
X113510915Y-73657147D01*
X113512345Y-73659509D01*
X113521837Y-73678732D01*
X113554731Y-73726741D01*
X113554733Y-73726743D01*
X113554735Y-73726746D01*
X113557313Y-73729553D01*
X113563163Y-73735924D01*
X113598250Y-73766369D01*
X113600856Y-73768383D01*
X113641862Y-73824955D01*
X113646646Y-73890680D01*
X113645508Y-73896402D01*
X113645508Y-73896405D01*
X113666888Y-74003893D01*
X113666889Y-74003896D01*
X113666890Y-74003898D01*
X113680848Y-74024787D01*
X113727780Y-74095027D01*
X113742434Y-74104818D01*
X113818910Y-74155918D01*
X113818913Y-74155918D01*
X113818914Y-74155919D01*
X113938383Y-74179683D01*
X113938139Y-74180909D01*
X113992885Y-74196985D01*
X114028182Y-74231276D01*
X114057708Y-74274428D01*
X114691655Y-74964726D01*
X114858494Y-75146395D01*
X114868156Y-75156123D01*
X114868159Y-75156125D01*
X114868165Y-75156130D01*
X114913303Y-75188798D01*
X114956071Y-75244049D01*
X114964603Y-75289250D01*
X114964603Y-75297915D01*
X114985983Y-75405403D01*
X114985984Y-75405406D01*
X114985985Y-75405408D01*
X114993795Y-75417096D01*
X115046875Y-75496537D01*
X115083376Y-75520926D01*
X115138005Y-75557428D01*
X115242651Y-75578243D01*
X115304561Y-75610627D01*
X115329723Y-75645122D01*
X115331924Y-75649597D01*
X115331926Y-75649600D01*
X115331929Y-75649606D01*
X115350994Y-75677469D01*
X115364957Y-75697875D01*
X115367572Y-75701165D01*
X115393876Y-75765895D01*
X115394500Y-75778321D01*
X115394500Y-77522511D01*
X115374815Y-77589550D01*
X115322011Y-77635305D01*
X115252853Y-77645249D01*
X115192307Y-77618749D01*
X115124930Y-77564006D01*
X114970903Y-77438858D01*
X114968700Y-77436980D01*
X114705677Y-77201811D01*
X114048386Y-76664050D01*
X113659977Y-76373731D01*
X113241667Y-76033854D01*
X113202049Y-75976302D01*
X113196175Y-75946451D01*
X113183278Y-75765895D01*
X113178870Y-75704189D01*
X113567710Y-75704189D01*
X113585077Y-75813845D01*
X113635483Y-75912772D01*
X113635488Y-75912779D01*
X113713986Y-75991277D01*
X113713989Y-75991279D01*
X113713992Y-75991282D01*
X113780796Y-76025320D01*
X113812920Y-76041688D01*
X113922577Y-76059056D01*
X113922579Y-76059056D01*
X113922581Y-76059056D01*
X114032237Y-76041688D01*
X114032238Y-76041687D01*
X114032240Y-76041687D01*
X114131166Y-75991282D01*
X114209674Y-75912774D01*
X114260079Y-75813848D01*
X114260079Y-75813846D01*
X114260080Y-75813845D01*
X114277448Y-75704189D01*
X114277448Y-75704184D01*
X114260080Y-75594528D01*
X114251782Y-75578242D01*
X114209674Y-75495600D01*
X114209671Y-75495597D01*
X114209669Y-75495594D01*
X114131171Y-75417096D01*
X114131167Y-75417093D01*
X114131166Y-75417092D01*
X114062765Y-75382240D01*
X114032237Y-75366685D01*
X113922581Y-75349318D01*
X113922577Y-75349318D01*
X113812920Y-75366685D01*
X113713993Y-75417091D01*
X113713986Y-75417096D01*
X113635488Y-75495594D01*
X113635483Y-75495601D01*
X113585077Y-75594528D01*
X113567710Y-75704184D01*
X113567710Y-75704189D01*
X113178870Y-75704189D01*
X113050000Y-73900000D01*
X113049999Y-73899999D01*
X113050000Y-73899999D01*
X112870709Y-73781485D01*
X112826294Y-73729555D01*
X112798382Y-73668437D01*
X112713549Y-73570533D01*
X112604569Y-73500496D01*
X112604565Y-73500494D01*
X112604564Y-73500494D01*
X112480274Y-73464000D01*
X112480272Y-73464000D01*
X112447241Y-73464000D01*
X112394835Y-73452382D01*
X112390685Y-73450447D01*
X112390684Y-73450446D01*
X112390682Y-73450445D01*
X112385856Y-73448195D01*
X112369060Y-73441237D01*
X112353853Y-73435702D01*
X112354678Y-73433435D01*
X112327792Y-73422607D01*
X110618610Y-72292810D01*
X110573539Y-72239421D01*
X110569139Y-72205747D01*
X110546358Y-72214245D01*
X110478085Y-72199393D01*
X110469134Y-72194004D01*
X110394352Y-72144572D01*
X110100000Y-71950000D01*
X110083961Y-71944796D01*
X110084256Y-71943884D01*
X110064244Y-71938989D01*
X110057220Y-71935713D01*
X110040412Y-71928751D01*
X110035400Y-71926927D01*
X109995547Y-71919899D01*
X109990267Y-71918728D01*
X109951165Y-71908251D01*
X109916249Y-71911306D01*
X109910838Y-71911780D01*
X109905435Y-71912016D01*
X109226368Y-71912016D01*
X107800000Y-71850000D01*
X107799999Y-71850000D01*
X107290471Y-72130828D01*
X107222257Y-72145948D01*
X107156697Y-72121788D01*
X107142936Y-72109911D01*
X107099092Y-72066067D01*
X107099088Y-72066064D01*
X107099087Y-72066063D01*
X107095243Y-72064104D01*
X107000158Y-72015656D01*
X106890502Y-71998289D01*
X106890498Y-71998289D01*
X106780841Y-72015656D01*
X106681914Y-72066062D01*
X106681907Y-72066067D01*
X106603409Y-72144565D01*
X106603404Y-72144572D01*
X106552998Y-72243499D01*
X106535631Y-72353155D01*
X106535631Y-72353161D01*
X106550229Y-72445334D01*
X106541274Y-72514627D01*
X106496277Y-72568079D01*
X106487611Y-72573328D01*
X106314270Y-72668867D01*
X106251588Y-72684238D01*
X106041832Y-72679455D01*
X105975259Y-72658247D01*
X105930720Y-72604414D01*
X105923042Y-72579679D01*
X105922512Y-72577012D01*
X105890528Y-72529145D01*
X105861621Y-72485882D01*
X105800936Y-72445334D01*
X105770492Y-72424992D01*
X105770490Y-72424991D01*
X105770487Y-72424990D01*
X105662999Y-72403610D01*
X105662995Y-72403610D01*
X105555506Y-72424990D01*
X105555502Y-72424992D01*
X105464372Y-72485882D01*
X105403481Y-72577012D01*
X105399911Y-72585631D01*
X105356068Y-72640032D01*
X105289773Y-72662094D01*
X105282525Y-72662141D01*
X104871173Y-72652762D01*
X104804600Y-72631554D01*
X104760061Y-72577721D01*
X104750000Y-72528794D01*
X104750000Y-72040478D01*
X104769685Y-71973439D01*
X104773860Y-71967348D01*
X105034632Y-71610502D01*
X105903580Y-71610502D01*
X105924960Y-71717990D01*
X105924961Y-71717993D01*
X105924962Y-71717995D01*
X105949351Y-71754495D01*
X105985852Y-71809124D01*
X106022353Y-71833513D01*
X106076982Y-71870015D01*
X106076985Y-71870015D01*
X106076986Y-71870016D01*
X106184475Y-71891397D01*
X106184477Y-71891397D01*
X106184479Y-71891397D01*
X106291967Y-71870016D01*
X106291967Y-71870015D01*
X106291972Y-71870015D01*
X106383101Y-71809124D01*
X106443992Y-71717995D01*
X106463700Y-71618917D01*
X106465374Y-71610502D01*
X106465374Y-71610497D01*
X106443993Y-71503009D01*
X106443992Y-71503008D01*
X106443992Y-71503005D01*
X106439313Y-71496002D01*
X110311875Y-71496002D01*
X110333255Y-71603490D01*
X110333256Y-71603493D01*
X110333257Y-71603495D01*
X110343562Y-71618917D01*
X110394147Y-71694624D01*
X110495432Y-71762300D01*
X110494224Y-71764106D01*
X110536153Y-71797896D01*
X110555912Y-71844423D01*
X110570545Y-71917990D01*
X110570546Y-71917993D01*
X110570547Y-71917995D01*
X110600437Y-71962728D01*
X110638223Y-72019279D01*
X110635237Y-72021274D01*
X110658678Y-72064203D01*
X110658279Y-72069770D01*
X110711179Y-72067750D01*
X110830060Y-72091397D01*
X110830062Y-72091397D01*
X110830064Y-72091397D01*
X110937552Y-72070016D01*
X110937552Y-72070015D01*
X110937557Y-72070015D01*
X111028686Y-72009124D01*
X111089577Y-71917995D01*
X111099121Y-71870014D01*
X111110959Y-71810502D01*
X111110959Y-71810497D01*
X111089578Y-71703009D01*
X111089577Y-71703008D01*
X111089577Y-71703005D01*
X111053075Y-71648376D01*
X111028686Y-71611875D01*
X110927403Y-71544200D01*
X110928610Y-71542393D01*
X110886679Y-71508601D01*
X110866921Y-71462079D01*
X110852287Y-71388505D01*
X110811521Y-71327495D01*
X110791396Y-71297375D01*
X110726239Y-71253839D01*
X110700267Y-71236485D01*
X110700265Y-71236484D01*
X110700262Y-71236483D01*
X110592774Y-71215103D01*
X110592770Y-71215103D01*
X110485281Y-71236483D01*
X110485277Y-71236485D01*
X110394147Y-71297375D01*
X110333257Y-71388505D01*
X110333255Y-71388509D01*
X110311875Y-71495997D01*
X110311875Y-71496002D01*
X106439313Y-71496002D01*
X106387610Y-71418624D01*
X106383101Y-71411875D01*
X106328472Y-71375374D01*
X106291972Y-71350985D01*
X106291970Y-71350984D01*
X106291967Y-71350983D01*
X106184479Y-71329603D01*
X106184475Y-71329603D01*
X106076986Y-71350983D01*
X106076982Y-71350985D01*
X105985852Y-71411875D01*
X105924962Y-71503005D01*
X105924960Y-71503009D01*
X105903580Y-71610497D01*
X105903580Y-71610502D01*
X105034632Y-71610502D01*
X105381030Y-71136485D01*
X105436473Y-71093976D01*
X105505333Y-71088034D01*
X105528615Y-71092665D01*
X105569999Y-71100897D01*
X105570000Y-71100897D01*
X105570002Y-71100897D01*
X105677490Y-71079516D01*
X105677490Y-71079515D01*
X105677495Y-71079515D01*
X105768624Y-71018624D01*
X105768626Y-71018620D01*
X105777257Y-71009990D01*
X105778313Y-71011046D01*
X105821443Y-70974999D01*
X105836861Y-70969468D01*
X106342219Y-70825080D01*
X106412084Y-70825590D01*
X106445172Y-70841207D01*
X106486499Y-70868820D01*
X106502505Y-70879515D01*
X106502508Y-70879515D01*
X106502509Y-70879516D01*
X106609998Y-70900897D01*
X106610000Y-70900897D01*
X106610002Y-70900897D01*
X106721373Y-70878744D01*
X106790964Y-70884971D01*
X106827440Y-70907236D01*
X106828823Y-70908452D01*
X106828826Y-70908453D01*
X106828828Y-70908455D01*
X106911744Y-70947045D01*
X106980062Y-70961692D01*
X107038415Y-70965690D01*
X107100096Y-70961092D01*
X107165604Y-70974264D01*
X107189049Y-70986210D01*
X107189050Y-70986210D01*
X107189052Y-70986211D01*
X107298708Y-71003579D01*
X107298710Y-71003579D01*
X107298712Y-71003579D01*
X107408368Y-70986211D01*
X107417650Y-70983195D01*
X107418128Y-70984668D01*
X107461692Y-70974210D01*
X107584368Y-70974210D01*
X107589771Y-70974445D01*
X107630097Y-70977974D01*
X107669230Y-70967487D01*
X107674452Y-70966329D01*
X107714335Y-70959298D01*
X107714340Y-70959294D01*
X107719389Y-70957457D01*
X107736114Y-70950529D01*
X107740971Y-70948264D01*
X107740974Y-70948264D01*
X107774152Y-70925031D01*
X107778663Y-70922157D01*
X107813745Y-70901904D01*
X107813748Y-70901900D01*
X107822053Y-70894932D01*
X107823043Y-70896112D01*
X107849432Y-70875283D01*
X108065357Y-70767321D01*
X108134118Y-70754947D01*
X108138303Y-70755471D01*
X108450000Y-70800000D01*
X108450004Y-70799999D01*
X108450006Y-70800000D01*
X108827014Y-70777822D01*
X110146567Y-70700201D01*
X110153439Y-70700181D01*
X110457076Y-70716161D01*
G37*
G04 #@! TD.AperFunction*
M02*
