G04 #@! TF.GenerationSoftware,KiCad,Pcbnew,7.0.9-7.0.9~ubuntu20.04.1*
G04 #@! TF.CreationDate,2023-12-28T04:07:49+00:00*
G04 #@! TF.ProjectId,yote,796f7465-2e6b-4696-9361-645f70636258,rev?*
G04 #@! TF.SameCoordinates,Original*
G04 #@! TF.FileFunction,Legend,Bot*
G04 #@! TF.FilePolarity,Positive*
%FSLAX46Y46*%
G04 Gerber Fmt 4.6, Leading zero omitted, Abs format (unit mm)*
G04 Created by KiCad (PCBNEW 7.0.9-7.0.9~ubuntu20.04.1) date 2023-12-28 04:07:49*
%MOMM*%
%LPD*%
G01*
G04 APERTURE LIST*
G04 Aperture macros list*
%AMRoundRect*
0 Rectangle with rounded corners*
0 $1 Rounding radius*
0 $2 $3 $4 $5 $6 $7 $8 $9 X,Y pos of 4 corners*
0 Add a 4 corners polygon primitive as box body*
4,1,4,$2,$3,$4,$5,$6,$7,$8,$9,$2,$3,0*
0 Add four circle primitives for the rounded corners*
1,1,$1+$1,$2,$3*
1,1,$1+$1,$4,$5*
1,1,$1+$1,$6,$7*
1,1,$1+$1,$8,$9*
0 Add four rect primitives between the rounded corners*
20,1,$1+$1,$2,$3,$4,$5,0*
20,1,$1+$1,$4,$5,$6,$7,0*
20,1,$1+$1,$6,$7,$8,$9,0*
20,1,$1+$1,$8,$9,$2,$3,0*%
%AMFreePoly0*
4,1,59,-0.493204,1.039632,-0.294356,0.979312,-0.111096,0.881358,0.049533,0.749533,0.181358,0.588904,0.279312,0.405644,0.339632,0.206796,0.360000,0.000000,0.339632,-0.206796,0.279312,-0.405644,0.181358,-0.588904,0.049533,-0.749533,-0.111096,-0.881358,-0.294356,-0.979312,-0.493204,-1.039632,-0.700000,-1.060000,-0.906796,-1.039632,-1.105644,-0.979312,-1.288904,-0.881358,-1.449533,-0.749533,
-1.581358,-0.588904,-1.679312,-0.405644,-1.739632,-0.206796,-1.760000,0.000000,-1.264832,0.000000,-1.245586,-0.146189,-1.189159,-0.282416,-1.099397,-0.399397,-0.982416,-0.489159,-0.846189,-0.545586,-0.700000,-0.564832,-0.553811,-0.545586,-0.417584,-0.489159,-0.300603,-0.399397,-0.210841,-0.282416,-0.154414,-0.146189,-0.135168,0.000000,-0.154414,0.146189,-0.210841,0.282416,-0.300603,0.399397,
-0.417584,0.489159,-0.553811,0.545586,-0.700000,0.564832,-0.846189,0.545586,-0.982416,0.489159,-1.099397,0.399397,-1.189159,0.282416,-1.245586,0.146189,-1.264832,0.000000,-1.760000,0.000000,-1.739632,0.206796,-1.679312,0.405644,-1.581358,0.588904,-1.449533,0.749533,-1.288904,0.881358,-1.105644,0.979312,-0.906796,1.039632,-0.700000,1.060000,-0.493204,1.039632,-0.493204,1.039632,
$1*%
G04 Aperture macros list end*
%ADD10C,0.150000*%
%ADD11C,0.127000*%
%ADD12C,0.100000*%
%ADD13C,0.120000*%
%ADD14C,1.000000*%
%ADD15C,0.990600*%
%ADD16R,0.250000X0.270000*%
%ADD17R,0.600000X0.500000*%
%ADD18R,0.270000X0.250000*%
%ADD19R,0.600000X0.800000*%
%ADD20R,1.400000X1.050000*%
%ADD21R,1.100000X0.350000*%
%ADD22C,0.800000*%
%ADD23R,0.750000X0.450000*%
%ADD24FreePoly0,0.000000*%
%ADD25FreePoly0,180.000000*%
%ADD26R,0.355600X0.254000*%
%ADD27R,0.635000X2.057400*%
%ADD28R,1.549400X1.143000*%
%ADD29R,1.092200X0.508000*%
%ADD30RoundRect,0.147500X0.147500X0.172500X-0.147500X0.172500X-0.147500X-0.172500X0.147500X-0.172500X0*%
%ADD31RoundRect,0.050000X0.200000X0.275000X-0.200000X0.275000X-0.200000X-0.275000X0.200000X-0.275000X0*%
%ADD32RoundRect,0.050000X0.200000X0.050000X-0.200000X0.050000X-0.200000X-0.050000X0.200000X-0.050000X0*%
%ADD33R,0.800000X0.600000*%
G04 APERTURE END LIST*
D10*
X101850001Y-71700000D02*
G75*
G03*
X101850001Y-71700000I-1J0D01*
G01*
X101900001Y-68300000D02*
G75*
G03*
X101900001Y-68300000I-1J0D01*
G01*
X121887030Y-73269819D02*
X122363220Y-73269819D01*
X122363220Y-73269819D02*
X122410839Y-73746009D01*
X122410839Y-73746009D02*
X122363220Y-73698390D01*
X122363220Y-73698390D02*
X122267982Y-73650771D01*
X122267982Y-73650771D02*
X122029887Y-73650771D01*
X122029887Y-73650771D02*
X121934649Y-73698390D01*
X121934649Y-73698390D02*
X121887030Y-73746009D01*
X121887030Y-73746009D02*
X121839411Y-73841247D01*
X121839411Y-73841247D02*
X121839411Y-74079342D01*
X121839411Y-74079342D02*
X121887030Y-74174580D01*
X121887030Y-74174580D02*
X121934649Y-74222200D01*
X121934649Y-74222200D02*
X122029887Y-74269819D01*
X122029887Y-74269819D02*
X122267982Y-74269819D01*
X122267982Y-74269819D02*
X122363220Y-74222200D01*
X122363220Y-74222200D02*
X122410839Y-74174580D01*
X121063220Y-73188866D02*
X120301316Y-73188866D01*
X110263220Y-73638866D02*
X109501316Y-73638866D01*
X109882268Y-74019819D02*
X109882268Y-73257914D01*
X112013220Y-73638866D02*
X111251316Y-73638866D01*
X121558458Y-73603152D02*
X121320363Y-74269819D01*
X121320363Y-74269819D02*
X121082268Y-73603152D01*
X119313220Y-73088866D02*
X118551316Y-73088866D01*
X118932268Y-73469819D02*
X118932268Y-72707914D01*
X110679887Y-73671009D02*
X110537030Y-73718628D01*
X110537030Y-73718628D02*
X110489411Y-73766247D01*
X110489411Y-73766247D02*
X110441792Y-73861485D01*
X110441792Y-73861485D02*
X110441792Y-74004342D01*
X110441792Y-74004342D02*
X110489411Y-74099580D01*
X110489411Y-74099580D02*
X110537030Y-74147200D01*
X110537030Y-74147200D02*
X110632268Y-74194819D01*
X110632268Y-74194819D02*
X111013220Y-74194819D01*
X111013220Y-74194819D02*
X111013220Y-73194819D01*
X111013220Y-73194819D02*
X110679887Y-73194819D01*
X110679887Y-73194819D02*
X110584649Y-73242438D01*
X110584649Y-73242438D02*
X110537030Y-73290057D01*
X110537030Y-73290057D02*
X110489411Y-73385295D01*
X110489411Y-73385295D02*
X110489411Y-73480533D01*
X110489411Y-73480533D02*
X110537030Y-73575771D01*
X110537030Y-73575771D02*
X110584649Y-73623390D01*
X110584649Y-73623390D02*
X110679887Y-73671009D01*
X110679887Y-73671009D02*
X111013220Y-73671009D01*
D11*
X113770000Y-70475000D02*
X113990000Y-70475000D01*
X113770000Y-70725000D02*
X113770000Y-70475000D01*
X113770000Y-73975000D02*
X113763137Y-73703271D01*
X113990000Y-73985000D02*
X113770000Y-73975000D01*
X117050000Y-70475000D02*
X117270000Y-70475000D01*
X117050000Y-73975000D02*
X117270000Y-73975000D01*
X117270000Y-70475000D02*
X117270000Y-70725000D01*
X117270000Y-73975000D02*
X117270000Y-73725000D01*
D12*
X113990000Y-73985000D02*
X113763137Y-73985000D01*
X113763137Y-73703271D01*
X113990000Y-73985000D01*
G36*
X113990000Y-73985000D02*
G01*
X113763137Y-73985000D01*
X113763137Y-73703271D01*
X113990000Y-73985000D01*
G37*
D11*
X107489999Y-68499999D02*
X107489999Y-68724999D01*
X107489999Y-68499999D02*
X107714999Y-68499999D01*
X107489999Y-72499999D02*
X107489999Y-72274999D01*
X107489999Y-72499999D02*
X107714999Y-72499999D01*
X110489999Y-68499999D02*
X110264999Y-68499999D01*
X110489999Y-68499999D02*
X110489999Y-68724999D01*
X110489999Y-72499999D02*
X110264999Y-72499999D01*
X110489999Y-72499999D02*
X110489999Y-72274999D01*
D12*
X110439999Y-72674999D02*
G75*
G03*
X110439999Y-72674999I-25000J0D01*
G01*
D11*
X120904983Y-79294529D02*
X120904983Y-79069529D01*
X120904983Y-79294529D02*
X120679983Y-79294529D01*
X120904983Y-75294529D02*
X120904983Y-75519529D01*
X120904983Y-75294529D02*
X120679983Y-75294529D01*
X117904983Y-79294529D02*
X118129983Y-79294529D01*
X117904983Y-79294529D02*
X117904983Y-79069529D01*
X117904983Y-75294529D02*
X118129983Y-75294529D01*
X117904983Y-75294529D02*
X117904983Y-75519529D01*
D12*
X118004983Y-75119529D02*
G75*
G03*
X118004983Y-75119529I-25000J0D01*
G01*
X116460000Y-76645000D02*
G75*
G03*
X116460000Y-76645000I-50000J0D01*
G01*
D13*
X101977000Y-71371601D02*
X100520900Y-71371601D01*
X101977000Y-68628401D02*
X101977000Y-71371601D01*
X100520900Y-68625001D02*
X101977000Y-68625001D01*
D12*
X112897500Y-69200000D02*
G75*
G03*
X112897500Y-69200000I-50000J0D01*
G01*
%LPC*%
D14*
X111660000Y-74420000D03*
X111660000Y-74420000D03*
X120650000Y-72400000D03*
X120650000Y-72400000D03*
X119200000Y-72000000D03*
X119200000Y-72000000D03*
X108980000Y-73220000D03*
X108980000Y-73220000D03*
D15*
X101740000Y-67500000D03*
X102756000Y-72580000D03*
X100724000Y-72580000D03*
D16*
X103555000Y-72070000D03*
X104105000Y-72070000D03*
X102550000Y-67760000D03*
X103100000Y-67760000D03*
D17*
X105370000Y-68160000D03*
X106370000Y-68160000D03*
D18*
X107160000Y-68350000D03*
X107160000Y-68900000D03*
X119270000Y-74225000D03*
X119270000Y-73675000D03*
D16*
X100835000Y-71700000D03*
X101385000Y-71700000D03*
D19*
X102400000Y-68650000D03*
X103800000Y-68650000D03*
D18*
X119810000Y-73680000D03*
X119810000Y-74230000D03*
D20*
X113720000Y-72950000D03*
X117320000Y-72950000D03*
X113720000Y-71500000D03*
X117320000Y-71500000D03*
D21*
X115520000Y-73875000D03*
D18*
X118725000Y-73670000D03*
X118725000Y-74220000D03*
D19*
X115520000Y-77200000D03*
X116920000Y-77200000D03*
D18*
X106980000Y-71185000D03*
X106980000Y-71735000D03*
D22*
X108989999Y-69819999D03*
D23*
X109839999Y-71999999D03*
X109839999Y-71299999D03*
X108139999Y-71999999D03*
X108139999Y-71299999D03*
D24*
X109689999Y-69819999D03*
D22*
X119404983Y-77974529D03*
D23*
X118554983Y-75794529D03*
X118554983Y-76494529D03*
X120254983Y-75794529D03*
X120254983Y-76494529D03*
D25*
X118704983Y-77974529D03*
D26*
X116409999Y-76345500D03*
X115860000Y-76345500D03*
X115310001Y-76345500D03*
X115310001Y-74694500D03*
X115860000Y-74694500D03*
X116409999Y-74694500D03*
D27*
X117142700Y-75520000D03*
X114577300Y-75520000D03*
D28*
X115860000Y-75520000D03*
D18*
X117520000Y-76965000D03*
X117520000Y-77515000D03*
D16*
X113125000Y-69900000D03*
X112575000Y-69900000D03*
D29*
X102900000Y-70500000D03*
X102900000Y-69500002D03*
D30*
X112242500Y-69200000D03*
X111272500Y-69200000D03*
D18*
X104400000Y-71625000D03*
X104400000Y-71075000D03*
D31*
X111125000Y-70275000D03*
D32*
X111875000Y-70050000D03*
X111875000Y-70500000D03*
D18*
X111800000Y-71750000D03*
X111800000Y-71200000D03*
D19*
X102370000Y-71350000D03*
X103770000Y-71350000D03*
D16*
X100865000Y-68200000D03*
X101415000Y-68200000D03*
X118560000Y-74850000D03*
X118010000Y-74850000D03*
X107385000Y-73050000D03*
X107935000Y-73050000D03*
D33*
X113160000Y-73980000D03*
X113160000Y-75380000D03*
D17*
X111350000Y-72750000D03*
X112350000Y-72750000D03*
%LPD*%
M02*
