G04 #@! TF.GenerationSoftware,KiCad,Pcbnew,7.0.10-7.0.10~ubuntu20.04.1*
G04 #@! TF.CreationDate,2024-01-02T22:15:02+00:00*
G04 #@! TF.ProjectId,yote,796f7465-2e6b-4696-9361-645f70636258,rev?*
G04 #@! TF.SameCoordinates,Original*
G04 #@! TF.FileFunction,Copper,L1,Top*
G04 #@! TF.FilePolarity,Positive*
%FSLAX46Y46*%
G04 Gerber Fmt 4.6, Leading zero omitted, Abs format (unit mm)*
G04 Created by KiCad (PCBNEW 7.0.10-7.0.10~ubuntu20.04.1) date 2024-01-02 22:15:02*
%MOMM*%
%LPD*%
G01*
G04 APERTURE LIST*
G04 Aperture macros list*
%AMRoundRect*
0 Rectangle with rounded corners*
0 $1 Rounding radius*
0 $2 $3 $4 $5 $6 $7 $8 $9 X,Y pos of 4 corners*
0 Add a 4 corners polygon primitive as box body*
4,1,4,$2,$3,$4,$5,$6,$7,$8,$9,$2,$3,0*
0 Add four circle primitives for the rounded corners*
1,1,$1+$1,$2,$3*
1,1,$1+$1,$4,$5*
1,1,$1+$1,$6,$7*
1,1,$1+$1,$8,$9*
0 Add four rect primitives between the rounded corners*
20,1,$1+$1,$2,$3,$4,$5,0*
20,1,$1+$1,$4,$5,$6,$7,0*
20,1,$1+$1,$6,$7,$8,$9,0*
20,1,$1+$1,$8,$9,$2,$3,0*%
G04 Aperture macros list end*
G04 #@! TA.AperFunction,SMDPad,CuDef*
%ADD10R,0.600000X0.500000*%
G04 #@! TD*
G04 #@! TA.AperFunction,SMDPad,CuDef*
%ADD11R,0.600000X0.800000*%
G04 #@! TD*
G04 #@! TA.AperFunction,SMDPad,CuDef*
%ADD12R,0.500000X0.600000*%
G04 #@! TD*
G04 #@! TA.AperFunction,SMDPad,CuDef*
%ADD13RoundRect,0.100000X0.350000X0.300000X-0.350000X0.300000X-0.350000X-0.300000X0.350000X-0.300000X0*%
G04 #@! TD*
G04 #@! TA.AperFunction,SMDPad,CuDef*
%ADD14RoundRect,0.100000X-0.350000X-0.300000X0.350000X-0.300000X0.350000X0.300000X-0.350000X0.300000X0*%
G04 #@! TD*
G04 #@! TA.AperFunction,SMDPad,CuDef*
%ADD15R,0.270000X0.250000*%
G04 #@! TD*
G04 #@! TA.AperFunction,ComponentPad*
%ADD16C,1.000000*%
G04 #@! TD*
G04 #@! TA.AperFunction,ConnectorPad*
%ADD17C,1.000000*%
G04 #@! TD*
G04 #@! TA.AperFunction,SMDPad,CuDef*
%ADD18C,0.243840*%
G04 #@! TD*
G04 #@! TA.AperFunction,SMDPad,CuDef*
%ADD19R,0.800000X0.600000*%
G04 #@! TD*
G04 #@! TA.AperFunction,SMDPad,CuDef*
%ADD20R,0.250000X0.270000*%
G04 #@! TD*
G04 #@! TA.AperFunction,SMDPad,CuDef*
%ADD21C,0.152400*%
G04 #@! TD*
G04 #@! TA.AperFunction,SMDPad,CuDef*
%ADD22C,0.220000*%
G04 #@! TD*
G04 #@! TA.AperFunction,SMDPad,CuDef*
%ADD23R,0.800000X1.600000*%
G04 #@! TD*
G04 #@! TA.AperFunction,SMDPad,CuDef*
%ADD24R,0.700000X0.600000*%
G04 #@! TD*
G04 #@! TA.AperFunction,ConnectorPad*
%ADD25C,0.787400*%
G04 #@! TD*
G04 #@! TA.AperFunction,ViaPad*
%ADD26C,0.300000*%
G04 #@! TD*
G04 #@! TA.AperFunction,ViaPad*
%ADD27C,0.500000*%
G04 #@! TD*
G04 #@! TA.AperFunction,Conductor*
%ADD28C,0.250000*%
G04 #@! TD*
G04 #@! TA.AperFunction,Conductor*
%ADD29C,0.150000*%
G04 #@! TD*
G04 #@! TA.AperFunction,Conductor*
%ADD30C,0.110000*%
G04 #@! TD*
G04 #@! TA.AperFunction,Conductor*
%ADD31C,0.500000*%
G04 #@! TD*
G04 #@! TA.AperFunction,Conductor*
%ADD32C,0.133500*%
G04 #@! TD*
G04 APERTURE END LIST*
D10*
X32450000Y47870000D03*
X33450000Y47870000D03*
D11*
X28640000Y43000000D03*
X27240000Y43000000D03*
D12*
X26450000Y42590000D03*
X26450000Y41590000D03*
D13*
X26240000Y36630000D03*
D14*
X24840000Y36630000D03*
X24840000Y35530000D03*
D13*
X26240000Y35530000D03*
D11*
X30150000Y43410000D03*
X31550000Y43410000D03*
D15*
X26290000Y38570000D03*
X26290000Y39120000D03*
D16*
X27400000Y44210000D03*
D17*
X27400000Y44210000D03*
D18*
X30600000Y52365000D03*
X31000000Y52365000D03*
X31400000Y52365000D03*
X31800000Y52365000D03*
X32200000Y52365000D03*
X32600000Y52365000D03*
X30800000Y52020000D03*
X31200000Y52020000D03*
X31600000Y52020000D03*
X32000000Y52020000D03*
X32400000Y52020000D03*
X30600000Y51675000D03*
X31000000Y51675000D03*
X31400000Y51675000D03*
X31800000Y51675000D03*
X32200000Y51675000D03*
X32600000Y51675000D03*
X30800000Y51330000D03*
X31200000Y51330000D03*
X31600000Y51330000D03*
X32000000Y51330000D03*
X32400000Y51330000D03*
X30600000Y50985000D03*
X31000000Y50985000D03*
X31400000Y50985000D03*
X31800000Y50985000D03*
X32200000Y50985000D03*
X32600000Y50985000D03*
X30800000Y50640000D03*
X31200000Y50640000D03*
X31600000Y50640000D03*
X32000000Y50640000D03*
X32400000Y50640000D03*
X30600000Y50295000D03*
X31000000Y50295000D03*
X31400000Y50295000D03*
X31800000Y50295000D03*
X32200000Y50295000D03*
X32600000Y50295000D03*
X30800000Y49950000D03*
X31200000Y49950000D03*
X31600000Y49950000D03*
X32000000Y49950000D03*
X32400000Y49950000D03*
X30600000Y49605000D03*
X31000000Y49605000D03*
X31400000Y49605000D03*
X31800000Y49605000D03*
X32200000Y49605000D03*
X32600000Y49605000D03*
X30800000Y49260000D03*
X31200000Y49260000D03*
X31600000Y49260000D03*
X32000000Y49260000D03*
X32400000Y49260000D03*
X30600000Y48915000D03*
X31000000Y48915000D03*
X31400000Y48915000D03*
X31800000Y48915000D03*
X32200000Y48915000D03*
X32600000Y48915000D03*
D19*
X32430000Y44510000D03*
X32430000Y43110000D03*
D15*
X28445000Y36720000D03*
X28445000Y36170000D03*
D20*
X31245000Y48170000D03*
X30695000Y48170000D03*
D21*
X27260000Y38130000D03*
X27260000Y38480000D03*
X27260000Y38830000D03*
X27260000Y39530000D03*
X27260000Y40230000D03*
X27260000Y40930000D03*
X27260000Y41630000D03*
X27260000Y41980000D03*
X27610000Y38130000D03*
X27610000Y38480000D03*
X27610000Y39180000D03*
X27610000Y39530000D03*
X27610000Y39880000D03*
X27610000Y40230000D03*
X27610000Y40580000D03*
X27610000Y40930000D03*
X27610000Y41280000D03*
X27610000Y41630000D03*
X27610000Y41980000D03*
X27960000Y38480000D03*
X27960000Y39180000D03*
X27960000Y39530000D03*
X27960000Y39880000D03*
X27960000Y40230000D03*
X27960000Y40580000D03*
X27960000Y40930000D03*
X27960000Y41280000D03*
X27960000Y41630000D03*
X28310000Y38130000D03*
X28310000Y38480000D03*
X28310000Y41280000D03*
X28310000Y41630000D03*
X28310000Y41980000D03*
X28660000Y38480000D03*
X28660000Y38830000D03*
X28660000Y39180000D03*
X28660000Y39530000D03*
X28660000Y39880000D03*
X28660000Y40230000D03*
X28660000Y40580000D03*
X28660000Y41280000D03*
X28660000Y41630000D03*
X29010000Y38130000D03*
X29010000Y38480000D03*
X29010000Y38830000D03*
X29010000Y39530000D03*
X29010000Y39880000D03*
X29010000Y40230000D03*
X29010000Y40580000D03*
X29010000Y41280000D03*
X29010000Y41630000D03*
X29010000Y41980000D03*
X29360000Y38480000D03*
X29360000Y38830000D03*
X29360000Y39530000D03*
X29360000Y39880000D03*
X29360000Y40230000D03*
X29360000Y40580000D03*
X29360000Y41280000D03*
X29360000Y41630000D03*
X29710000Y38130000D03*
X29710000Y38480000D03*
X29710000Y38830000D03*
X29710000Y41280000D03*
X29710000Y41630000D03*
X29710000Y41980000D03*
X30060000Y38480000D03*
X30060000Y38830000D03*
X30060000Y39180000D03*
X30060000Y39530000D03*
X30060000Y39880000D03*
X30060000Y40230000D03*
X30060000Y40580000D03*
X30060000Y40930000D03*
X30060000Y41280000D03*
X30060000Y41630000D03*
X30410000Y38130000D03*
X30410000Y38480000D03*
X30410000Y38830000D03*
X30410000Y39180000D03*
X30410000Y39530000D03*
X30410000Y39880000D03*
X30410000Y40230000D03*
X30410000Y40580000D03*
X30410000Y40930000D03*
X30410000Y41280000D03*
X30410000Y41630000D03*
X30410000Y41980000D03*
X30760000Y38130000D03*
X30760000Y38830000D03*
X30760000Y39530000D03*
X30760000Y40230000D03*
X30760000Y40930000D03*
X30760000Y41630000D03*
X30760000Y41980000D03*
D10*
X25430000Y40880000D03*
X26430000Y40880000D03*
D15*
X31550000Y41995000D03*
X31550000Y42545000D03*
D22*
X31090000Y47080000D03*
X31090000Y46680000D03*
X31090000Y46280000D03*
X31090000Y45880000D03*
X31090000Y45480000D03*
X30690000Y47080000D03*
X30690000Y46680000D03*
X30690000Y46280000D03*
X30690000Y45880000D03*
X30690000Y45480000D03*
X30290000Y47080000D03*
X30290000Y46680000D03*
X30290000Y46280000D03*
X30290000Y45880000D03*
X30290000Y45480000D03*
X29890000Y47080000D03*
X29890000Y46680000D03*
X29890000Y46280000D03*
X29890000Y45880000D03*
X29890000Y45480000D03*
X29490000Y47080000D03*
X29490000Y46680000D03*
X29490000Y46280000D03*
X29490000Y45880000D03*
X29490000Y45480000D03*
D23*
X27710000Y34110000D03*
X24310000Y34110000D03*
D15*
X30650000Y37565000D03*
X30650000Y37015000D03*
D10*
X24050000Y38630000D03*
X25050000Y38630000D03*
D20*
X28120000Y37250000D03*
X27570000Y37250000D03*
D12*
X32980000Y46410000D03*
X32980000Y45410000D03*
X33910000Y52510000D03*
X33910000Y51510000D03*
X29440000Y43310000D03*
X29440000Y44310000D03*
D15*
X27120000Y37255000D03*
X27120000Y36705000D03*
D19*
X29570000Y48270000D03*
X29570000Y49670000D03*
D20*
X29655000Y42650000D03*
X30205000Y42650000D03*
D19*
X33560000Y50630000D03*
X33560000Y49230000D03*
D24*
X28540000Y45400000D03*
D19*
X28540000Y44000000D03*
D12*
X31740000Y40310000D03*
X31740000Y41310000D03*
D16*
X29420000Y35220000D03*
D17*
X29420000Y35220000D03*
D11*
X31570000Y44400000D03*
X30170000Y44400000D03*
D12*
X23190000Y39030000D03*
X23190000Y38030000D03*
D20*
X26255000Y37770000D03*
X25705000Y37770000D03*
D16*
X29820000Y36670000D03*
D17*
X29820000Y36670000D03*
D12*
X29540000Y50690000D03*
X29540000Y51690000D03*
D16*
X28600000Y46890000D03*
D17*
X28600000Y46890000D03*
D20*
X28445000Y35620000D03*
X27895000Y35620000D03*
D25*
X33050000Y54765000D03*
X33050000Y53495000D03*
X31780000Y54765000D03*
X31780000Y53495000D03*
X30510000Y54765000D03*
X30510000Y53495000D03*
D11*
X25620000Y39490000D03*
X24220000Y39490000D03*
D26*
X27337428Y35276365D03*
X31775915Y41874085D03*
X30120000Y37520000D03*
D27*
X33260000Y52780000D03*
X30044500Y43320000D03*
D26*
X26192324Y37997353D03*
X31171290Y48571290D03*
D27*
X23480000Y39414500D03*
D26*
X31615934Y40554807D03*
X27946878Y37511099D03*
X29360000Y40230000D03*
X31200000Y49260000D03*
X28660000Y39880000D03*
X26270000Y39420000D03*
X32375500Y51330000D03*
X26785000Y35909002D03*
X29010000Y39880000D03*
X33390000Y47400000D03*
X30581615Y39796387D03*
X28660000Y39530000D03*
X26522087Y40624500D03*
X26658000Y39418243D03*
X29364397Y40583237D03*
X32000000Y49260000D03*
X29355492Y39526267D03*
X29010000Y39530000D03*
D27*
X29466842Y48979500D03*
D26*
X28660000Y40230000D03*
D27*
X32967272Y45462727D03*
D26*
X29610000Y54330000D03*
X30324000Y45277228D03*
X33869071Y51512079D03*
X29495469Y51432459D03*
X29010000Y40230000D03*
D27*
X24931798Y38824502D03*
X23410498Y38320000D03*
D26*
X33706757Y49636757D03*
X32400000Y52020000D03*
X27605500Y37179224D03*
X28660000Y40580000D03*
X29360000Y39880000D03*
X31800000Y50980000D03*
X27923597Y41943595D03*
X32200000Y51675000D03*
X29020000Y40590000D03*
X31503763Y42648535D03*
D27*
X26115813Y41947421D03*
D26*
X25689271Y37902138D03*
X29616032Y37674720D03*
X31130000Y55050000D03*
D27*
X22778778Y37417460D03*
D26*
X31600000Y52020000D03*
X28572668Y45942994D03*
D27*
X29540000Y50690000D03*
X24790498Y40835000D03*
D26*
X31009501Y47822512D03*
X31986022Y51325590D03*
X33045141Y45964859D03*
D27*
X27905500Y43454500D03*
D26*
X29170000Y48220000D03*
X28925000Y36575000D03*
X29248940Y40956028D03*
D27*
X31191720Y53057377D03*
D26*
X32000000Y52020000D03*
D27*
X32417065Y53124894D03*
D26*
X29005000Y37596346D03*
X32400000Y54180000D03*
X31180000Y54180000D03*
X28880500Y37130984D03*
X30060000Y40230000D03*
X30500700Y52720000D03*
X27000000Y36270000D03*
X30600000Y50985000D03*
X29135493Y50207003D03*
X32395834Y50631692D03*
X30060000Y39530000D03*
X28372332Y40945375D03*
X29145500Y47390500D03*
X28802762Y40942397D03*
X30009500Y45039938D03*
X29702071Y39671302D03*
X29217484Y46098831D03*
X29709999Y40059086D03*
X32402741Y48462741D03*
X32065500Y42152614D03*
X32963992Y50060000D03*
X32200000Y50295000D03*
X30060000Y40930000D03*
X29140000Y45250000D03*
X31230000Y39130000D03*
X31420189Y39469911D03*
X31000000Y50300000D03*
X30994104Y40441809D03*
X32000000Y50640000D03*
X31058086Y40826021D03*
X32956291Y49655950D03*
X32920498Y49240000D03*
X31168269Y41593497D03*
X32200000Y49610000D03*
X31084502Y38590000D03*
X30879522Y40047312D03*
X31998543Y49943357D03*
X31150500Y41204402D03*
X31800000Y49605000D03*
X32870019Y50684500D03*
X31629500Y48417920D03*
X29739885Y40570526D03*
X31200000Y50640000D03*
X22495532Y35445531D03*
X30209500Y49685523D03*
X29660212Y40961243D03*
D28*
X33765000Y52365000D02*
X33910000Y52510000D01*
D29*
X31330000Y39924532D02*
X31330000Y40270000D01*
D28*
X30270000Y44390000D02*
X30270000Y43420000D01*
X29520000Y42860000D02*
X28931200Y42271200D01*
D29*
X27610000Y41980000D02*
X27610000Y42200000D01*
X31760000Y40410741D02*
X31615934Y40554807D01*
X31550000Y41995000D02*
X31655000Y41995000D01*
D28*
X29520000Y43320000D02*
X30170000Y43320000D01*
D30*
X27143132Y40008800D02*
X27064332Y39930000D01*
D29*
X28660000Y42200000D02*
X28670000Y42210000D01*
X31330000Y40270000D02*
X31360000Y40300000D01*
D30*
X33050000Y54765000D02*
X33050000Y54390000D01*
D28*
X33120000Y52365000D02*
X33120000Y52640000D01*
D29*
X31760000Y40300000D02*
X31760000Y40410741D01*
D28*
X31265000Y48190000D02*
X31245000Y48170000D01*
D29*
X27946878Y37511099D02*
X28145000Y37312977D01*
D28*
X30270000Y43420000D02*
X30260000Y43410000D01*
X32600000Y52365000D02*
X33120000Y52365000D01*
D29*
X28068800Y37811200D02*
X28145000Y37735000D01*
X30410000Y38130000D02*
X30650000Y37890000D01*
D30*
X27260000Y38830000D02*
X27260000Y38797158D01*
X27297175Y41280000D02*
X27038800Y41538375D01*
D29*
X27588800Y42221200D02*
X27160091Y42221200D01*
X30967753Y39737753D02*
X31143221Y39737753D01*
D28*
X29520000Y43320000D02*
X29520000Y42785000D01*
D29*
X28310000Y38480000D02*
X28068800Y38238800D01*
D30*
X27610000Y41280000D02*
X27297175Y41280000D01*
D28*
X30690000Y44920000D02*
X30170000Y44400000D01*
D29*
X29468800Y41871200D02*
X29468800Y42463800D01*
X30760000Y39530000D02*
X30967753Y39737753D01*
D30*
X27610000Y40230000D02*
X27388800Y40008800D01*
X27260000Y38797158D02*
X26820000Y38357158D01*
X28621405Y42238595D02*
X28660000Y42200000D01*
D29*
X31360000Y40300000D02*
X31760000Y40300000D01*
D30*
X33710000Y53730000D02*
X33710000Y52710000D01*
D28*
X29520000Y43320000D02*
X29520000Y42860000D01*
D29*
X27610000Y42200000D02*
X27645000Y42235000D01*
D30*
X30150000Y43410000D02*
X30134500Y43410000D01*
X27038800Y42099909D02*
X27160091Y42221200D01*
D28*
X23190000Y39124500D02*
X23480000Y39414500D01*
X28731200Y42271200D02*
X28660000Y42200000D01*
D29*
X31655000Y41995000D02*
X31775915Y41874085D01*
X31125000Y41995000D02*
X31550000Y41995000D01*
D28*
X30690000Y45480000D02*
X30690000Y44920000D01*
D30*
X30134500Y43410000D02*
X30044500Y43320000D01*
D28*
X33120000Y52640000D02*
X33260000Y52780000D01*
D30*
X26170000Y39930000D02*
X26065000Y40035000D01*
D28*
X33120000Y52365000D02*
X33765000Y52365000D01*
X29520000Y42785000D02*
X29655000Y42650000D01*
D30*
X33050000Y54390000D02*
X33710000Y53730000D01*
X26065000Y40035000D02*
X23775000Y40035000D01*
D29*
X29710000Y41630000D02*
X29468800Y41871200D01*
D30*
X26255000Y37770000D02*
X26255000Y37934677D01*
D29*
X28660000Y41630000D02*
X28660000Y42200000D01*
D30*
X27038800Y41538375D02*
X27038800Y42099909D01*
D29*
X31143221Y39737753D02*
X31330000Y39924532D01*
X30650000Y37890000D02*
X30650000Y37565000D01*
D28*
X31000000Y48915000D02*
X31000000Y48742580D01*
D30*
X26820000Y38357158D02*
X26820000Y38137158D01*
D29*
X28145000Y37312977D02*
X28145000Y37250000D01*
D28*
X31265000Y48477580D02*
X31265000Y48190000D01*
D30*
X23775000Y40035000D02*
X23150000Y39410000D01*
D29*
X27610000Y42200000D02*
X27588800Y42221200D01*
D30*
X27064332Y39930000D02*
X26170000Y39930000D01*
X33710000Y52710000D02*
X33910000Y52510000D01*
D28*
X28931200Y42271200D02*
X28731200Y42271200D01*
X23190000Y39030000D02*
X23190000Y39124500D01*
D30*
X27388800Y40008800D02*
X27143132Y40008800D01*
D29*
X30120000Y37520000D02*
X30165000Y37565000D01*
D28*
X30170000Y43320000D02*
X30260000Y43410000D01*
D30*
X26452842Y37770000D02*
X26255000Y37770000D01*
D29*
X30165000Y37565000D02*
X30650000Y37565000D01*
X30760000Y41630000D02*
X31125000Y41995000D01*
D30*
X26820000Y38137158D02*
X26452842Y37770000D01*
D29*
X29468800Y42463800D02*
X29655000Y42650000D01*
D28*
X31000000Y48742580D02*
X31265000Y48477580D01*
D29*
X28145000Y37735000D02*
X28145000Y37250000D01*
D30*
X26255000Y37934677D02*
X26192324Y37997353D01*
X27648595Y42238595D02*
X28621405Y42238595D01*
D29*
X28068800Y38238800D02*
X28068800Y37811200D01*
D30*
X23150000Y39410000D02*
X23150000Y39050000D01*
D28*
X29570000Y49082658D02*
X29570000Y49670000D01*
D29*
X29010000Y40230000D02*
X29360000Y40230000D01*
X28240000Y38830000D02*
X27830000Y38830000D01*
X29020000Y40590000D02*
X29020000Y40240000D01*
D30*
X23605000Y38155000D02*
X24329500Y37430500D01*
D29*
X29364397Y40583237D02*
X29357634Y40590000D01*
D28*
X29890000Y46280000D02*
X29890000Y45880000D01*
D29*
X28340000Y40240000D02*
X28340000Y39890000D01*
D28*
X30185000Y49055000D02*
X30185000Y48630000D01*
D30*
X27595000Y37250000D02*
X27595000Y37642158D01*
D28*
X31055000Y45423788D02*
X31090000Y45458788D01*
D30*
X24329500Y37430500D02*
X24975000Y37430500D01*
D29*
X32145000Y42545000D02*
X32430000Y42260000D01*
D30*
X26270000Y39420000D02*
X26290000Y39400000D01*
X26769757Y39530000D02*
X27260000Y39530000D01*
D28*
X29540000Y51476990D02*
X29495469Y51432459D01*
D30*
X27320000Y36069002D02*
X27320000Y36525000D01*
D29*
X28660000Y39880000D02*
X28350000Y39880000D01*
X27830000Y38830000D02*
X27610000Y38610000D01*
D30*
X23410498Y38320000D02*
X23575498Y38155000D01*
D31*
X33560000Y49230000D02*
X33560000Y47950000D01*
D29*
X30205000Y42650000D02*
X31445000Y42650000D01*
D30*
X26260000Y39120000D02*
X26290000Y39120000D01*
X25050000Y38706300D02*
X25050000Y38550000D01*
D29*
X28273595Y41943595D02*
X28310000Y41980000D01*
D28*
X30150000Y50895000D02*
X30150000Y51290000D01*
D29*
X32278081Y51596919D02*
X32200000Y51675000D01*
X28350000Y40230000D02*
X28340000Y40240000D01*
X27960000Y38480000D02*
X27610000Y38480000D01*
X31550000Y42545000D02*
X32145000Y42545000D01*
D28*
X31090000Y45458788D02*
X31079394Y45469394D01*
D30*
X27280998Y35909002D02*
X26785000Y35909002D01*
D28*
X31780000Y41300000D02*
X31760000Y41300000D01*
X33910000Y51510000D02*
X33400000Y52020000D01*
X30415000Y50630000D02*
X30150000Y50895000D01*
D29*
X28340000Y39890000D02*
X28340000Y39530000D01*
X29020000Y40240000D02*
X29010000Y40230000D01*
D31*
X33560000Y47950000D02*
X33450000Y47840000D01*
D29*
X29010000Y40230000D02*
X28660000Y40230000D01*
D28*
X33910000Y51510000D02*
X33871150Y51510000D01*
X31550000Y43410000D02*
X31830000Y43410000D01*
D29*
X27923595Y41943595D02*
X27610000Y41630000D01*
X29355492Y39526267D02*
X29351759Y39530000D01*
D30*
X33010000Y43890000D02*
X33010000Y45380000D01*
D29*
X31503763Y42648535D02*
X31503763Y42591237D01*
D30*
X24975000Y36465000D02*
X24975000Y37430500D01*
D29*
X30650000Y37015000D02*
X30650000Y36654213D01*
D28*
X26115813Y41908294D02*
X26434107Y41590000D01*
D30*
X27060000Y35809002D02*
X27060000Y35600000D01*
X31800000Y50985000D02*
X31800000Y50980000D01*
D28*
X26440000Y41590000D02*
X26440000Y40890000D01*
D29*
X28340000Y39530000D02*
X28340000Y38930000D01*
D28*
X26115813Y41947421D02*
X26115813Y41908294D01*
D30*
X27595000Y37250000D02*
X27605500Y37239500D01*
X23575498Y38155000D02*
X23605000Y38155000D01*
D28*
X33450000Y47460000D02*
X33390000Y47400000D01*
D29*
X30581615Y39796387D02*
X30498002Y39880000D01*
X30168800Y42613800D02*
X30168800Y41871200D01*
D28*
X32430000Y43110000D02*
X32430000Y41950000D01*
X31550000Y43410000D02*
X31055000Y43905000D01*
D30*
X32430000Y43110000D02*
X32890000Y43570000D01*
D29*
X32200000Y51675000D02*
X32321919Y51796919D01*
D30*
X32890000Y43570000D02*
X32890000Y43770000D01*
X33560000Y49230000D02*
X33560000Y49490000D01*
D29*
X28340000Y38930000D02*
X28240000Y38830000D01*
D30*
X30045000Y54765000D02*
X29610000Y54330000D01*
D28*
X29570000Y49670000D02*
X30185000Y49055000D01*
X30290000Y45880000D02*
X30290000Y45311228D01*
D29*
X27610000Y38610000D02*
X27610000Y38480000D01*
D30*
X27605500Y37179224D02*
X27594224Y37179224D01*
X24931798Y38824502D02*
X25050000Y38706300D01*
X25705000Y37770000D02*
X25314500Y37770000D01*
D28*
X30235000Y48630000D02*
X30695000Y48170000D01*
D29*
X28420000Y40580000D02*
X28340000Y40500000D01*
D28*
X29505000Y45465000D02*
X29495061Y45474939D01*
D30*
X27570000Y35620000D02*
X27280998Y35909002D01*
D29*
X32400000Y51330000D02*
X32278081Y51451919D01*
D30*
X27594224Y37179224D02*
X27120000Y36705000D01*
D29*
X29010000Y39880000D02*
X29010000Y39530000D01*
D30*
X27595000Y37642158D02*
X27848800Y37895958D01*
D29*
X31503763Y42591237D02*
X31550000Y42545000D01*
X29552159Y35220000D02*
X29420000Y35220000D01*
D30*
X32890000Y43770000D02*
X33010000Y43890000D01*
D29*
X32321919Y51796919D02*
X32321919Y51941919D01*
D28*
X23410498Y38320000D02*
X23190000Y38099502D01*
D29*
X30650000Y36654213D02*
X30384698Y36052539D01*
X28350000Y39880000D02*
X28340000Y39890000D01*
D30*
X25705000Y37770000D02*
X25705000Y37886409D01*
D29*
X31445000Y42650000D02*
X31550000Y42545000D01*
D28*
X33871150Y51510000D02*
X33869071Y51512079D01*
D29*
X32321919Y51941919D02*
X32400000Y52020000D01*
X30205000Y42650000D02*
X30168800Y42613800D01*
X29360000Y39530775D02*
X29360000Y40580000D01*
X28660000Y40230000D02*
X28350000Y40230000D01*
D28*
X31830000Y43410000D02*
X32130000Y43410000D01*
D29*
X30384698Y36052539D02*
X29552159Y35220000D01*
D28*
X30690000Y45880000D02*
X29890000Y45880000D01*
D30*
X27610000Y40930000D02*
X27388800Y40708800D01*
X25050000Y38550000D02*
X25690000Y38550000D01*
D32*
X26601200Y40708800D02*
X26430000Y40880000D01*
D29*
X32278081Y51451919D02*
X32278081Y51596919D01*
D30*
X25314500Y37770000D02*
X25200000Y37655500D01*
X27895000Y35620000D02*
X27570000Y35620000D01*
X25690000Y38550000D02*
X26260000Y39120000D01*
X27848800Y37895958D02*
X27848800Y38368800D01*
X33010000Y45380000D02*
X32980000Y45410000D01*
D29*
X30168800Y41871200D02*
X30410000Y41630000D01*
D28*
X31055000Y43905000D02*
X31055000Y45423788D01*
D29*
X29010000Y40580000D02*
X28660000Y40580000D01*
X29010000Y40230000D02*
X29010000Y39880000D01*
D28*
X30690000Y46280000D02*
X30690000Y45880000D01*
D29*
X29355492Y39526267D02*
X29360000Y39530775D01*
X27923597Y41943595D02*
X27923595Y41943595D01*
D28*
X29540000Y51690000D02*
X29540000Y51476990D01*
D29*
X29010000Y39880000D02*
X29360000Y39880000D01*
D28*
X29440000Y44310000D02*
X29505000Y44375000D01*
X30800000Y50640000D02*
X30790000Y50630000D01*
D29*
X29010000Y40590000D02*
X29010000Y40580000D01*
D28*
X28540000Y44040000D02*
X28540000Y44030000D01*
D29*
X29010000Y39530000D02*
X28660000Y39530000D01*
D30*
X27848800Y38368800D02*
X27960000Y38480000D01*
D28*
X33400000Y52020000D02*
X32400000Y52020000D01*
D29*
X28660000Y40580000D02*
X28420000Y40580000D01*
D30*
X26380000Y39530000D02*
X27260000Y39530000D01*
D28*
X30290000Y45311228D02*
X30324000Y45277228D01*
D29*
X28660000Y39530000D02*
X28340000Y39530000D01*
D28*
X32130000Y43410000D02*
X32430000Y43110000D01*
D29*
X32400000Y51330000D02*
X32375500Y51330000D01*
D32*
X26670000Y40708800D02*
X26601200Y40708800D01*
D30*
X26658000Y39418243D02*
X26769757Y39530000D01*
X26670000Y40708800D02*
X26621200Y40708800D01*
D29*
X29363237Y40583237D02*
X29360000Y40580000D01*
D28*
X30185000Y48630000D02*
X30235000Y48630000D01*
X30150000Y51290000D02*
X29750000Y51690000D01*
D30*
X27320000Y36525000D02*
X27180000Y36665000D01*
D28*
X29750000Y51690000D02*
X29540000Y51690000D01*
X29466842Y48979500D02*
X29570000Y49082658D01*
D30*
X26265000Y35505000D02*
X26965000Y35505000D01*
X24975000Y37430500D02*
X25200000Y37655500D01*
D29*
X29351759Y39530000D02*
X29010000Y39530000D01*
D30*
X27605500Y37239500D02*
X27605500Y37179224D01*
D29*
X28340000Y40500000D02*
X28340000Y40240000D01*
X29010000Y39880000D02*
X28660000Y39880000D01*
D28*
X30790000Y50630000D02*
X30415000Y50630000D01*
X23190000Y38099502D02*
X23190000Y38030000D01*
D29*
X29364397Y40583237D02*
X29363237Y40583237D01*
D28*
X33450000Y47840000D02*
X33450000Y47460000D01*
D29*
X30498002Y39880000D02*
X30410000Y39880000D01*
X28660000Y40580000D02*
X28660000Y39530000D01*
D30*
X30510000Y54765000D02*
X30045000Y54765000D01*
D29*
X29357634Y40590000D02*
X29010000Y40590000D01*
D30*
X27388800Y40708800D02*
X26670000Y40708800D01*
D28*
X29505000Y44375000D02*
X29505000Y45465000D01*
D30*
X33560000Y49490000D02*
X33706757Y49636757D01*
D28*
X29520000Y44320000D02*
X29420000Y44420000D01*
D29*
X27923597Y41943595D02*
X28273595Y41943595D01*
D30*
X26290000Y39400000D02*
X26290000Y39120000D01*
X26965000Y35505000D02*
X27060000Y35600000D01*
D28*
X32430000Y41950000D02*
X31780000Y41300000D01*
X32880000Y45440000D02*
X32880000Y45320000D01*
D30*
X27320000Y36069002D02*
X27060000Y35809002D01*
X26270000Y39420000D02*
X26380000Y39530000D01*
X25705000Y37886409D02*
X25689271Y37902138D01*
X26620000Y38502825D02*
X26620000Y38430000D01*
X26482353Y38292353D02*
X25622353Y38292353D01*
X26620000Y38430000D02*
X26482353Y38292353D01*
X24440000Y38160000D02*
X24220000Y38380000D01*
X27481200Y39051200D02*
X27168375Y39051200D01*
X24220000Y38380000D02*
X24220000Y39490000D01*
X25490000Y38160000D02*
X24440000Y38160000D01*
X27168375Y39051200D02*
X26620000Y38502825D01*
X27610000Y39180000D02*
X27481200Y39051200D01*
X25622353Y38292353D02*
X25490000Y38160000D01*
X27180000Y37510000D02*
X27180000Y37315000D01*
X27610000Y38130000D02*
X27610000Y37940000D01*
X27180000Y37315000D02*
X27120000Y37255000D01*
X27610000Y37940000D02*
X27180000Y37510000D01*
X27780000Y34040000D02*
X27710000Y34110000D01*
D32*
X28357132Y34232132D02*
X28322868Y34197868D01*
X28445000Y36170000D02*
X28445000Y34444264D01*
D30*
X27710000Y34785000D02*
X27710000Y34110000D01*
D32*
X28110736Y34110000D02*
X27710000Y34110000D01*
X28110736Y34109975D02*
G75*
G03*
X28322868Y34197868I-36J300025D01*
G01*
X28357114Y34232150D02*
G75*
G03*
X28445000Y34444264I-212114J212150D01*
G01*
D30*
X26981490Y40130000D02*
X26252843Y40130000D01*
X26147843Y40235000D02*
X25635000Y40235000D01*
X27099733Y43140267D02*
X27240000Y43000000D01*
X27260000Y40230000D02*
X27081490Y40230000D01*
X25430000Y40440000D02*
X25430000Y42035087D01*
X26205662Y43140267D02*
X27099733Y43140267D01*
X25430000Y42035087D02*
X25824432Y42569624D01*
X27081490Y40230000D02*
X26981490Y40130000D01*
X25635000Y40235000D02*
X25430000Y40440000D01*
X26252843Y40130000D02*
X26147843Y40235000D01*
X25824432Y42569624D02*
X26205662Y43140267D01*
X27610000Y39530000D02*
X27388800Y39308800D01*
X27028800Y39308800D02*
X26290000Y38570000D01*
X27388800Y39308800D02*
X27028800Y39308800D01*
X26335686Y40330000D02*
X26230686Y40435000D01*
X25904412Y42364412D02*
X26090000Y42550000D01*
X26055000Y40435000D02*
X25875000Y40615000D01*
X27019847Y40451200D02*
X26898647Y40330000D01*
X25875000Y40615000D02*
X25875000Y41275000D01*
X26230686Y40435000D02*
X26055000Y40435000D01*
X26898647Y40330000D02*
X26335686Y40330000D01*
X25630000Y41520000D02*
X25630000Y41992527D01*
X26090000Y42550000D02*
X26420000Y42550000D01*
X25875000Y41275000D02*
X25630000Y41520000D01*
X27610000Y40580000D02*
X27481200Y40451200D01*
X27481200Y40451200D02*
X27019847Y40451200D01*
X25630000Y41992527D02*
X25904412Y42364412D01*
X29618375Y37677063D02*
X29618375Y37908800D01*
X29616032Y37674720D02*
X29618375Y37677063D01*
X29360000Y38167175D02*
X29360000Y38480000D01*
X29618375Y37908800D02*
X29360000Y38167175D01*
X31415000Y54765000D02*
X31780000Y54765000D01*
X31130000Y55050000D02*
X31415000Y54765000D01*
D28*
X31800000Y48915000D02*
X31800000Y48763608D01*
X32430000Y47820000D02*
X31009501Y47820000D01*
X31800000Y48763608D02*
X32037741Y48525867D01*
X32450000Y47840000D02*
X32430000Y47820000D01*
X32037741Y48525867D02*
X32037741Y48252259D01*
X32037741Y48252259D02*
X32450000Y47840000D01*
X29935000Y50295000D02*
X29540000Y50690000D01*
X30600000Y50295000D02*
X29935000Y50295000D01*
D29*
X31990432Y51330000D02*
X31986022Y51325590D01*
X32000000Y51330000D02*
X31990432Y51330000D01*
D28*
X32740000Y51535000D02*
X32740000Y51330000D01*
X32740000Y51330000D02*
X33440000Y50630000D01*
X32600000Y51675000D02*
X32740000Y51535000D01*
X33045141Y45964859D02*
X33045141Y46344859D01*
D29*
X31390000Y46540000D02*
X31760000Y46170000D01*
D28*
X30690000Y47235563D02*
X30859437Y47405000D01*
X31920000Y46170000D02*
X32740000Y46170000D01*
X33045141Y46344859D02*
X32980000Y46410000D01*
X30690000Y46680000D02*
X30690000Y47080000D01*
D29*
X31760000Y46170000D02*
X31920000Y46170000D01*
X31390000Y47239620D02*
X31390000Y46540000D01*
D28*
X30690000Y47080000D02*
X30690000Y47235563D01*
X30859437Y47405000D02*
X31224620Y47405000D01*
D29*
X31224620Y47405000D02*
X31390000Y47239620D01*
D28*
X32740000Y46170000D02*
X32980000Y46410000D01*
X31210936Y46280000D02*
X32580000Y44910936D01*
X31090000Y46280000D02*
X31210936Y46280000D01*
X32580000Y44910936D02*
X32580000Y44510000D01*
X29220000Y48270000D02*
X29170000Y48220000D01*
X29570000Y48270000D02*
X29220000Y48270000D01*
X30290000Y47550000D02*
X29570000Y48270000D01*
X30290000Y46280000D02*
X30290000Y47080000D01*
X30290000Y47080000D02*
X30290000Y47550000D01*
D30*
X29248940Y40956028D02*
X29010000Y41194968D01*
X29010000Y41194968D02*
X29010000Y41280000D01*
D28*
X32200000Y52365000D02*
X32200000Y52907829D01*
X32200000Y52907829D02*
X32417065Y53124894D01*
D30*
X33050000Y53495000D02*
X33050000Y53530000D01*
X33050000Y53530000D02*
X32400000Y54180000D01*
X29005000Y37596346D02*
X29010000Y37601346D01*
X29010000Y37601346D02*
X29010000Y38130000D01*
X28710000Y38180000D02*
X29010000Y38480000D01*
X31780000Y53580000D02*
X31180000Y54180000D01*
X31780000Y53495000D02*
X31780000Y53581502D01*
X28880500Y37130984D02*
X28710000Y37301484D01*
X28710000Y37301484D02*
X28710000Y38180000D01*
X31780000Y53495000D02*
X31780000Y53580000D01*
X30510000Y52729300D02*
X30510000Y53495000D01*
X30500700Y52720000D02*
X30510000Y52729300D01*
X27147175Y39730000D02*
X25860000Y39730000D01*
X27538800Y39808800D02*
X27225975Y39808800D01*
X27610000Y39880000D02*
X27538800Y39808800D01*
X27225975Y39808800D02*
X27147175Y39730000D01*
X25860000Y39730000D02*
X25620000Y39490000D01*
D32*
X28310000Y38130000D02*
X28357132Y38082868D01*
X28445000Y37870736D02*
X28445000Y36720000D01*
X28445025Y37870736D02*
G75*
G03*
X28357132Y38082868I-300025J-36D01*
G01*
D30*
X26838800Y42243800D02*
X27050000Y42455000D01*
X28095000Y42455000D02*
X28640000Y43000000D01*
X27260000Y40930000D02*
X26838800Y41351200D01*
X26838800Y41351200D02*
X26838800Y42243800D01*
X27050000Y42455000D02*
X28095000Y42455000D01*
D28*
X31570000Y45459620D02*
X31570000Y44400000D01*
X31149620Y45880000D02*
X31570000Y45459620D01*
X31090000Y45880000D02*
X31149620Y45880000D01*
D30*
X32395834Y50635834D02*
X32400000Y50640000D01*
X32395834Y50631692D02*
X32395834Y50635834D01*
X28922484Y45832484D02*
X28500000Y45410000D01*
X28922484Y46221025D02*
X28922484Y45832484D01*
X28922484Y46221025D02*
X29381459Y46680000D01*
X29381459Y46680000D02*
X29490000Y46680000D01*
D29*
X28310000Y41007707D02*
X28310000Y41280000D01*
X28372332Y40945375D02*
X28310000Y41007707D01*
X29145500Y47390500D02*
X29179500Y47390500D01*
X29179500Y47390500D02*
X29490000Y47080000D01*
D30*
X27260000Y37900000D02*
X26760000Y37400000D01*
X26760000Y37150000D02*
X26265000Y36655000D01*
X27260000Y38130000D02*
X27260000Y37900000D01*
X26760000Y37400000D02*
X26760000Y37150000D01*
X25720000Y37300000D02*
X25550000Y37130000D01*
X27020000Y37980000D02*
X26340000Y37300000D01*
X27020000Y38250000D02*
X27020000Y37980000D01*
X25550000Y37130000D02*
X25550000Y36000000D01*
X25155000Y35605000D02*
X24915000Y35605000D01*
X27260000Y38480000D02*
X27250000Y38480000D01*
X25550000Y36000000D02*
X25155000Y35605000D01*
X26340000Y37300000D02*
X25720000Y37300000D01*
X27250000Y38480000D02*
X27020000Y38250000D01*
X28802762Y40942397D02*
X28660000Y41085159D01*
X28660000Y41085159D02*
X28660000Y41280000D01*
D29*
X30009500Y45039938D02*
X30009500Y45350378D01*
X30009500Y45350378D02*
X29890000Y45469878D01*
X29890000Y45469878D02*
X29890000Y45480000D01*
X29398653Y46280000D02*
X29217484Y46098831D01*
D30*
X29702071Y39671302D02*
X29702071Y39375123D01*
X29702071Y39375123D02*
X29897194Y39180000D01*
D29*
X29490000Y46280000D02*
X29398653Y46280000D01*
D30*
X29897194Y39180000D02*
X30060000Y39180000D01*
X32200000Y48850000D02*
X32200000Y48915000D01*
X32402741Y48647259D02*
X32200000Y48850000D01*
X29740914Y40059086D02*
X29709999Y40059086D01*
X29920000Y39880000D02*
X29740914Y40059086D01*
X32402741Y48462741D02*
X32402741Y48647259D01*
X30060000Y39880000D02*
X29920000Y39880000D01*
X31045000Y42265000D02*
X30760000Y41980000D01*
X32065500Y42152614D02*
X31953114Y42265000D01*
X31953114Y42265000D02*
X31045000Y42265000D01*
X32853992Y49950000D02*
X32400000Y49950000D01*
X32963992Y50060000D02*
X32853992Y49950000D01*
X30538800Y39051200D02*
X30410000Y39180000D01*
D29*
X29140000Y45250000D02*
X29140000Y45530000D01*
D30*
X31230000Y39130000D02*
X31021625Y38921625D01*
X30851625Y39051200D02*
X30538800Y39051200D01*
X30981200Y38921625D02*
X30851625Y39051200D01*
D29*
X29140000Y45530000D02*
X29490000Y45880000D01*
D30*
X31021625Y38921625D02*
X30981200Y38921625D01*
X31420189Y39469911D02*
X31153178Y39469911D01*
X30934467Y39251200D02*
X30688800Y39251200D01*
X30688800Y39251200D02*
X30410000Y39530000D01*
X31000000Y50295000D02*
X31000000Y50300000D01*
X31153178Y39469911D02*
X30934467Y39251200D01*
X30984713Y40451200D02*
X30994104Y40441809D01*
X30631200Y40451200D02*
X30984713Y40451200D01*
X30410000Y40230000D02*
X30631200Y40451200D01*
X30791301Y40656200D02*
X30871910Y40736809D01*
X30968874Y40736809D02*
X31058086Y40826021D01*
X32956291Y49655950D02*
X32905341Y49605000D01*
X30410000Y40580000D02*
X30486200Y40656200D01*
X30871910Y40736809D02*
X30968874Y40736809D01*
X32905341Y49605000D02*
X32600000Y49605000D01*
X30486200Y40656200D02*
X30791301Y40656200D01*
X32400000Y49260000D02*
X32900498Y49260000D01*
X31168269Y41593497D02*
X31074174Y41499402D01*
X30979402Y41499402D02*
X30410000Y40930000D01*
X32900498Y49260000D02*
X32920498Y49240000D01*
X31074174Y41499402D02*
X30979402Y41499402D01*
X32200000Y49605000D02*
X32200000Y49610000D01*
X31084502Y38590000D02*
X30974502Y38480000D01*
X30974502Y38480000D02*
X30410000Y38480000D01*
X30879522Y40047312D02*
X30879522Y40110478D01*
X30879522Y40110478D02*
X30760000Y40230000D01*
X32000000Y49950000D02*
X32000000Y49944814D01*
X32000000Y49944814D02*
X31998543Y49943357D01*
X30760000Y40945129D02*
X30867436Y41052565D01*
X30867436Y41052565D02*
X31019273Y41204402D01*
X31019273Y41204402D02*
X31150500Y41204402D01*
X30760000Y40930000D02*
X30760000Y40945129D01*
X30060000Y40580000D02*
X29749359Y40580000D01*
X32870019Y50684500D02*
X32600000Y50414481D01*
X32600000Y50414481D02*
X32600000Y50295000D01*
X29749359Y40580000D02*
X29739885Y40570526D01*
D28*
X29604168Y47755000D02*
X28865000Y47755000D01*
X29890000Y47469168D02*
X29604168Y47755000D01*
X28600000Y47490000D02*
X28600000Y46860000D01*
X29890000Y46680000D02*
X29890000Y47469168D01*
X28865000Y47755000D02*
X28600000Y47490000D01*
D30*
X29660212Y40961243D02*
X29360000Y41261455D01*
X29360000Y41261455D02*
X29360000Y41280000D01*
G04 #@! TA.AperFunction,Conductor*
G36*
X24125765Y38250315D02*
G01*
X24146407Y38233681D01*
X24347631Y38032458D01*
X24359503Y38020586D01*
X24359511Y38020581D01*
X24364223Y38019319D01*
X24394112Y38006938D01*
X24398333Y38004501D01*
X24402572Y38004500D01*
X24419527Y38004500D01*
X24419530Y38004500D01*
X24419531Y38004500D01*
X25518066Y38004500D01*
X25518082Y38004501D01*
X25531666Y38004501D01*
X25531670Y38004502D01*
X25535886Y38006936D01*
X25565783Y38019320D01*
X25570486Y38020580D01*
X25570490Y38020582D01*
X25570492Y38020583D01*
X25580091Y38030182D01*
X25580108Y38030197D01*
X25650444Y38100534D01*
X25711767Y38134019D01*
X25738126Y38136853D01*
X25796000Y38136853D01*
X25863039Y38117168D01*
X25908794Y38064364D01*
X25920000Y38012853D01*
X25920000Y37579500D01*
X25900315Y37512461D01*
X25847511Y37466706D01*
X25796000Y37455500D01*
X25691934Y37455500D01*
X25691918Y37455499D01*
X25678334Y37455499D01*
X25674117Y37453064D01*
X25644209Y37440676D01*
X25639508Y37439417D01*
X25624520Y37424430D01*
X25624519Y37424429D01*
X25425570Y37225481D01*
X25420197Y37220108D01*
X25420182Y37220091D01*
X25410583Y37210492D01*
X25410582Y37210489D01*
X25409321Y37205783D01*
X25396936Y37175884D01*
X25394501Y37171666D01*
X25394500Y37150468D01*
X25394500Y36244000D01*
X25374815Y36176961D01*
X25322011Y36131206D01*
X25270500Y36120000D01*
X24431440Y36120000D01*
X24364401Y36139685D01*
X24318646Y36192489D01*
X24308702Y36261647D01*
X24312463Y36278934D01*
X24345970Y36393053D01*
X24345971Y36393055D01*
X24345971Y36536979D01*
X24345970Y36536980D01*
X24305425Y36675067D01*
X24305424Y36675067D01*
X24305424Y36675070D01*
X24227614Y36796145D01*
X24118844Y36890394D01*
X23987928Y36950182D01*
X23881270Y36965517D01*
X23809672Y36965517D01*
X23703014Y36950182D01*
X23572098Y36890394D01*
X23463328Y36796145D01*
X23463327Y36796143D01*
X23385516Y36675067D01*
X23344971Y36536980D01*
X23344971Y36393053D01*
X23378479Y36278934D01*
X23378479Y36209065D01*
X23340704Y36150287D01*
X23277148Y36121262D01*
X23259502Y36120000D01*
X23044000Y36120000D01*
X22976961Y36139685D01*
X22931206Y36192489D01*
X22920000Y36244000D01*
X22920000Y37020053D01*
X22939685Y37087092D01*
X22980147Y37123703D01*
X22979473Y37124632D01*
X22987363Y37130364D01*
X22987365Y37130365D01*
X22987366Y37130366D01*
X22987370Y37130369D01*
X23065868Y37208867D01*
X23065870Y37208870D01*
X23065873Y37208873D01*
X23116278Y37307799D01*
X23116279Y37307801D01*
X23133647Y37417457D01*
X23133647Y37417462D01*
X23116279Y37527118D01*
X23116278Y37527119D01*
X23116278Y37527121D01*
X23065873Y37626047D01*
X22987365Y37704555D01*
X22987358Y37704558D01*
X22979468Y37710292D01*
X22980273Y37711401D01*
X22936913Y37752350D01*
X22920000Y37814866D01*
X22920000Y38146000D01*
X22939685Y38213039D01*
X22992489Y38258794D01*
X23044000Y38270000D01*
X24058726Y38270000D01*
X24125765Y38250315D01*
G37*
G04 #@! TD.AperFunction*
G04 #@! TA.AperFunction,Conductor*
G36*
X28695050Y40710561D02*
G01*
X28705022Y40706430D01*
X28802760Y40686989D01*
X28802762Y40686989D01*
X28802764Y40686989D01*
X28900501Y40706430D01*
X28910474Y40710561D01*
X28957926Y40720000D01*
X29139300Y40720000D01*
X29163492Y40717617D01*
X29248939Y40700620D01*
X29248940Y40700620D01*
X29248941Y40700620D01*
X29334388Y40717617D01*
X29358580Y40720000D01*
X29363115Y40720000D01*
X29430154Y40700315D01*
X29475909Y40647511D01*
X29485853Y40578353D01*
X29484732Y40571807D01*
X29484477Y40570525D01*
X29484477Y40570523D01*
X29503917Y40472791D01*
X29508592Y40461506D01*
X29505318Y40460150D01*
X29519981Y40413294D01*
X29520000Y40411104D01*
X29520000Y40263234D01*
X29500315Y40196195D01*
X29499200Y40194492D01*
X29474033Y40156826D01*
X29474032Y40156824D01*
X29474031Y40156822D01*
X29474031Y40156821D01*
X29454591Y40059088D01*
X29454591Y40059083D01*
X29474032Y39961346D01*
X29488286Y39940013D01*
X29509162Y39873335D01*
X29490676Y39805955D01*
X29488314Y39802281D01*
X29470923Y39776253D01*
X29466104Y39769041D01*
X29466103Y39769037D01*
X29446663Y39671304D01*
X29446663Y39671299D01*
X29466104Y39573562D01*
X29499103Y39524175D01*
X29519980Y39457498D01*
X29520000Y39455286D01*
X29520000Y39444000D01*
X29500315Y39376961D01*
X29447511Y39331206D01*
X29396000Y39320000D01*
X28806143Y39320000D01*
X28739104Y39339685D01*
X28737255Y39340896D01*
X28733651Y39343303D01*
X28728945Y39346448D01*
X28697092Y39352784D01*
X28660002Y39360162D01*
X28659998Y39360162D01*
X28591055Y39346448D01*
X28582745Y39340896D01*
X28521821Y39321821D01*
X28517447Y39317447D01*
X28500315Y39259102D01*
X28499126Y39257287D01*
X28493552Y39248945D01*
X28493552Y39248944D01*
X28493550Y39248940D01*
X28479838Y39180002D01*
X28479838Y39179997D01*
X28493551Y39111055D01*
X28499104Y39102745D01*
X28519980Y39036068D01*
X28520000Y39033857D01*
X28520000Y38976141D01*
X28500315Y38909102D01*
X28499126Y38907287D01*
X28493552Y38898945D01*
X28493552Y38898944D01*
X28493550Y38898940D01*
X28479838Y38830002D01*
X28479838Y38830001D01*
X28485805Y38800002D01*
X28479576Y38730411D01*
X28436713Y38675234D01*
X28370823Y38651990D01*
X28340000Y38654194D01*
X28310000Y38660162D01*
X28309997Y38660161D01*
X28308501Y38660459D01*
X28304990Y38660778D01*
X28299089Y38660421D01*
X28299086Y38660422D01*
X28287491Y38656808D01*
X28283779Y38655652D01*
X28271082Y38652420D01*
X28241055Y38646448D01*
X28241053Y38646447D01*
X28230905Y38642243D01*
X28221814Y38637902D01*
X28216492Y38634684D01*
X28216490Y38634684D01*
X28216488Y38634682D01*
X28211114Y38629308D01*
X28192323Y38613886D01*
X28182606Y38607394D01*
X28182605Y38607393D01*
X28176111Y38597674D01*
X28160690Y38578884D01*
X27988125Y38406319D01*
X27926802Y38372834D01*
X27900444Y38370000D01*
X27644000Y38370000D01*
X27576961Y38389685D01*
X27531206Y38442489D01*
X27520000Y38494000D01*
X27520000Y38796000D01*
X27539685Y38863039D01*
X27592489Y38908794D01*
X27644000Y38920000D01*
X28070000Y38920000D01*
X28070000Y38988959D01*
X28089685Y39055998D01*
X28090898Y39057850D01*
X28126448Y39111054D01*
X28126448Y39111055D01*
X28140162Y39179997D01*
X28140162Y39180002D01*
X28126448Y39248944D01*
X28126448Y39248945D01*
X28101617Y39286107D01*
X28080738Y39352784D01*
X28099222Y39420164D01*
X28101616Y39423889D01*
X28126447Y39461051D01*
X28126448Y39461055D01*
X28140162Y39529997D01*
X28140162Y39530002D01*
X28126448Y39598944D01*
X28126448Y39598945D01*
X28101617Y39636107D01*
X28080738Y39702784D01*
X28099222Y39770164D01*
X28101616Y39773889D01*
X28126447Y39811051D01*
X28126448Y39811055D01*
X28140162Y39879997D01*
X28140162Y39880002D01*
X28126448Y39948944D01*
X28126448Y39948945D01*
X28101617Y39986107D01*
X28080738Y40052784D01*
X28099222Y40120164D01*
X28101616Y40123889D01*
X28126447Y40161051D01*
X28126448Y40161055D01*
X28140162Y40229997D01*
X28140162Y40230002D01*
X28126448Y40298944D01*
X28126448Y40298945D01*
X28117870Y40311783D01*
X28101616Y40336108D01*
X28080738Y40402784D01*
X28099222Y40470164D01*
X28101616Y40473889D01*
X28126447Y40511051D01*
X28126448Y40511055D01*
X28140162Y40579997D01*
X28140162Y40585054D01*
X28159847Y40652093D01*
X28212651Y40697848D01*
X28281809Y40707792D01*
X28288353Y40706671D01*
X28372330Y40689967D01*
X28372332Y40689967D01*
X28372334Y40689967D01*
X28470069Y40709407D01*
X28472853Y40710561D01*
X28520306Y40720000D01*
X28647598Y40720000D01*
X28695050Y40710561D01*
G37*
G04 #@! TD.AperFunction*
G04 #@! TA.AperFunction,Conductor*
G36*
X27106454Y44126479D02*
G01*
X27156448Y44026078D01*
X27239334Y43950516D01*
X27321007Y43918876D01*
X27092104Y43689972D01*
X27092104Y43689971D01*
X27097410Y43685901D01*
X27110538Y43680464D01*
X27157064Y43640727D01*
X27171347Y43581232D01*
X27147932Y43524704D01*
X27095763Y43492735D01*
X27072652Y43490000D01*
X26801008Y43490000D01*
X26742817Y43508907D01*
X26731005Y43518996D01*
X26562281Y43687719D01*
X26534503Y43742236D01*
X26544074Y43802668D01*
X26545287Y43804972D01*
X26657879Y44012284D01*
X26702266Y44054396D01*
X26762928Y44062375D01*
X26816696Y44033174D01*
X26836340Y44002921D01*
X26875901Y43907410D01*
X26879971Y43902104D01*
X27106275Y44128407D01*
X27106454Y44126479D01*
G37*
G04 #@! TD.AperFunction*
G04 #@! TA.AperFunction,Conductor*
G36*
X29592288Y44890383D02*
G01*
X29650404Y44871248D01*
X29686174Y44821607D01*
X29690896Y44792292D01*
X29699083Y43899908D01*
X29680710Y43841546D01*
X29631542Y43805130D01*
X29600087Y43800000D01*
X29019999Y43800000D01*
X29008185Y43670037D01*
X28984088Y43613797D01*
X28931535Y43582462D01*
X28909592Y43580000D01*
X28267441Y43580000D01*
X28209250Y43598907D01*
X28181704Y43629501D01*
X28159628Y43667738D01*
X28071370Y43741795D01*
X27980956Y43774702D01*
X27932744Y43812371D01*
X27915879Y43871186D01*
X27923355Y43905616D01*
X27984555Y44053369D01*
X27984556Y44053369D01*
X28005177Y44209999D01*
X28005177Y44210000D01*
X27984556Y44366627D01*
X27984554Y44366635D01*
X27924099Y44512587D01*
X27920026Y44517893D01*
X27693724Y44291592D01*
X27693546Y44293521D01*
X27643552Y44393922D01*
X27560666Y44469484D01*
X27478992Y44501123D01*
X27707895Y44730026D01*
X27707240Y44740012D01*
X27686378Y44770372D01*
X27687983Y44831536D01*
X27725233Y44880076D01*
X27781691Y44897483D01*
X29592288Y44890383D01*
G37*
G04 #@! TD.AperFunction*
G04 #@! TA.AperFunction,Conductor*
G36*
X30757539Y44850315D02*
G01*
X30803294Y44797511D01*
X30814500Y44746000D01*
X30814500Y43144000D01*
X30794815Y43076961D01*
X30742011Y43031206D01*
X30690500Y43020000D01*
X29870000Y43020000D01*
X29870000Y42344000D01*
X29850315Y42276961D01*
X29797511Y42231206D01*
X29746000Y42220000D01*
X29294000Y42220000D01*
X29226961Y42239685D01*
X29181206Y42292489D01*
X29170000Y42344000D01*
X29170000Y43496000D01*
X29189685Y43563039D01*
X29242489Y43608794D01*
X29294000Y43620000D01*
X29870000Y43620000D01*
X29870000Y44661183D01*
X29889685Y44728222D01*
X29942489Y44773977D01*
X29997287Y44781856D01*
X29997287Y44784530D01*
X30009502Y44784530D01*
X30107238Y44803971D01*
X30107239Y44803971D01*
X30107240Y44803972D01*
X30174784Y44849103D01*
X30241462Y44869980D01*
X30243674Y44870000D01*
X30690500Y44870000D01*
X30757539Y44850315D01*
G37*
G04 #@! TD.AperFunction*
G04 #@! TA.AperFunction,Conductor*
G36*
X31256391Y45450315D02*
G01*
X31277033Y45433681D01*
X31308181Y45402533D01*
X31341666Y45341210D01*
X31344500Y45314852D01*
X31344500Y45019051D01*
X31324815Y44952012D01*
X31272011Y44906257D01*
X31244690Y44897433D01*
X31230787Y44894669D01*
X31230786Y44894668D01*
X31197542Y44872457D01*
X31175332Y44839214D01*
X31175329Y44839208D01*
X31169500Y44809901D01*
X31169500Y43990105D01*
X31169501Y43990097D01*
X31175330Y43960787D01*
X31197542Y43927542D01*
X31230785Y43905332D01*
X31230791Y43905329D01*
X31260099Y43899500D01*
X31260101Y43899500D01*
X31879894Y43899500D01*
X31879902Y43899501D01*
X31909212Y43905330D01*
X31942457Y43927542D01*
X31953599Y43944219D01*
X31964669Y43960787D01*
X31964670Y43960791D01*
X31970500Y43990099D01*
X31971097Y43996161D01*
X31973574Y43995917D01*
X31990139Y44052469D01*
X32042912Y44098260D01*
X32094499Y44109500D01*
X32839894Y44109500D01*
X32839902Y44109501D01*
X32869212Y44115330D01*
X32902457Y44137542D01*
X32907612Y44145258D01*
X32956303Y44185952D01*
X32953799Y44187905D01*
X32930666Y44253834D01*
X32930499Y44260226D01*
X32930499Y44819898D01*
X32924669Y44849213D01*
X32902457Y44882457D01*
X32869213Y44904669D01*
X32869205Y44904670D01*
X32866609Y44905747D01*
X32861804Y44909618D01*
X32859059Y44911453D01*
X32859223Y44911698D01*
X32812205Y44949588D01*
X32792769Y44994531D01*
X32791077Y45002492D01*
X32790607Y45004704D01*
X32789482Y45006252D01*
X32774033Y45034702D01*
X32773346Y45036495D01*
X32758894Y45050945D01*
X32746274Y45065721D01*
X32734260Y45082259D01*
X32732595Y45083219D01*
X32706920Y45102919D01*
X32551518Y45258321D01*
X32518036Y45319642D01*
X32523020Y45389334D01*
X32564892Y45445267D01*
X32630356Y45469684D01*
X32639202Y45470000D01*
X33310041Y45470000D01*
X33377080Y45450315D01*
X33422835Y45397511D01*
X33432779Y45328353D01*
X33431480Y45320928D01*
X33412111Y45227113D01*
X33411300Y45223464D01*
X33175127Y44231540D01*
X33140450Y44170883D01*
X33103930Y44151859D01*
X33130297Y44109179D01*
X33131344Y44047649D01*
X32734995Y42382983D01*
X32734182Y42379761D01*
X32694106Y42229442D01*
X32693520Y42227319D01*
X32566461Y41782616D01*
X32566089Y41781339D01*
X32437514Y41348945D01*
X32361766Y41094206D01*
X32336327Y41008657D01*
X32298351Y40950009D01*
X32234696Y40921202D01*
X32217470Y40920000D01*
X31494000Y40920000D01*
X31426961Y40939685D01*
X31381206Y40992489D01*
X31370000Y41044000D01*
X31370000Y41044403D01*
X31384624Y41094206D01*
X31381793Y41095379D01*
X31386466Y41106662D01*
X31405908Y41204399D01*
X31405908Y41204404D01*
X31386467Y41302137D01*
X31386466Y41302137D01*
X31386466Y41302142D01*
X31386463Y41302146D01*
X31381793Y41313422D01*
X31384887Y41314704D01*
X31370020Y41362177D01*
X31370000Y41364399D01*
X31370000Y41406905D01*
X31389685Y41473944D01*
X31390897Y41475794D01*
X31404234Y41495755D01*
X31404235Y41495757D01*
X31423677Y41593497D01*
X31423676Y41593500D01*
X31425162Y41600969D01*
X31457547Y41662881D01*
X31518263Y41697455D01*
X31588032Y41693716D01*
X31615669Y41679882D01*
X31678175Y41638118D01*
X31775913Y41618677D01*
X31775915Y41618677D01*
X31775917Y41618677D01*
X31873653Y41638118D01*
X31873654Y41638118D01*
X31873655Y41638119D01*
X31956516Y41693484D01*
X32011881Y41776345D01*
X32018539Y41809818D01*
X32050923Y41871727D01*
X32111638Y41906302D01*
X32115963Y41907243D01*
X32163238Y41916647D01*
X32163239Y41916647D01*
X32163240Y41916648D01*
X32246101Y41972013D01*
X32301466Y42054874D01*
X32311913Y42107394D01*
X32320908Y42152611D01*
X32320908Y42152616D01*
X32306048Y42227319D01*
X32301466Y42250354D01*
X32246101Y42333215D01*
X32163240Y42388580D01*
X32095111Y42402132D01*
X32065502Y42408022D01*
X32053287Y42408022D01*
X32053287Y42411784D01*
X32005187Y42416076D01*
X31997549Y42419757D01*
X31994781Y42420499D01*
X31994780Y42420499D01*
X31988026Y42420499D01*
X31988018Y42420500D01*
X31973584Y42420500D01*
X31024530Y42420500D01*
X31016934Y42420500D01*
X31016918Y42420499D01*
X31003334Y42420499D01*
X30999112Y42418061D01*
X30969211Y42405677D01*
X30964508Y42404417D01*
X30964507Y42404416D01*
X30964506Y42404416D01*
X30956595Y42396504D01*
X30956583Y42396494D01*
X30766408Y42206319D01*
X30705085Y42172834D01*
X30678727Y42170000D01*
X30194000Y42170000D01*
X30126961Y42189685D01*
X30081206Y42242489D01*
X30070000Y42294000D01*
X30070000Y42746000D01*
X30089685Y42813039D01*
X30142489Y42858794D01*
X30194000Y42870000D01*
X30920000Y42870000D01*
X30920000Y44920906D01*
X30920484Y44927067D01*
X30920171Y44933045D01*
X30920000Y44939547D01*
X30920000Y45346000D01*
X30939685Y45413039D01*
X30992489Y45458794D01*
X31044000Y45470000D01*
X31189352Y45470000D01*
X31256391Y45450315D01*
G37*
G04 #@! TD.AperFunction*
G04 #@! TA.AperFunction,Conductor*
G36*
X31462940Y46749849D02*
G01*
X31519612Y46708983D01*
X31535630Y46677684D01*
X31536362Y46678018D01*
X31540046Y46669951D01*
X31617857Y46548874D01*
X31726627Y46454624D01*
X31726629Y46454623D01*
X31857544Y46394835D01*
X31950795Y46381428D01*
X31964202Y46379501D01*
X31964203Y46379501D01*
X32035798Y46379501D01*
X32035800Y46379501D01*
X32062612Y46383356D01*
X32142457Y46394835D01*
X32273372Y46454623D01*
X32273374Y46454624D01*
X32314227Y46490023D01*
X32382144Y46548873D01*
X32439447Y46638039D01*
X32492251Y46683794D01*
X32543763Y46695000D01*
X33096000Y46695000D01*
X33163039Y46675315D01*
X33208794Y46622511D01*
X33220000Y46571000D01*
X33220000Y46019000D01*
X33200315Y45951961D01*
X33147511Y45906206D01*
X33096000Y45895000D01*
X31966202Y45895000D01*
X31899163Y45914685D01*
X31878521Y45931319D01*
X31645109Y46164731D01*
X31376850Y46432989D01*
X31372398Y46437682D01*
X31346443Y46466509D01*
X31346438Y46466511D01*
X31337020Y46473355D01*
X31294353Y46528685D01*
X31288287Y46597865D01*
X31300070Y46657103D01*
X31332454Y46719014D01*
X31393170Y46753588D01*
X31462940Y46749849D01*
G37*
G04 #@! TD.AperFunction*
G04 #@! TA.AperFunction,Conductor*
G36*
X31427612Y47500315D02*
G01*
X31473367Y47447511D01*
X31475944Y47441449D01*
X31562855Y47220828D01*
X31569112Y47151239D01*
X31551799Y47108339D01*
X31540046Y47090052D01*
X31536362Y47081984D01*
X31534637Y47082771D01*
X31502877Y47033365D01*
X31439318Y47004348D01*
X31370161Y47014300D01*
X31317362Y47060061D01*
X31300070Y47102893D01*
X31288287Y47162133D01*
X31241762Y47231762D01*
X31172133Y47278287D01*
X31172129Y47278287D01*
X31171550Y47278528D01*
X31170468Y47279399D01*
X31161979Y47285072D01*
X31162486Y47285831D01*
X31117145Y47322368D01*
X31095079Y47388661D01*
X31095000Y47393090D01*
X31095000Y47396000D01*
X31114685Y47463039D01*
X31167489Y47508794D01*
X31219000Y47520000D01*
X31360573Y47520000D01*
X31427612Y47500315D01*
G37*
G04 #@! TD.AperFunction*
G04 #@! TA.AperFunction,Conductor*
G36*
X27713039Y37370315D02*
G01*
X27758794Y37317511D01*
X27768046Y37274978D01*
X27769577Y37275105D01*
X27769999Y37270005D01*
X27819586Y36972481D01*
X27820315Y36967477D01*
X27839845Y36811241D01*
X27840122Y36808841D01*
X27859319Y36626469D01*
X27860000Y36613488D01*
X27860000Y36040000D01*
X27992828Y35873965D01*
X28019336Y35809319D01*
X28020000Y35796503D01*
X28020000Y35611149D01*
X28000315Y35544110D01*
X27947511Y35498355D01*
X27898884Y35487183D01*
X27616538Y35480617D01*
X27565537Y35490299D01*
X27400000Y35560000D01*
X27200000Y35550000D01*
X27019999Y35369999D01*
X26992267Y35286804D01*
X26952393Y35229430D01*
X26901219Y35204901D01*
X26710584Y35163055D01*
X26640886Y35167908D01*
X26584873Y35209673D01*
X26560333Y35275092D01*
X26560000Y35284171D01*
X26560000Y35812788D01*
X26579685Y35879827D01*
X26632489Y35925582D01*
X26677025Y35936592D01*
X27270000Y35970000D01*
X27270000Y36569999D01*
X27241766Y36626469D01*
X27233090Y36643818D01*
X27220000Y36699272D01*
X27220000Y36734436D01*
X27238848Y36800156D01*
X27470000Y37170000D01*
X27470000Y37266000D01*
X27489685Y37333039D01*
X27542489Y37378794D01*
X27594000Y37390000D01*
X27646000Y37390000D01*
X27713039Y37370315D01*
G37*
G04 #@! TD.AperFunction*
M02*
