G04 #@! TF.GenerationSoftware,KiCad,Pcbnew,7.0.10-7.0.10~ubuntu20.04.1*
G04 #@! TF.CreationDate,2024-01-02T22:15:02+00:00*
G04 #@! TF.ProjectId,yote,796f7465-2e6b-4696-9361-645f70636258,rev?*
G04 #@! TF.SameCoordinates,Original*
G04 #@! TF.FileFunction,Copper,L3,Inr*
G04 #@! TF.FilePolarity,Positive*
%FSLAX46Y46*%
G04 Gerber Fmt 4.6, Leading zero omitted, Abs format (unit mm)*
G04 Created by KiCad (PCBNEW 7.0.10-7.0.10~ubuntu20.04.1) date 2024-01-02 22:15:02*
%MOMM*%
%LPD*%
G01*
G04 APERTURE LIST*
G04 #@! TA.AperFunction,ViaPad*
%ADD10C,0.500000*%
G04 #@! TD*
G04 #@! TA.AperFunction,ViaPad*
%ADD11C,0.300000*%
G04 #@! TD*
G04 #@! TA.AperFunction,Conductor*
%ADD12C,0.250000*%
G04 #@! TD*
G04 #@! TA.AperFunction,Conductor*
%ADD13C,0.150000*%
G04 #@! TD*
G04 #@! TA.AperFunction,Conductor*
%ADD14C,0.110000*%
G04 #@! TD*
G04 APERTURE END LIST*
D10*
X31191720Y53057377D03*
D11*
X32000000Y52020000D03*
X28802762Y40942397D03*
X30009500Y45039938D03*
X29702071Y39671302D03*
X29217484Y46098831D03*
X29709999Y40059086D03*
X32402741Y48462741D03*
X32065500Y42152614D03*
X32963992Y50060000D03*
X32200000Y50295000D03*
X30060000Y40930000D03*
X29140000Y45250000D03*
X31230000Y39130000D03*
X30994104Y40441809D03*
X32000000Y50640000D03*
X31058086Y40826021D03*
X32956291Y49655950D03*
X32920498Y49240000D03*
X31168269Y41593497D03*
X32200000Y49610000D03*
X31084502Y38590000D03*
X30879522Y40047312D03*
X31998543Y49943357D03*
X31150500Y41204402D03*
X31800000Y49605000D03*
D12*
X32000000Y52249097D02*
X32000000Y52020000D01*
X31191720Y53057377D02*
X32000000Y52249097D01*
D13*
X32000000Y52020000D02*
X32000000Y52065478D01*
D14*
X28802762Y41014472D02*
X28802762Y40942397D01*
X30009500Y44834500D02*
X29545000Y44370000D01*
X30009500Y45039938D02*
X30009500Y44834500D01*
X29545000Y41756710D02*
X28802762Y41014472D01*
X29545000Y44370000D02*
X29545000Y41756710D01*
X29195000Y44445000D02*
X29670000Y44920000D01*
X28175684Y39050000D02*
X27945000Y39280684D01*
X29195000Y42295000D02*
X29195000Y44445000D01*
X29670000Y45646315D02*
X29217484Y46098831D01*
X29670000Y44920000D02*
X29670000Y45646315D01*
X29286285Y39050000D02*
X28175684Y39050000D01*
X29702071Y39465786D02*
X29286285Y39050000D01*
X29702071Y39671302D02*
X29702071Y39465786D01*
X27945000Y39280684D02*
X27945000Y41045000D01*
X27945000Y41045000D02*
X29195000Y42295000D01*
X29799085Y39970000D02*
X29709999Y40059086D01*
X30235000Y41270000D02*
X30380000Y41125000D01*
X31304501Y47700318D02*
X31131695Y47527512D01*
X31131695Y47527512D02*
X31127512Y47527512D01*
X30175000Y39970000D02*
X29799085Y39970000D01*
X30235000Y42669043D02*
X30235000Y41270000D01*
X30639500Y43073543D02*
X30235000Y42669043D01*
X32000000Y48060000D02*
X31660000Y48060000D01*
X30639500Y43509500D02*
X30639500Y43073543D01*
X31660000Y48060000D02*
X31304501Y47704501D01*
X31304501Y47704501D02*
X31304501Y47700318D01*
X30920000Y47320000D02*
X30920000Y43790000D01*
X30380000Y41125000D02*
X30380000Y40175000D01*
X30920000Y43790000D02*
X30639500Y43509500D01*
X31127512Y47527512D02*
X30920000Y47320000D01*
X32402741Y48462741D02*
X32000000Y48060000D01*
X30380000Y40175000D02*
X30175000Y39970000D01*
X33080000Y46416206D02*
X32470000Y45806206D01*
X33073042Y49950950D02*
X33078485Y49950950D01*
X33267806Y47695000D02*
X33080000Y47507194D01*
X32963992Y50060000D02*
X33073042Y49950950D01*
X33628385Y48048385D02*
X33275000Y47695000D01*
X32065500Y42256913D02*
X32065500Y42152614D01*
X33680000Y48409717D02*
X33628385Y48048385D01*
X33275000Y47695000D02*
X33267806Y47695000D01*
X33078485Y49950950D02*
X33411757Y49617678D01*
X33411757Y49514563D02*
X33680000Y49246320D01*
X32470000Y45806206D02*
X32470000Y42661413D01*
X33080000Y47507194D02*
X33080000Y46416206D01*
X32470000Y42661413D02*
X32065500Y42256913D01*
X33411757Y49617678D02*
X33411757Y49514563D01*
X33680000Y49246320D02*
X33680000Y48409717D01*
X29930000Y42646885D02*
X30439500Y43156385D01*
X30670000Y49170000D02*
X31795000Y50295000D01*
X31795000Y50295000D02*
X32200000Y50295000D01*
X30439500Y43764500D02*
X30670000Y43995000D01*
X30060000Y40930000D02*
X30060000Y40978649D01*
X30439500Y43156385D02*
X30439500Y43764500D01*
X30060000Y40978649D02*
X29930000Y41108649D01*
X30670000Y43995000D02*
X30670000Y49170000D01*
X29930000Y41108649D02*
X29930000Y42646885D01*
X27370000Y38895000D02*
X27870000Y38395000D01*
X27870000Y38395000D02*
X30472308Y38395000D01*
X28570000Y43145000D02*
X27370000Y41945000D01*
X29140000Y45250000D02*
X28570000Y44680000D01*
X30472308Y38395000D02*
X31207308Y39130000D01*
X31207308Y39130000D02*
X31230000Y39130000D01*
X28570000Y44680000D02*
X28570000Y43145000D01*
X27370000Y41945000D02*
X27370000Y38895000D01*
X28870000Y44562806D02*
X29435000Y45127806D01*
X29220000Y46585000D02*
X29960000Y46585000D01*
X31040881Y40441809D02*
X31307743Y40174947D01*
X30994104Y40441809D02*
X31040881Y40441809D01*
X28867168Y46232168D02*
X29220000Y46585000D01*
X29960000Y46585000D02*
X30270000Y46895000D01*
X31307743Y39874698D02*
X30128045Y38695000D01*
X31827580Y50640000D02*
X32000000Y50640000D01*
X30270000Y49082420D02*
X31827580Y50640000D01*
X30128045Y38695000D02*
X28070000Y38695000D01*
X27645000Y39120000D02*
X27645000Y41195000D01*
X31307743Y40174947D02*
X31307743Y39874698D01*
X28070000Y38695000D02*
X27645000Y39120000D01*
X28870000Y42420000D02*
X28870000Y44562806D01*
X29435000Y45127806D02*
X29435000Y45372194D01*
X27645000Y41195000D02*
X28870000Y42420000D01*
X29435000Y45372194D02*
X28867168Y45940026D01*
X30270000Y46895000D02*
X30270000Y49082420D01*
X28867168Y45940026D02*
X28867168Y46232168D01*
X33042692Y49535000D02*
X33380000Y49197692D01*
X32956291Y49655950D02*
X32956291Y49535000D01*
X31463269Y40953269D02*
X31336021Y40826021D01*
X32830000Y47624279D02*
X32830000Y46449047D01*
X32830000Y46449047D02*
X32195000Y45814047D01*
X32195000Y42787306D02*
X31463269Y42055575D01*
X32195000Y45814047D02*
X32195000Y42787306D01*
X33380000Y49197692D02*
X33380000Y48174279D01*
X31463269Y42055575D02*
X31463269Y40953269D01*
X32956291Y49535000D02*
X33042692Y49535000D01*
X33380000Y48174279D02*
X32830000Y47624279D01*
X31336021Y40826021D02*
X31058086Y40826021D01*
X31920000Y43455000D02*
X31920000Y45821890D01*
X33140000Y48217122D02*
X33140000Y49020498D01*
X31920000Y45821890D02*
X32590000Y46491890D01*
X31168269Y41593497D02*
X30995000Y41766766D01*
X30995000Y42530000D02*
X31920000Y43455000D01*
X33140000Y49020498D02*
X32920498Y49240000D01*
X32590000Y46491890D02*
X32590000Y47667122D01*
X30995000Y41766766D02*
X30995000Y42530000D01*
X32590000Y47667122D02*
X33140000Y48217122D01*
X32548300Y41914120D02*
X32889180Y43178199D01*
X34030503Y49729497D02*
X33370000Y50390000D01*
X31569535Y38919535D02*
X31735931Y39369036D01*
X32540000Y49950000D02*
X32200000Y49610000D01*
X33370000Y50390000D02*
X32800000Y50390000D01*
X32161449Y40635418D02*
X32548300Y41914120D01*
X32889180Y43178199D02*
X33196104Y44471413D01*
X31084502Y38590000D02*
X31240000Y38590000D01*
X32540000Y50130000D02*
X32540000Y49950000D01*
X31735931Y39369036D02*
X32161449Y40635418D01*
X33465891Y45784474D02*
X33695676Y47105144D01*
X33695676Y47105144D02*
X33885238Y48432175D01*
X33196104Y44471413D02*
X33465891Y45784474D01*
X32800000Y50390000D02*
X32540000Y50130000D01*
X33885238Y48432175D02*
X34030503Y49729497D01*
X31240000Y38590000D02*
X31569535Y38919535D01*
X30495000Y42646201D02*
X30839500Y42990701D01*
X30620000Y41270000D02*
X30495000Y41395000D01*
X30839500Y42990701D02*
X30839500Y43314500D01*
X30879522Y40139197D02*
X30620000Y40398719D01*
X31687080Y48712920D02*
X31505000Y48895000D01*
X31726163Y49943357D02*
X31998543Y49943357D01*
X30839500Y43314500D02*
X31195000Y43670000D01*
X30620000Y40398719D02*
X30620000Y41270000D01*
X30495000Y41395000D02*
X30495000Y42646201D01*
X32697741Y48340547D02*
X32697741Y48584935D01*
X31195000Y43670000D02*
X31195000Y47263988D01*
X32217194Y47860000D02*
X32697741Y48340547D01*
X32697741Y48584935D02*
X32524935Y48757741D01*
X31791012Y47860000D02*
X32217194Y47860000D01*
X31505000Y49722194D02*
X31726163Y49943357D01*
X32524935Y48757741D02*
X32280547Y48757741D01*
X32280547Y48757741D02*
X32235726Y48712920D01*
X32235726Y48712920D02*
X31687080Y48712920D01*
X30879522Y40047312D02*
X30879522Y40139197D01*
X31505000Y48895000D02*
X31505000Y49722194D01*
X31195000Y47263988D02*
X31791012Y47860000D01*
X31039500Y43089500D02*
X31039500Y42884500D01*
X31039500Y42884500D02*
X30745000Y42590000D01*
X32122194Y48965000D02*
X32207194Y49050000D01*
X31877806Y48965000D02*
X32122194Y48965000D01*
X31705000Y49510000D02*
X31705000Y49137806D01*
X32300036Y47660000D02*
X31960000Y47660000D01*
X31960000Y47660000D02*
X31432500Y47132500D01*
X32897741Y48792259D02*
X32897741Y48257705D01*
X32207194Y49050000D02*
X32640000Y49050000D01*
X31140170Y41204402D02*
X31150500Y41204402D01*
X31800000Y49605000D02*
X31705000Y49510000D01*
X30745000Y41599572D02*
X31140170Y41204402D01*
X31432500Y43482500D02*
X31039500Y43089500D01*
X30745000Y42590000D02*
X30745000Y41599572D01*
X32897741Y48257705D02*
X32300036Y47660000D01*
X32640000Y49050000D02*
X32897741Y48792259D01*
X31432500Y47132500D02*
X31432500Y43482500D01*
X31705000Y49137806D02*
X31877806Y48965000D01*
M02*
