G04 #@! TF.GenerationSoftware,KiCad,Pcbnew,7.0.10-7.0.10~ubuntu20.04.1*
G04 #@! TF.CreationDate,2024-01-02T22:15:02+00:00*
G04 #@! TF.ProjectId,yote,796f7465-2e6b-4696-9361-645f70636258,rev?*
G04 #@! TF.SameCoordinates,Original*
G04 #@! TF.FileFunction,Copper,L8,Bot*
G04 #@! TF.FilePolarity,Positive*
%FSLAX46Y46*%
G04 Gerber Fmt 4.6, Leading zero omitted, Abs format (unit mm)*
G04 Created by KiCad (PCBNEW 7.0.10-7.0.10~ubuntu20.04.1) date 2024-01-02 22:15:02*
%MOMM*%
%LPD*%
G01*
G04 APERTURE LIST*
G04 Aperture macros list*
%AMRoundRect*
0 Rectangle with rounded corners*
0 $1 Rounding radius*
0 $2 $3 $4 $5 $6 $7 $8 $9 X,Y pos of 4 corners*
0 Add a 4 corners polygon primitive as box body*
4,1,4,$2,$3,$4,$5,$6,$7,$8,$9,$2,$3,0*
0 Add four circle primitives for the rounded corners*
1,1,$1+$1,$2,$3*
1,1,$1+$1,$4,$5*
1,1,$1+$1,$6,$7*
1,1,$1+$1,$8,$9*
0 Add four rect primitives between the rounded corners*
20,1,$1+$1,$2,$3,$4,$5,0*
20,1,$1+$1,$4,$5,$6,$7,0*
20,1,$1+$1,$6,$7,$8,$9,0*
20,1,$1+$1,$8,$9,$2,$3,0*%
%AMFreePoly0*
4,1,59,-0.493204,1.039632,-0.294356,0.979312,-0.111096,0.881358,0.049533,0.749533,0.181358,0.588904,0.279312,0.405644,0.339632,0.206796,0.360000,0.000000,0.339632,-0.206796,0.279312,-0.405644,0.181358,-0.588904,0.049533,-0.749533,-0.111096,-0.881358,-0.294356,-0.979312,-0.493204,-1.039632,-0.700000,-1.060000,-0.906796,-1.039632,-1.105644,-0.979312,-1.288904,-0.881358,-1.449533,-0.749533,
-1.581358,-0.588904,-1.679312,-0.405644,-1.739632,-0.206796,-1.760000,0.000000,-1.264832,0.000000,-1.245586,-0.146189,-1.189159,-0.282416,-1.099397,-0.399397,-0.982416,-0.489159,-0.846189,-0.545586,-0.700000,-0.564832,-0.553811,-0.545586,-0.417584,-0.489159,-0.300603,-0.399397,-0.210841,-0.282416,-0.154414,-0.146189,-0.135168,0.000000,-0.154414,0.146189,-0.210841,0.282416,-0.300603,0.399397,
-0.417584,0.489159,-0.553811,0.545586,-0.700000,0.564832,-0.846189,0.545586,-0.982416,0.489159,-1.099397,0.399397,-1.189159,0.282416,-1.245586,0.146189,-1.264832,0.000000,-1.760000,0.000000,-1.739632,0.206796,-1.679312,0.405644,-1.581358,0.588904,-1.449533,0.749533,-1.288904,0.881358,-1.105644,0.979312,-0.906796,1.039632,-0.700000,1.060000,-0.493204,1.039632,-0.493204,1.039632,
$1*%
G04 Aperture macros list end*
G04 #@! TA.AperFunction,ComponentPad*
%ADD10C,1.000000*%
G04 #@! TD*
G04 #@! TA.AperFunction,ConnectorPad*
%ADD11C,1.000000*%
G04 #@! TD*
G04 #@! TA.AperFunction,SMDPad,CuDef*
%ADD12R,0.270000X0.250000*%
G04 #@! TD*
G04 #@! TA.AperFunction,SMDPad,CuDef*
%ADD13R,0.500000X0.600000*%
G04 #@! TD*
G04 #@! TA.AperFunction,SMDPad,CuDef*
%ADD14R,0.250000X0.270000*%
G04 #@! TD*
G04 #@! TA.AperFunction,SMDPad,CuDef*
%ADD15R,0.800000X0.600000*%
G04 #@! TD*
G04 #@! TA.AperFunction,SMDPad,CuDef*
%ADD16R,0.350000X1.100000*%
G04 #@! TD*
G04 #@! TA.AperFunction,SMDPad,CuDef*
%ADD17R,1.050000X1.400000*%
G04 #@! TD*
G04 #@! TA.AperFunction,SMDPad,CuDef*
%ADD18R,0.450000X0.750000*%
G04 #@! TD*
G04 #@! TA.AperFunction,SMDPad,CuDef*
%ADD19FreePoly0,270.000000*%
G04 #@! TD*
G04 #@! TA.AperFunction,SMDPad,CuDef*
%ADD20FreePoly0,90.000000*%
G04 #@! TD*
G04 #@! TA.AperFunction,SMDPad,CuDef*
%ADD21R,1.143000X1.549400*%
G04 #@! TD*
G04 #@! TA.AperFunction,SMDPad,CuDef*
%ADD22R,2.057400X0.635000*%
G04 #@! TD*
G04 #@! TA.AperFunction,SMDPad,CuDef*
%ADD23R,0.254000X0.355600*%
G04 #@! TD*
G04 #@! TA.AperFunction,SMDPad,CuDef*
%ADD24R,0.508000X1.092200*%
G04 #@! TD*
G04 #@! TA.AperFunction,SMDPad,CuDef*
%ADD25RoundRect,0.147500X0.172500X-0.147500X0.172500X0.147500X-0.172500X0.147500X-0.172500X-0.147500X0*%
G04 #@! TD*
G04 #@! TA.AperFunction,SMDPad,CuDef*
%ADD26RoundRect,0.050000X0.050000X-0.200000X0.050000X0.200000X-0.050000X0.200000X-0.050000X-0.200000X0*%
G04 #@! TD*
G04 #@! TA.AperFunction,SMDPad,CuDef*
%ADD27RoundRect,0.050000X0.275000X-0.200000X0.275000X0.200000X-0.275000X0.200000X-0.275000X-0.200000X0*%
G04 #@! TD*
G04 #@! TA.AperFunction,SMDPad,CuDef*
%ADD28R,0.600000X0.800000*%
G04 #@! TD*
G04 #@! TA.AperFunction,ViaPad*
%ADD29C,0.300000*%
G04 #@! TD*
G04 #@! TA.AperFunction,ViaPad*
%ADD30C,0.500000*%
G04 #@! TD*
G04 #@! TA.AperFunction,Conductor*
%ADD31C,0.110000*%
G04 #@! TD*
G04 #@! TA.AperFunction,Conductor*
%ADD32C,0.250000*%
G04 #@! TD*
G04 #@! TA.AperFunction,Conductor*
%ADD33C,0.150000*%
G04 #@! TD*
G04 #@! TA.AperFunction,Conductor*
%ADD34C,0.500000*%
G04 #@! TD*
G04 APERTURE END LIST*
D10*
X27400000Y44210000D03*
D11*
X27400000Y44210000D03*
D10*
X29420000Y35220000D03*
D11*
X29420000Y35220000D03*
D10*
X29820000Y36670000D03*
D11*
X29820000Y36670000D03*
D10*
X28600000Y46890000D03*
D11*
X28600000Y46890000D03*
D12*
X29750000Y51765000D03*
X29750000Y52315000D03*
X34060000Y52770000D03*
X34060000Y53320000D03*
D13*
X33660000Y49500000D03*
X33660000Y50500000D03*
D14*
X32920000Y48710000D03*
X33470000Y48710000D03*
X28145000Y36600000D03*
X27595000Y36600000D03*
D12*
X30120000Y54485000D03*
X30120000Y55035000D03*
D15*
X33170000Y52070000D03*
X33170000Y53470000D03*
D14*
X27590000Y36060000D03*
X28140000Y36060000D03*
D16*
X27945000Y40350000D03*
D17*
X30320000Y38550000D03*
X30320000Y42150000D03*
X28870000Y38550000D03*
X28870000Y42150000D03*
D14*
X27600000Y37145000D03*
X28150000Y37145000D03*
D15*
X24620000Y38950000D03*
X24620000Y40350000D03*
D14*
X30085000Y48890000D03*
X30635000Y48890000D03*
D18*
X29820001Y46030001D03*
X30520001Y46030001D03*
X29820001Y47730001D03*
X30520001Y47730001D03*
D19*
X32000001Y46180001D03*
D18*
X26025471Y37315017D03*
X25325471Y37315017D03*
X26025471Y35615017D03*
X25325471Y35615017D03*
D20*
X23845471Y37165017D03*
D21*
X26300000Y40010000D03*
D22*
X26300000Y41292700D03*
X26300000Y38727300D03*
D23*
X27125500Y39460001D03*
X27125500Y40010000D03*
X27125500Y40559999D03*
X25474500Y40559999D03*
X25474500Y40010000D03*
X25474500Y39460001D03*
D14*
X24305000Y38350000D03*
X24855000Y38350000D03*
D12*
X31920000Y43295000D03*
X31920000Y42745000D03*
D24*
X32319998Y52970000D03*
X31320000Y52970000D03*
D25*
X32620000Y44597500D03*
X32620000Y43627500D03*
D14*
X30745000Y51470000D03*
X30195000Y51470000D03*
D26*
X31320000Y43995000D03*
X31770000Y43995000D03*
D27*
X31545000Y44745000D03*
D14*
X30620000Y44070000D03*
X30070000Y44070000D03*
D15*
X30470000Y52100000D03*
X30470000Y53500000D03*
D12*
X33620000Y54455000D03*
X33620000Y55005000D03*
X26970000Y37860000D03*
X26970000Y37310000D03*
X28770000Y47935000D03*
X28770000Y48485000D03*
D28*
X26440000Y42710000D03*
X27840000Y42710000D03*
D13*
X29070000Y43520000D03*
X29070000Y44520000D03*
D29*
X27337428Y35276365D03*
X31775915Y41874085D03*
X30120000Y37520000D03*
D30*
X33260000Y52780000D03*
X30044500Y43320000D03*
D29*
X26192324Y37997353D03*
X31171290Y48571290D03*
D30*
X23480000Y39414500D03*
D29*
X31615934Y40554807D03*
X27946878Y37511099D03*
X29360000Y40230000D03*
X31200000Y49260000D03*
X28660000Y39880000D03*
X26270000Y39420000D03*
X32375500Y51330000D03*
X26785000Y35909002D03*
X29010000Y39880000D03*
X33390000Y47400000D03*
X30581615Y39796387D03*
X28660000Y39530000D03*
X26522087Y40624500D03*
X26658000Y39418243D03*
X29364397Y40583237D03*
X32000000Y49260000D03*
X29355492Y39526267D03*
X29010000Y39530000D03*
D30*
X29466842Y48979500D03*
D29*
X28660000Y40230000D03*
D30*
X32967272Y45462727D03*
D29*
X29610000Y54330000D03*
X30324000Y45277228D03*
X33869071Y51512079D03*
X29495469Y51432459D03*
X29010000Y40230000D03*
D30*
X24931798Y38824502D03*
X23410498Y38320000D03*
D29*
X33706757Y49636757D03*
X32400000Y52020000D03*
X27605500Y37179224D03*
X28660000Y40580000D03*
X29360000Y39880000D03*
X31800000Y50980000D03*
X27923597Y41943595D03*
X32200000Y51675000D03*
X29020000Y40590000D03*
X31503763Y42648535D03*
D30*
X26115813Y41947421D03*
D29*
X25689271Y37902138D03*
X29616032Y37674720D03*
X31130000Y55050000D03*
D30*
X22778778Y37417460D03*
D29*
X31600000Y52020000D03*
X28572668Y45942994D03*
D30*
X29540000Y50690000D03*
X24790498Y40835000D03*
D29*
X31009501Y47822512D03*
X31986022Y51325590D03*
X33045141Y45964859D03*
D30*
X27905500Y43454500D03*
D29*
X29170000Y48220000D03*
X28925000Y36575000D03*
X29248940Y40956028D03*
D30*
X31191720Y53057377D03*
D29*
X32000000Y52020000D03*
D30*
X32417065Y53124894D03*
D29*
X29005000Y37596346D03*
X32400000Y54180000D03*
X31180000Y54180000D03*
X28880500Y37130984D03*
X30060000Y40230000D03*
X30500700Y52720000D03*
X27000000Y36270000D03*
X30600000Y50985000D03*
X29135493Y50207003D03*
X32395834Y50631692D03*
X30060000Y39530000D03*
X28372332Y40945375D03*
X29145500Y47390500D03*
X28802762Y40942397D03*
X30009500Y45039938D03*
X29702071Y39671302D03*
X29217484Y46098831D03*
X29709999Y40059086D03*
X32402741Y48462741D03*
X32065500Y42152614D03*
X32963992Y50060000D03*
X32200000Y50295000D03*
X30060000Y40930000D03*
X29140000Y45250000D03*
X31230000Y39130000D03*
X31420189Y39469911D03*
X31000000Y50300000D03*
X30994104Y40441809D03*
X32000000Y50640000D03*
X31058086Y40826021D03*
X32956291Y49655950D03*
X32920498Y49240000D03*
X31168269Y41593497D03*
X32200000Y49610000D03*
X31084502Y38590000D03*
X30879522Y40047312D03*
X31998543Y49943357D03*
X31150500Y41204402D03*
X31800000Y49605000D03*
X32870019Y50684500D03*
X31629500Y48417920D03*
X29739885Y40570526D03*
X31200000Y50640000D03*
X22495532Y35445531D03*
X30209500Y49685523D03*
X29660212Y40961243D03*
D31*
X32920000Y48562806D02*
X32920000Y48710000D01*
X31171290Y48448710D02*
X31497080Y48122920D01*
D32*
X27337428Y35276365D02*
X27337428Y35285048D01*
D31*
X32480114Y48122920D02*
X32920000Y48562806D01*
X31497080Y48122920D02*
X32480114Y48122920D01*
X31171290Y48571290D02*
X31171290Y48448710D01*
D32*
X27337428Y35285048D02*
X27350000Y35297620D01*
D33*
X30581615Y39796387D02*
X30581615Y38821615D01*
X33650000Y49510000D02*
X33865395Y49294605D01*
X33330000Y52040000D02*
X33100000Y52040000D01*
X27400000Y44210000D02*
X27855000Y44210000D01*
X28545000Y43520000D02*
X28945000Y43520000D01*
X25325471Y35865471D02*
X25325471Y35615017D01*
D32*
X25377199Y40010000D02*
X24600000Y39232801D01*
D33*
X30470000Y51805000D02*
X30745000Y51530000D01*
D32*
X25325471Y36285017D02*
X24445471Y37165017D01*
X32717275Y45462727D02*
X32000001Y46180001D01*
D33*
X33960571Y50029429D02*
X33650000Y49718859D01*
D32*
X24600000Y39232801D02*
X24600000Y38970000D01*
X27125500Y40010000D02*
X26300000Y40010000D01*
D33*
X32510000Y52130000D02*
X32400000Y52020000D01*
D31*
X29427870Y52045000D02*
X30365000Y52045000D01*
D34*
X27400000Y43770000D02*
X27400000Y44210000D01*
X26440000Y42710000D02*
X26440000Y42810000D01*
D33*
X29466842Y48979500D02*
X29556342Y48890000D01*
D31*
X34070000Y50138858D02*
X34070000Y51070000D01*
D33*
X33360000Y46750000D02*
X33360000Y45650000D01*
X29556342Y48890000D02*
X30085000Y48890000D01*
D32*
X24305000Y38675000D02*
X24305000Y38350000D01*
D31*
X33040000Y45389999D02*
X32967272Y45462727D01*
D33*
X33360000Y46792358D02*
X33360000Y46750000D01*
D31*
X29965000Y54330000D02*
X30120000Y54485000D01*
D33*
X33865395Y49294605D02*
X33865395Y48434692D01*
D34*
X26440000Y42810000D02*
X27400000Y43770000D01*
D33*
X27855000Y44210000D02*
X28545000Y43520000D01*
D31*
X30365000Y52045000D02*
X30470000Y52150000D01*
D32*
X25325471Y35615017D02*
X25325471Y36285017D01*
D33*
X33675921Y47108279D02*
X33360000Y46792358D01*
X30470000Y52150000D02*
X30470000Y51805000D01*
D32*
X25474500Y40010000D02*
X26300000Y40010000D01*
D33*
X31320000Y42832298D02*
X31320000Y43995000D01*
D32*
X32967272Y45462727D02*
X32717275Y45462727D01*
X26780998Y35909002D02*
X26380000Y36310000D01*
X26785000Y35909002D02*
X26780998Y35909002D01*
D31*
X33960571Y50029429D02*
X34070000Y50138858D01*
D32*
X24600000Y38970000D02*
X24305000Y38675000D01*
D31*
X29610000Y54330000D02*
X29965000Y54330000D01*
D33*
X34070000Y51070000D02*
X33100000Y52040000D01*
X33172727Y45462727D02*
X32967272Y45462727D01*
D32*
X25610454Y36310000D02*
X25325471Y36025017D01*
D33*
X30581615Y38821615D02*
X30310000Y38550000D01*
D32*
X25474500Y40010000D02*
X25377199Y40010000D01*
D33*
X33150000Y52130000D02*
X32510000Y52130000D01*
D32*
X26380000Y36310000D02*
X25610454Y36310000D01*
D33*
X33650000Y49718859D02*
X33650000Y49510000D01*
X33360000Y45650000D02*
X33172727Y45462727D01*
X31503763Y42648535D02*
X31320000Y42832298D01*
D32*
X24275000Y38320000D02*
X24305000Y38350000D01*
D34*
X26440000Y42271608D02*
X26115813Y41947421D01*
D31*
X29427870Y52045000D02*
X29427870Y51397648D01*
D34*
X26440000Y42710000D02*
X26440000Y42271608D01*
D32*
X24445471Y37165017D02*
X23845471Y37165017D01*
D33*
X34060000Y52770000D02*
X33330000Y52040000D01*
D32*
X25325471Y35615017D02*
X25325471Y36025017D01*
D33*
X33865395Y48434692D02*
X33675921Y47108279D01*
D32*
X23410498Y38320000D02*
X24275000Y38320000D01*
D31*
X31130000Y55050000D02*
X30135000Y55050000D01*
X30135000Y55050000D02*
X30120000Y55035000D01*
D33*
X29420000Y45470000D02*
X30045000Y45470000D01*
X30635000Y49185000D02*
X30635000Y48890000D01*
X31478081Y50811919D02*
X31540000Y50750000D01*
D32*
X24475000Y37830000D02*
X24855000Y38210000D01*
X23230000Y37830000D02*
X24475000Y37830000D01*
X24855000Y38350000D02*
X25325472Y37879528D01*
D33*
X31540000Y50090000D02*
X30635000Y49185000D01*
X28572668Y45942994D02*
X28731831Y45783831D01*
X29106169Y45783831D02*
X29420000Y45470000D01*
X31478081Y51898081D02*
X31478081Y50811919D01*
X31540000Y50750000D02*
X31540000Y50090000D01*
D31*
X30045000Y45470000D02*
X30520001Y45945001D01*
X30520001Y45945001D02*
X30520001Y46030001D01*
D33*
X30635000Y48890000D02*
X30635000Y47845000D01*
X28731831Y45783831D02*
X29106169Y45783831D01*
D32*
X30509999Y47730001D02*
X30509999Y46029999D01*
D33*
X31600000Y52020000D02*
X31478081Y51898081D01*
D32*
X22817460Y37417460D02*
X23230000Y37830000D01*
X22778778Y37417460D02*
X22817460Y37417460D01*
X25325472Y37879528D02*
X25325472Y37315018D01*
D33*
X30635000Y47845000D02*
X30520001Y47730001D01*
D32*
X24855000Y38210000D02*
X24855000Y38350000D01*
D34*
X26300000Y41292700D02*
X25522700Y41292700D01*
X25522700Y41292700D02*
X24600000Y40370000D01*
D32*
X24789999Y40559999D02*
X24600000Y40370000D01*
X24600000Y40370000D02*
X24600000Y40644502D01*
X25474500Y40559999D02*
X24789999Y40559999D01*
X24600000Y40644502D02*
X24790498Y40835000D01*
D31*
X33701200Y53901200D02*
X33701200Y53678800D01*
X33701200Y53678800D02*
X34060000Y53320000D01*
X33620000Y54455000D02*
X33620000Y53982400D01*
X33620000Y53982400D02*
X33701200Y53901200D01*
D33*
X29750000Y51765000D02*
X29985000Y51530000D01*
X29985000Y51530000D02*
X30195000Y51530000D01*
X33400000Y51380000D02*
X32842694Y51380000D01*
X32690500Y51227806D02*
X32690500Y51199522D01*
D31*
X32477694Y51015000D02*
X32651347Y51188653D01*
D33*
X31986022Y51325590D02*
X31986022Y51274000D01*
X32245022Y51015000D02*
X32430000Y51015000D01*
X33570000Y51210000D02*
X33400000Y51380000D01*
X31986022Y51274000D02*
X32245022Y51015000D01*
X33570000Y50630000D02*
X33570000Y51210000D01*
X32842694Y51380000D02*
X32690500Y51227806D01*
D31*
X32430000Y51015000D02*
X32477694Y51015000D01*
D32*
X27543700Y39501201D02*
X27502500Y39460001D01*
D31*
X27750000Y35670000D02*
X28140000Y36060000D01*
X27502500Y39460001D02*
X27494393Y39451894D01*
X27310500Y37382694D02*
X27310500Y35789500D01*
D32*
X27543700Y40560000D02*
X27125500Y40559999D01*
D31*
X27430000Y35670000D02*
X27750000Y35670000D01*
D32*
X27543700Y40560000D02*
X27543700Y39501201D01*
D31*
X27494393Y39451894D02*
X27494393Y37566587D01*
D32*
X27502500Y39460001D02*
X27125500Y39460001D01*
X27840000Y42710000D02*
X27840000Y43389000D01*
D31*
X27310500Y35789500D02*
X27430000Y35670000D01*
D32*
X27543700Y42413700D02*
X27543700Y40560000D01*
D31*
X27494393Y37566587D02*
X27310500Y37382694D01*
X28169502Y36030498D02*
X28140000Y36060000D01*
D32*
X27840000Y43389000D02*
X27905500Y43454500D01*
X27840000Y42710000D02*
X27543700Y42413700D01*
D31*
X28145000Y36700000D02*
X28145000Y37145000D01*
X28145000Y37145000D02*
X28150000Y37150000D01*
X28925000Y36575000D02*
X28900000Y36600000D01*
X28900000Y36600000D02*
X28145000Y36600000D01*
D34*
X30470000Y53550000D02*
X31055901Y53550000D01*
D33*
X29750000Y52315000D02*
X29750000Y52600000D01*
X30470000Y53320000D02*
X30470000Y53550000D01*
X29750000Y52600000D02*
X30470000Y53320000D01*
D34*
X31055901Y53550000D02*
X31310001Y53295900D01*
X33170000Y53470000D02*
X32819998Y53470000D01*
D33*
X33620000Y55005000D02*
X33630000Y55005000D01*
X33150000Y53530000D02*
X33150000Y54535000D01*
D34*
X32819998Y53470000D02*
X32319998Y52970000D01*
D33*
X33150000Y54535000D02*
X33620000Y55005000D01*
X31870000Y44745000D02*
X31545000Y44745000D01*
X32095000Y43895000D02*
X32095000Y44520000D01*
X32545000Y43445000D02*
X32095000Y43895000D01*
X32095000Y44520000D02*
X31870000Y44745000D01*
X29038021Y50109531D02*
X29031945Y50073784D01*
X29783689Y50160000D02*
X29182496Y50160000D01*
X28740000Y48821264D02*
X28740000Y48515000D01*
X28839090Y49191034D02*
X28740000Y48821264D01*
X27000000Y36270000D02*
X27000000Y37280000D01*
X29182496Y50160000D02*
X29135493Y50207003D01*
X30600000Y50985000D02*
X30600000Y50976311D01*
X29135493Y50207003D02*
X29038021Y50109531D01*
X29031945Y50073784D02*
X28839090Y49191034D01*
X27000000Y37280000D02*
X26970000Y37310000D01*
X28740000Y48515000D02*
X28770000Y48485000D01*
X30600000Y50976311D02*
X29783689Y50160000D01*
D32*
X26570453Y37860000D02*
X26970000Y37860000D01*
X26025471Y37315018D02*
X26570453Y37860000D01*
D31*
X28850000Y47870000D02*
X29280000Y47870000D01*
D33*
X29520000Y47135011D02*
X29820001Y46835010D01*
D31*
X29440000Y47215011D02*
X29520000Y47135011D01*
D33*
X29820001Y46835010D02*
X29820001Y46030000D01*
D31*
X29440000Y47710000D02*
X29440000Y47215011D01*
X29280000Y47870000D02*
X29440000Y47710000D01*
X32992213Y50979500D02*
X33258492Y50713221D01*
X32743642Y50979500D02*
X32992213Y50979500D01*
X33258492Y50713221D02*
X33258492Y48921508D01*
X33258492Y48921508D02*
X33470000Y48710000D01*
X32395834Y50631692D02*
X32743642Y50979500D01*
D33*
X28372332Y41662332D02*
X28860000Y42150000D01*
X28372332Y40945375D02*
X28372332Y41662332D01*
D31*
X28270000Y45195000D02*
X28945000Y44520000D01*
X28437994Y46237994D02*
X28270000Y46070000D01*
X28270000Y46070000D02*
X28270000Y45195000D01*
X29240000Y47103885D02*
X29345000Y46998885D01*
X28694862Y46237994D02*
X28437994Y46237994D01*
X29095290Y46393831D02*
X28916459Y46215000D01*
X29240000Y47296000D02*
X29240000Y47103885D01*
X29345000Y46998885D02*
X29345000Y46545000D01*
X29345000Y46545000D02*
X29193831Y46393831D01*
X28916459Y46215000D02*
X28717856Y46215000D01*
X29193831Y46393831D02*
X29095290Y46393831D01*
X28717856Y46215000D02*
X28694862Y46237994D01*
X29145500Y47390500D02*
X29240000Y47296000D01*
X31629500Y48417920D02*
X31927920Y48417920D01*
X32495000Y48985000D02*
X32495000Y50309481D01*
X31927920Y48417920D02*
X32495000Y48985000D01*
X32495000Y50309481D02*
X32870019Y50684500D01*
D33*
X29102563Y49272563D02*
X29052342Y49042689D01*
X26025471Y35335015D02*
X26025471Y35615016D01*
X25740472Y35050016D02*
X26025471Y35335015D01*
X24979984Y35050016D02*
X25740472Y35050016D01*
X29052342Y48727658D02*
X29245000Y48535000D01*
X31200000Y50640000D02*
X30603101Y50640000D01*
X29883100Y49920000D02*
X29750000Y49920000D01*
X29485000Y48350478D02*
X29485000Y48150000D01*
X22741063Y35200000D02*
X24830000Y35200000D01*
X29052342Y49042689D02*
X29052342Y48727658D01*
X29991550Y50028450D02*
X29883100Y49920000D01*
X24830000Y35200000D02*
X24979984Y35050016D01*
X30209500Y49810500D02*
X29991550Y50028450D01*
X29300478Y48535000D02*
X29485000Y48350478D01*
X29485000Y48150000D02*
X29565000Y48070000D01*
X22495532Y35445531D02*
X22741063Y35200000D01*
X30603101Y50640000D02*
X29991550Y50028450D01*
X29245000Y48535000D02*
X29300478Y48535000D01*
X30209500Y49685523D02*
X30209500Y49810500D01*
X29565000Y48070000D02*
X29810000Y48070000D01*
X29750000Y49920000D02*
X29102563Y49272563D01*
D32*
X25474500Y39460001D02*
X25474500Y39032201D01*
X25474500Y39032201D02*
X25779401Y38727300D01*
D31*
X27595000Y36600000D02*
X27595000Y36065000D01*
X27595000Y36065000D02*
X27590000Y36060000D01*
D33*
X28016474Y44568526D02*
X28600000Y43985000D01*
X28600000Y43985000D02*
X29985000Y43985000D01*
X28600000Y46895000D02*
X28016474Y46311474D01*
X29985000Y43985000D02*
X30070000Y44070000D01*
X28016474Y46311474D02*
X28016474Y44568526D01*
X30620000Y44070000D02*
X30620000Y44600442D01*
X32545000Y44709999D02*
X32545000Y44415000D01*
X30620000Y44600442D02*
X31192285Y45172727D01*
X32082272Y45172727D02*
X32545000Y44709999D01*
X31192285Y45172727D02*
X32082272Y45172727D01*
X31591815Y42291815D02*
X31920000Y42620000D01*
X29660212Y40961243D02*
X29620000Y41001455D01*
X29620000Y43482399D02*
X29872601Y43735000D01*
X30480000Y43735000D02*
X31030000Y43185000D01*
X31273185Y42291815D02*
X31591815Y42291815D01*
X29872601Y43735000D02*
X30480000Y43735000D01*
X31030000Y42535000D02*
X31273185Y42291815D01*
X31030000Y43185000D02*
X31030000Y42535000D01*
X31920000Y42620000D02*
X31920000Y42745000D01*
X29620000Y41001455D02*
X29620000Y43482399D01*
X31770000Y43995000D02*
X31770000Y43445000D01*
X31770000Y43445000D02*
X31920000Y43295000D01*
G04 #@! TA.AperFunction,Conductor*
G36*
X33862436Y48340315D02*
G01*
X33908191Y48287511D01*
X33918135Y48218353D01*
X33917946Y48217088D01*
X33690276Y46741791D01*
X33689679Y46738258D01*
X33545956Y45957364D01*
X33514462Y45894995D01*
X33493132Y45882441D01*
X33504502Y45870231D01*
X33516910Y45801472D01*
X33515572Y45792277D01*
X33410977Y45223977D01*
X33379483Y45161608D01*
X33319269Y45126167D01*
X33274870Y45123233D01*
X32571145Y45204121D01*
X32506795Y45231331D01*
X32488064Y45250371D01*
X32069646Y45779315D01*
X32043494Y45844103D01*
X32056520Y45912748D01*
X32093389Y45956105D01*
X32105277Y45964856D01*
X32789733Y45964856D01*
X32809174Y45867120D01*
X32864540Y45784258D01*
X32947402Y45728892D01*
X33045139Y45709451D01*
X33045141Y45709451D01*
X33045143Y45709451D01*
X33142879Y45728892D01*
X33142880Y45728892D01*
X33142881Y45728893D01*
X33225742Y45784258D01*
X33281107Y45867119D01*
X33281107Y45867120D01*
X33287892Y45877274D01*
X33290060Y45875825D01*
X33321412Y45914734D01*
X33302387Y45955618D01*
X33300549Y45964859D01*
X33281107Y46062599D01*
X33225742Y46145460D01*
X33142881Y46200825D01*
X33094011Y46210546D01*
X33045143Y46220267D01*
X33045139Y46220267D01*
X32979981Y46207305D01*
X32947401Y46200825D01*
X32864540Y46145460D01*
X32809175Y46062599D01*
X32809174Y46062597D01*
X32789733Y45964861D01*
X32789733Y45964856D01*
X32105277Y45964856D01*
X32709998Y46409998D01*
X32710000Y46410000D01*
X32740000Y47050000D01*
X32432684Y47655850D01*
X32419914Y47724541D01*
X32446307Y47789233D01*
X32459727Y47803574D01*
X33034499Y48327631D01*
X33097300Y48358253D01*
X33118044Y48360000D01*
X33795397Y48360000D01*
X33862436Y48340315D01*
G37*
G04 #@! TD.AperFunction*
G04 #@! TA.AperFunction,Conductor*
G36*
X26693039Y36750315D02*
G01*
X26738794Y36697511D01*
X26750000Y36646000D01*
X26750000Y36309399D01*
X26747617Y36285205D01*
X26744592Y36269999D01*
X26747617Y36254792D01*
X26750000Y36230600D01*
X26750000Y35881638D01*
X26730315Y35814599D01*
X26677511Y35768844D01*
X26628386Y35757661D01*
X26477352Y35754756D01*
X26409949Y35773148D01*
X26363187Y35825062D01*
X26350970Y35878733D01*
X26350970Y35999912D01*
X26350969Y35999916D01*
X26345140Y36029230D01*
X26322928Y36062474D01*
X26289684Y36084686D01*
X26260370Y36090517D01*
X25790573Y36090516D01*
X25790568Y36090515D01*
X25761258Y36084686D01*
X25728013Y36062474D01*
X25705803Y36029231D01*
X25705800Y36029225D01*
X25699971Y35999918D01*
X25699971Y35524000D01*
X25680286Y35456961D01*
X25627482Y35411206D01*
X25575971Y35400000D01*
X24517673Y35400000D01*
X24450634Y35419685D01*
X24404879Y35472489D01*
X24393726Y35527619D01*
X24402105Y35814599D01*
X24426485Y36649619D01*
X24448118Y36716055D01*
X24502234Y36760250D01*
X24550432Y36770000D01*
X26626000Y36770000D01*
X26693039Y36750315D01*
G37*
G04 #@! TD.AperFunction*
M02*
