M48
; DRILL file {KiCad 7.0.10-7.0.10~ubuntu20.04.1} date Tue 02 Jan 2024 21:41:47 GMT
; FORMAT={-:-/ absolute / metric / decimal}
; #@! TF.CreationDate,2024-01-02T21:41:47+00:00
; #@! TF.GenerationSoftware,Kicad,Pcbnew,7.0.10-7.0.10~ubuntu20.04.1
; #@! TF.FileFunction,Plated,1,8,PTH
FMAT,2
METRIC
; #@! TA.AperFunction,Plated,PTH,ViaDrill
T1C0.150
; #@! TA.AperFunction,Plated,PTH,ViaDrill
T2C0.300
; #@! TA.AperFunction,Plated,PTH,ComponentDrill
T3C0.600
%
G90
G05
T1
X109.126Y-82.774
X112.319Y-80.318
X112.822Y-80.223
X112.9Y-78.8
X113.152Y-77.596
X113.288Y-78.802
X113.415Y-82.311
X113.63Y-81.95
X113.967Y-82.944
X114.236Y-81.041
X114.554Y-76.276
X114.577Y-80.709
X115.002Y-77.275
X115.203Y-72.277
X115.29Y-77.64
X115.29Y-77.99
X115.29Y-78.34
X115.29Y-78.69
X115.433Y-77.278
X115.51Y-81.089
X115.555Y-81.645
X115.635Y-80.624
X115.64Y-77.99
X115.64Y-78.34
X115.64Y-78.69
X115.65Y-77.63
X115.765Y-68.013
X115.77Y-72.97
X115.775Y-70.829
X115.8Y-70.0
X115.847Y-72.121
X115.879Y-77.264
X115.985Y-78.694
X115.99Y-77.99
X115.99Y-78.34
X115.994Y-77.637
X116.125Y-66.788
X116.24Y-63.89
X116.246Y-80.545
X116.29Y-77.259
X116.332Y-78.549
X116.34Y-78.161
X116.37Y-77.649
X116.639Y-73.18
X116.69Y-77.29
X116.69Y-77.99
X116.69Y-78.69
X116.75Y-80.7
X116.84Y-68.534
X116.954Y-72.943
X117.131Y-65.5
X117.212Y-78.424
X117.23Y-67.235
X117.51Y-78.173
X117.624Y-77.778
X117.63Y-67.92
X117.64Y-70.397
X117.688Y-77.394
X117.715Y-79.63
X117.76Y-63.17
X117.78Y-77.016
X117.798Y-76.627
X117.801Y-69.649
X117.81Y-64.04
X117.83Y-67.58
X117.83Y-68.96
X117.86Y-79.09
X118.05Y-78.75
X118.134Y-75.571
X118.23Y-66.2
X118.246Y-77.665
X118.259Y-69.802
X118.406Y-76.346
X118.43Y-67.24
X118.43Y-68.615
X118.616Y-66.894
X118.629Y-68.277
X118.63Y-66.2
X118.63Y-67.58
X118.63Y-68.96
X118.695Y-76.067
X118.83Y-66.545
X118.83Y-67.925
X118.83Y-68.61
X119.005Y-66.89
X119.026Y-67.588
X119.03Y-64.04
X119.03Y-66.2
X119.033Y-69.757
X119.5Y-67.535
X119.55Y-68.98
X119.586Y-68.564
X119.594Y-68.16
X119.675Y-72.255
X120.02Y-70.82
X120.337Y-68.583
X120.499Y-66.708
T2
X109.409Y-80.803
X110.04Y-79.9
X110.11Y-78.805
X111.42Y-77.385
X111.562Y-79.395
X112.746Y-76.273
X114.535Y-74.766
X116.097Y-69.24
X116.17Y-67.53
X116.674Y-74.9
X117.822Y-65.163
X119.047Y-65.095
X119.597Y-72.757
X119.89Y-65.44
T3
X114.03Y-74.01
X115.23Y-71.33
X116.05Y-83.0
X116.45Y-81.55
M30
