G04 #@! TF.GenerationSoftware,KiCad,Pcbnew,7.0.10-7.0.10~ubuntu20.04.1*
G04 #@! TF.CreationDate,2024-01-02T22:15:02+00:00*
G04 #@! TF.ProjectId,yote,796f7465-2e6b-4696-9361-645f70636258,rev?*
G04 #@! TF.SameCoordinates,Original*
G04 #@! TF.FileFunction,Soldermask,Bot*
G04 #@! TF.FilePolarity,Negative*
%FSLAX46Y46*%
G04 Gerber Fmt 4.6, Leading zero omitted, Abs format (unit mm)*
G04 Created by KiCad (PCBNEW 7.0.10-7.0.10~ubuntu20.04.1) date 2024-01-02 22:15:02*
%MOMM*%
%LPD*%
G01*
G04 APERTURE LIST*
G04 Aperture macros list*
%AMRoundRect*
0 Rectangle with rounded corners*
0 $1 Rounding radius*
0 $2 $3 $4 $5 $6 $7 $8 $9 X,Y pos of 4 corners*
0 Add a 4 corners polygon primitive as box body*
4,1,4,$2,$3,$4,$5,$6,$7,$8,$9,$2,$3,0*
0 Add four circle primitives for the rounded corners*
1,1,$1+$1,$2,$3*
1,1,$1+$1,$4,$5*
1,1,$1+$1,$6,$7*
1,1,$1+$1,$8,$9*
0 Add four rect primitives between the rounded corners*
20,1,$1+$1,$2,$3,$4,$5,0*
20,1,$1+$1,$4,$5,$6,$7,0*
20,1,$1+$1,$6,$7,$8,$9,0*
20,1,$1+$1,$8,$9,$2,$3,0*%
%AMFreePoly0*
4,1,59,-0.493204,1.039632,-0.294356,0.979312,-0.111096,0.881358,0.049533,0.749533,0.181358,0.588904,0.279312,0.405644,0.339632,0.206796,0.360000,0.000000,0.339632,-0.206796,0.279312,-0.405644,0.181358,-0.588904,0.049533,-0.749533,-0.111096,-0.881358,-0.294356,-0.979312,-0.493204,-1.039632,-0.700000,-1.060000,-0.906796,-1.039632,-1.105644,-0.979312,-1.288904,-0.881358,-1.449533,-0.749533,
-1.581358,-0.588904,-1.679312,-0.405644,-1.739632,-0.206796,-1.760000,0.000000,-1.264832,0.000000,-1.245586,-0.146189,-1.189159,-0.282416,-1.099397,-0.399397,-0.982416,-0.489159,-0.846189,-0.545586,-0.700000,-0.564832,-0.553811,-0.545586,-0.417584,-0.489159,-0.300603,-0.399397,-0.210841,-0.282416,-0.154414,-0.146189,-0.135168,0.000000,-0.154414,0.146189,-0.210841,0.282416,-0.300603,0.399397,
-0.417584,0.489159,-0.553811,0.545586,-0.700000,0.564832,-0.846189,0.545586,-0.982416,0.489159,-1.099397,0.399397,-1.189159,0.282416,-1.245586,0.146189,-1.264832,0.000000,-1.760000,0.000000,-1.739632,0.206796,-1.679312,0.405644,-1.581358,0.588904,-1.449533,0.749533,-1.288904,0.881358,-1.105644,0.979312,-0.906796,1.039632,-0.700000,1.060000,-0.493204,1.039632,-0.493204,1.039632,
$1*%
G04 Aperture macros list end*
%ADD10C,1.000000*%
%ADD11C,0.990600*%
%ADD12R,0.270000X0.250000*%
%ADD13R,0.500000X0.600000*%
%ADD14R,0.250000X0.270000*%
%ADD15R,0.800000X0.600000*%
%ADD16R,0.350000X1.100000*%
%ADD17R,1.050000X1.400000*%
%ADD18C,0.800000*%
%ADD19R,0.450000X0.750000*%
%ADD20FreePoly0,270.000000*%
%ADD21FreePoly0,90.000000*%
%ADD22R,1.143000X1.549400*%
%ADD23R,2.057400X0.635000*%
%ADD24R,0.254000X0.355600*%
%ADD25R,0.508000X1.092200*%
%ADD26RoundRect,0.147500X0.172500X-0.147500X0.172500X0.147500X-0.172500X0.147500X-0.172500X-0.147500X0*%
%ADD27RoundRect,0.050000X0.050000X-0.200000X0.050000X0.200000X-0.050000X0.200000X-0.050000X-0.200000X0*%
%ADD28RoundRect,0.050000X0.275000X-0.200000X0.275000X0.200000X-0.275000X0.200000X-0.275000X-0.200000X0*%
%ADD29R,0.600000X0.800000*%
G04 APERTURE END LIST*
D10*
X27400000Y44210000D03*
X27400000Y44210000D03*
X29420000Y35220000D03*
X29420000Y35220000D03*
X29820000Y36670000D03*
X29820000Y36670000D03*
X28600000Y46890000D03*
X28600000Y46890000D03*
D11*
X34320000Y54130000D03*
X29240000Y53114000D03*
X29240000Y55146000D03*
D12*
X29750000Y51765000D03*
X29750000Y52315000D03*
X34060000Y52770000D03*
X34060000Y53320000D03*
D13*
X33660000Y49500000D03*
X33660000Y50500000D03*
D14*
X32920000Y48710000D03*
X33470000Y48710000D03*
X28145000Y36600000D03*
X27595000Y36600000D03*
D12*
X30120000Y54485000D03*
X30120000Y55035000D03*
D15*
X33170000Y52070000D03*
X33170000Y53470000D03*
D14*
X27590000Y36060000D03*
X28140000Y36060000D03*
D16*
X27945000Y40350000D03*
D17*
X30320000Y38550000D03*
X30320000Y42150000D03*
X28870000Y38550000D03*
X28870000Y42150000D03*
D14*
X27600000Y37145000D03*
X28150000Y37145000D03*
D15*
X24620000Y38950000D03*
X24620000Y40350000D03*
D14*
X30085000Y48890000D03*
X30635000Y48890000D03*
D18*
X32000001Y46880001D03*
D19*
X29820001Y46030001D03*
X30520001Y46030001D03*
X29820001Y47730001D03*
X30520001Y47730001D03*
D20*
X32000001Y46180001D03*
D18*
X23845471Y36465017D03*
D19*
X26025471Y37315017D03*
X25325471Y37315017D03*
X26025471Y35615017D03*
X25325471Y35615017D03*
D21*
X23845471Y37165017D03*
D22*
X26300000Y40010000D03*
D23*
X26300000Y41292700D03*
X26300000Y38727300D03*
D24*
X27125500Y39460001D03*
X27125500Y40010000D03*
X27125500Y40559999D03*
X25474500Y40559999D03*
X25474500Y40010000D03*
X25474500Y39460001D03*
D14*
X24305000Y38350000D03*
X24855000Y38350000D03*
D12*
X31920000Y43295000D03*
X31920000Y42745000D03*
D25*
X32319998Y52970000D03*
X31320000Y52970000D03*
D26*
X32620000Y44597500D03*
X32620000Y43627500D03*
D14*
X30745000Y51470000D03*
X30195000Y51470000D03*
D27*
X31320000Y43995000D03*
X31770000Y43995000D03*
D28*
X31545000Y44745000D03*
D14*
X30620000Y44070000D03*
X30070000Y44070000D03*
D15*
X30470000Y52100000D03*
X30470000Y53500000D03*
D12*
X33620000Y54455000D03*
X33620000Y55005000D03*
X26970000Y37860000D03*
X26970000Y37310000D03*
X28770000Y47935000D03*
X28770000Y48485000D03*
D29*
X26440000Y42710000D03*
X27840000Y42710000D03*
D13*
X29070000Y43520000D03*
X29070000Y44520000D03*
M02*
