G04 #@! TF.GenerationSoftware,KiCad,Pcbnew,7.0.10-7.0.10~ubuntu20.04.1*
G04 #@! TF.CreationDate,2024-01-02T22:15:02+00:00*
G04 #@! TF.ProjectId,yote,796f7465-2e6b-4696-9361-645f70636258,rev?*
G04 #@! TF.SameCoordinates,Original*
G04 #@! TF.FileFunction,Copper,L6,Inr*
G04 #@! TF.FilePolarity,Positive*
%FSLAX46Y46*%
G04 Gerber Fmt 4.6, Leading zero omitted, Abs format (unit mm)*
G04 Created by KiCad (PCBNEW 7.0.10-7.0.10~ubuntu20.04.1) date 2024-01-02 22:15:02*
%MOMM*%
%LPD*%
G01*
G04 APERTURE LIST*
G04 #@! TA.AperFunction,ViaPad*
%ADD10C,0.300000*%
G04 #@! TD*
G04 #@! TA.AperFunction,ViaPad*
%ADD11C,0.500000*%
G04 #@! TD*
G04 #@! TA.AperFunction,Conductor*
%ADD12C,0.110000*%
G04 #@! TD*
G04 #@! TA.AperFunction,Conductor*
%ADD13C,0.250000*%
G04 #@! TD*
G04 #@! TA.AperFunction,Conductor*
%ADD14C,0.150000*%
G04 #@! TD*
G04 APERTURE END LIST*
D10*
X29616032Y37674720D03*
X31130000Y55050000D03*
D11*
X22778778Y37417460D03*
D10*
X28572668Y45942994D03*
X28925000Y36575000D03*
X29248940Y40956028D03*
X29005000Y37596346D03*
X32400000Y54180000D03*
X31180000Y54180000D03*
X28880500Y37130984D03*
X30060000Y40230000D03*
X30500700Y52720000D03*
X27000000Y36270000D03*
X29135493Y50207003D03*
X32395834Y50631692D03*
X30060000Y39530000D03*
X31420189Y39469911D03*
X31000000Y50300000D03*
X31629500Y48417920D03*
X29739885Y40570526D03*
X22495532Y35445531D03*
X30209500Y49685523D03*
D12*
X31130000Y55050000D02*
X32480337Y55050000D01*
X32161449Y40635418D02*
X31735931Y39369036D01*
X34148349Y51110306D02*
X34040085Y49778791D01*
X32548300Y41914120D02*
X32161449Y40635418D01*
X31735931Y39369036D02*
X31309417Y38216854D01*
X34040085Y49778791D02*
X33891422Y48451124D01*
X29761312Y37820000D02*
X29616032Y37674720D01*
X32896129Y43203968D02*
X32548300Y41914120D01*
X34216122Y52444539D02*
X34148349Y51110306D01*
X34216122Y53314215D02*
X34216122Y52444539D01*
X33702504Y47128608D02*
X33473502Y45812432D01*
X33473502Y45812432D02*
X33204630Y44503827D01*
X32480337Y55050000D02*
X34216122Y53314215D01*
X33204630Y44503827D02*
X32896129Y43203968D01*
X31309417Y38216854D02*
X30912563Y37820000D01*
X30912563Y37820000D02*
X29761312Y37820000D01*
X33891422Y48451124D02*
X33702504Y47128608D01*
D13*
X28572668Y45942994D02*
X28380000Y45750326D01*
X28098110Y42989500D02*
X27464500Y42989500D01*
X28380000Y43271390D02*
X28098110Y42989500D01*
X24309500Y38949500D02*
X23382388Y38949500D01*
X23382388Y38949500D02*
X22778778Y38345890D01*
X26610000Y42135000D02*
X26610000Y41250000D01*
X22778778Y38345890D02*
X22778778Y37417460D01*
X28380000Y45750326D02*
X28380000Y43271390D01*
X27464500Y42989500D02*
X26610000Y42135000D01*
X26610000Y41250000D02*
X24309500Y38949500D01*
D12*
X28959968Y41245000D02*
X29248940Y40956028D01*
X29175000Y37237168D02*
X29299500Y37361668D01*
X28254763Y41245000D02*
X28959968Y41245000D01*
X28120000Y38545000D02*
X28120000Y40780513D01*
X28925000Y36575000D02*
X29175000Y36825000D01*
X28077332Y40823181D02*
X28077332Y41067569D01*
X28077332Y41067569D02*
X28254763Y41245000D01*
X29299500Y37361668D02*
X29299500Y37732692D01*
X28759502Y37905498D02*
X28120000Y38545000D01*
X29299500Y37732692D02*
X29126694Y37905498D01*
X28120000Y40780513D02*
X28077332Y40823181D01*
X29175000Y36825000D02*
X29175000Y37237168D01*
X29126694Y37905498D02*
X28759502Y37905498D01*
X27830000Y38460000D02*
X27830000Y41103079D01*
X31704475Y53484475D02*
X32400000Y54180000D01*
X30704502Y47560498D02*
X30704502Y49889850D01*
X30945000Y45061957D02*
X30945000Y47320000D01*
X28440000Y41540000D02*
X29595000Y42695000D01*
X27830000Y41103079D02*
X28266921Y41540000D01*
X30659475Y53484475D02*
X31704475Y53484475D01*
X29595000Y43711957D02*
X30945000Y45061957D01*
X30704502Y49889850D02*
X30220000Y50374352D01*
X28266921Y41540000D02*
X28440000Y41540000D01*
X29005000Y37596346D02*
X28693654Y37596346D01*
X29595000Y42695000D02*
X29595000Y43711957D01*
X30220000Y50374352D02*
X30220000Y53045000D01*
X28693654Y37596346D02*
X27830000Y38460000D01*
X30945000Y47320000D02*
X30704502Y47560498D01*
X30220000Y53045000D02*
X30659475Y53484475D01*
X28184079Y41740000D02*
X28249539Y41740000D01*
X27595000Y38279464D02*
X27595000Y41150921D01*
X30490700Y49569046D02*
X30490700Y49820809D01*
X29945000Y53175000D02*
X30951502Y54181502D01*
X28880500Y37130984D02*
X28743480Y37130984D01*
X28249539Y41740000D02*
X29320000Y42810461D01*
X30951502Y54181502D02*
X31180000Y54181502D01*
X29945000Y50366509D02*
X29945000Y53175000D01*
X30445000Y49523346D02*
X30490700Y49569046D01*
X30670000Y47120000D02*
X30445000Y47345000D01*
X27595000Y41150921D02*
X28184079Y41740000D01*
X30490700Y49820809D02*
X29945000Y50366509D01*
X28743480Y37130984D02*
X27595000Y38279464D01*
X29320000Y42810461D02*
X29320000Y43795000D01*
X30670000Y45145000D02*
X30670000Y47120000D01*
X30445000Y47345000D02*
X30445000Y49523346D01*
X29320000Y43795000D02*
X30670000Y45145000D01*
X31598324Y48866290D02*
X31924500Y48540114D01*
X31440000Y47470000D02*
X31440000Y43490000D01*
X30945000Y52275700D02*
X30945000Y50802194D01*
X30904502Y49972692D02*
X30904502Y49085498D01*
X30705000Y50172194D02*
X30904502Y49972692D01*
X30904502Y49085498D02*
X31123710Y48866290D01*
X31440000Y43490000D02*
X30563086Y42613086D01*
X30563086Y42613086D02*
X30563085Y40733085D01*
X31123710Y48866290D02*
X31598324Y48866290D01*
X30500700Y52720000D02*
X30945000Y52275700D01*
X31924500Y47954500D02*
X31440000Y47470000D01*
X30563085Y40733085D02*
X30060000Y40230000D01*
X31924500Y48540114D02*
X31924500Y47954500D01*
X30705000Y50562194D02*
X30705000Y50172194D01*
X30945000Y50802194D02*
X30705000Y50562194D01*
D14*
X29455000Y45119522D02*
X29455000Y45890869D01*
X26972500Y36297500D02*
X26972500Y41897500D01*
X28220000Y42620000D02*
X28720000Y43120000D01*
X29532484Y48395585D02*
X29820000Y48683101D01*
X27000000Y36270000D02*
X26972500Y36297500D01*
X29455000Y45890869D02*
X29532484Y45968353D01*
X26972500Y41897500D02*
X27695000Y42620000D01*
X29820000Y49522496D02*
X29135493Y50207003D01*
X28720000Y44384522D02*
X29455000Y45119522D01*
X29820000Y48683101D02*
X29820000Y49522496D01*
X27695000Y42620000D02*
X28220000Y42620000D01*
X28720000Y43120000D02*
X28720000Y44384522D01*
X29532484Y45968353D02*
X29532484Y48395585D01*
D12*
X30060000Y39530000D02*
X30060000Y39760000D01*
X32697741Y48767259D02*
X32530000Y48935000D01*
X30355000Y40055000D02*
X30355000Y40242158D01*
X31427806Y42264500D02*
X31589500Y42264500D01*
X30060000Y39760000D02*
X30355000Y40055000D01*
X32530000Y48935000D02*
X32530000Y50497526D01*
X30763086Y41605508D02*
X31424942Y42267364D01*
X31589500Y42264500D02*
X32245000Y42920000D01*
X31424942Y42267364D02*
X31427806Y42264500D01*
X32245000Y42920000D02*
X32245000Y46247842D01*
X30355000Y40242158D02*
X30763085Y40650243D01*
X32530000Y50497526D02*
X32395834Y50631692D01*
X32245000Y46247842D02*
X32697741Y46700583D01*
X32697741Y46700583D02*
X32697741Y48767259D01*
X30763085Y40650243D02*
X30763086Y41605508D01*
X31350000Y50300000D02*
X31000000Y50300000D01*
X32397194Y52440000D02*
X31465000Y52440000D01*
X32420000Y42617566D02*
X32572272Y42769838D01*
X31493740Y41076410D02*
X32345230Y41927900D01*
X31320934Y40677001D02*
X31493740Y40849807D01*
X31267194Y52242194D02*
X31267194Y51072806D01*
X32572272Y46147272D02*
X33020000Y46595000D01*
X31465000Y52440000D02*
X31267194Y52242194D01*
X31420189Y39469911D02*
X31320934Y39569166D01*
X31267194Y51072806D02*
X31545000Y50795000D01*
X33258492Y51578702D02*
X32397194Y52440000D01*
X33020000Y47850000D02*
X33258492Y48088492D01*
X31320934Y39569166D02*
X31320934Y40677001D01*
X32345230Y41927900D02*
X32420000Y42205169D01*
X33258492Y48088492D02*
X33258492Y51578702D01*
X31545000Y50495000D02*
X31350000Y50300000D01*
X31493740Y40849807D02*
X31493740Y41076410D01*
X32420000Y42205169D02*
X32420000Y42617566D01*
X33020000Y46595000D02*
X33020000Y47850000D01*
X32572272Y42769838D02*
X32572272Y46147272D01*
X31545000Y50795000D02*
X31545000Y50495000D01*
X31629500Y48417920D02*
X31629500Y47979500D01*
X30117720Y40570526D02*
X29739885Y40570526D01*
X31195000Y43645000D02*
X30355000Y42805000D01*
X31629500Y47979500D02*
X31195000Y47545000D01*
X31195000Y47545000D02*
X31195000Y43645000D01*
X30355000Y42805000D02*
X30355000Y40807806D01*
X30355000Y40807806D02*
X30117720Y40570526D01*
D14*
X26895531Y35445531D02*
X22495532Y35445531D01*
X30209500Y49685523D02*
X30170000Y49646023D01*
X30170000Y46266457D02*
X29695000Y45791457D01*
X29695000Y45791457D02*
X29695000Y44870000D01*
X28370000Y42320000D02*
X27854524Y42320000D01*
X29020000Y42970000D02*
X28370000Y42320000D01*
X29695000Y44870000D02*
X29020000Y44195000D01*
X27315000Y35865000D02*
X26895531Y35445531D01*
X30170000Y49646023D02*
X30170000Y46266457D01*
X27854524Y42320000D02*
X27315000Y41780476D01*
X27315000Y41780476D02*
X27315000Y35865000D01*
X29020000Y44195000D02*
X29020000Y42970000D01*
M02*
